Hoogli-Bold.ufo
<glyph name="numbersign" format="1">
  <advance width="606"/>
  <unicode hex="0023"/>
  <outline>
    <contour>
      <point x="317" y="-18"/>
      <point x="347" y="-8"/>
      <point x="355" y="13" type="curve" smooth="yes"/>
      <point x="540" y="491" type="line" smooth="yes"/>
      <point x="548" y="512"/>
      <point x="532" y="537"/>
      <point x="510" y="545" type="curve" smooth="yes"/>
      <point x="488" y="552"/>
      <point x="458" y="543"/>
      <point x="450" y="521" type="curve" smooth="yes"/>
      <point x="265" y="43" type="line" smooth="yes"/>
      <point x="257" y="23"/>
      <point x="273" y="-2"/>
      <point x="295" y="-10" type="curve" smooth="yes"/>
    </contour>
    <contour>
      <point x="476" y="140" type="line" smooth="yes"/>
      <point x="500" y="140"/>
      <point x="520" y="160"/>
      <point x="520" y="182" type="curve" smooth="yes"/>
      <point x="520" y="204"/>
      <point x="500" y="223"/>
      <point x="476" y="223" type="curve" smooth="yes"/>
      <point x="52" y="223" type="line" smooth="yes"/>
      <point x="28" y="223"/>
      <point x="8" y="204"/>
      <point x="8" y="182" type="curve" smooth="yes"/>
      <point x="8" y="160"/>
      <point x="28" y="140"/>
      <point x="52" y="140" type="curve" smooth="yes"/>
    </contour>
    <contour>
      <point x="107" y="-18"/>
      <point x="137" y="-8"/>
      <point x="145" y="13" type="curve" smooth="yes"/>
      <point x="330" y="491" type="line" smooth="yes"/>
      <point x="338" y="512"/>
      <point x="322" y="537"/>
      <point x="300" y="545" type="curve" smooth="yes"/>
      <point x="278" y="552"/>
      <point x="248" y="543"/>
      <point x="240" y="521" type="curve" smooth="yes"/>
      <point x="55" y="43" type="line" smooth="yes"/>
      <point x="47" y="23"/>
      <point x="63" y="-2"/>
      <point x="85" y="-10" type="curve" smooth="yes"/>
    </contour>
    <contour>
      <point x="549" y="338" type="line" smooth="yes"/>
      <point x="573" y="338"/>
      <point x="593" y="357"/>
      <point x="593" y="379" type="curve" smooth="yes"/>
      <point x="593" y="402"/>
      <point x="573" y="421"/>
      <point x="549" y="421" type="curve" smooth="yes"/>
      <point x="124" y="421" type="line" smooth="yes"/>
      <point x="100" y="421"/>
      <point x="80" y="402"/>
      <point x="80" y="379" type="curve" smooth="yes"/>
      <point x="80" y="357"/>
      <point x="100" y="338"/>
      <point x="124" y="338" type="curve" smooth="yes"/>
    </contour>
  </outline>
</glyph>
<glyph name="quotesingle" format="1">
  <advance width="237"/>
  <unicode hex="0027"/>
  <outline>
    <contour>
      <point x="106" y="338"/>
      <point x="135" y="351"/>
      <point x="140" y="373" type="curve" smooth="yes"/>
      <point x="182" y="546" type="line" smooth="yes"/>
      <point x="187" y="567"/>
      <point x="168" y="592"/>
      <point x="145" y="597" type="curve" smooth="yes"/>
      <point x="122" y="601"/>
      <point x="93" y="588"/>
      <point x="88" y="567" type="curve" smooth="yes"/>
      <point x="46" y="393" type="line" smooth="yes"/>
      <point x="41" y="372"/>
      <point x="60" y="348"/>
      <point x="83" y="343" type="curve" smooth="yes"/>
    </contour>
  </outline>
</glyph>
<glyph name="parenright" format="1">
  <advance width="332"/>
  <unicode hex="0029"/>
  <outline>
    <contour>
      <point x="84" y="-115"/>
      <point x="113" y="-115"/>
      <point x="129" y="-98" type="curve" smooth="yes"/>
      <point x="220" y="-11"/>
      <point x="289" y="119"/>
      <point x="289" y="261" type="curve" smooth="yes"/>
      <point x="289" y="406"/>
      <point x="216" y="541"/>
      <point x="130" y="630" type="curve" smooth="yes"/>
      <point x="114" y="647"/>
      <point x="85" y="648"/>
      <point x="67" y="632" type="curve" smooth="yes"/>
      <point x="50" y="617"/>
      <point x="48" y="589"/>
      <point x="64" y="573" type="curve" smooth="yes"/>
      <point x="136" y="498"/>
      <point x="191" y="381"/>
      <point x="191" y="261" type="curve" smooth="yes"/>
      <point x="191" y="143"/>
      <point x="140" y="34"/>
      <point x="65" y="-40" type="curve" smooth="yes"/>
      <point x="48" y="-57"/>
      <point x="49" y="-84"/>
      <point x="66" y="-99" type="curve" smooth="yes"/>
    </contour>
  </outline>
</glyph>
<glyph name="plus" format="1">
  <advance width="537"/>
  <unicode hex="002B"/>
  <outline>
    <contour>
      <point x="445" y="225" type="line" smooth="yes"/>
      <point x="469" y="225"/>
      <point x="489" y="244"/>
      <point x="489" y="266" type="curve" smooth="yes"/>
      <point x="489" y="289"/>
      <point x="469" y="308"/>
      <point x="445" y="308" type="curve" smooth="yes"/>
      <point x="91" y="308" type="line" smooth="yes"/>
      <point x="67" y="308"/>
      <point x="47" y="289"/>
      <point x="47" y="266" type="curve" smooth="yes"/>
      <point x="47" y="244"/>
      <point x="67" y="225"/>
      <point x="91" y="225" type="curve" smooth="yes"/>
    </contour>
    <contour>
      <point x="292" y="64"/>
      <point x="317" y="82"/>
      <point x="317" y="104" type="curve" smooth="yes"/>
      <point x="317" y="427" type="line" smooth="yes"/>
      <point x="317" y="450"/>
      <point x="292" y="469"/>
      <point x="268" y="469" type="curve" smooth="yes"/>
      <point x="244" y="469"/>
      <point x="219" y="450"/>
      <point x="219" y="427" type="curve" smooth="yes"/>
      <point x="219" y="104" type="line" smooth="yes"/>
      <point x="219" y="82"/>
      <point x="244" y="64"/>
      <point x="268" y="64" type="curve" smooth="yes"/>
    </contour>
  </outline>
</glyph>
<glyph name="comma" format="1">
  <advance width="222"/>
  <unicode hex="002C"/>
  <outline>
    <contour>
      <point x="61" y="-125"/>
      <point x="90" y="-123"/>
      <point x="105" y="-104" type="curve" smooth="yes"/>
      <point x="137" y="-63"/>
      <point x="161" y="-9"/>
      <point x="161" y="46" type="curve" smooth="yes"/>
      <point x="161" y="70"/>
      <point x="157" y="95"/>
      <point x="151" y="108" type="curve" smooth="yes"/>
      <point x="144" y="130"/>
      <point x="115" y="140"/>
      <point x="92" y="133" type="curve" smooth="yes"/>
      <point x="70" y="127"/>
      <point x="53" y="100"/>
      <point x="61" y="80" type="curve" smooth="yes"/>
      <point x="63" y="71"/>
      <point x="63" y="60"/>
      <point x="63" y="46" type="curve" smooth="yes"/>
      <point x="63" y="11"/>
      <point x="53" y="-27"/>
      <point x="31" y="-54" type="curve" smooth="yes"/>
      <point x="17" y="-71"/>
      <point x="23" y="-98"/>
      <point x="42" y="-112" type="curve" smooth="yes"/>
    </contour>
  </outline>
</glyph>
<glyph name="hyphen" format="1">
  <advance width="421"/>
  <unicode hex="002D"/>
  <outline>
    <contour>
      <point x="317" y="182" type="line" smooth="yes"/>
      <point x="341" y="182"/>
      <point x="361" y="200"/>
      <point x="361" y="223" type="curve" smooth="yes"/>
      <point x="361" y="246"/>
      <point x="341" y="264"/>
      <point x="317" y="264" type="curve" smooth="yes"/>
      <point x="104" y="264" type="line" smooth="yes"/>
      <point x="80" y="264"/>
      <point x="60" y="246"/>
      <point x="60" y="223" type="curve" smooth="yes"/>
      <point x="60" y="200"/>
      <point x="80" y="182"/>
      <point x="104" y="182" type="curve" smooth="yes"/>
    </contour>
  </outline>
</glyph>
<glyph name="period" format="1">
  <advance width="216"/>
  <unicode hex="002E"/>
  <outline>
    <contour>
      <point x="145" y="-7"/>
      <point x="180" y="5"/>
      <point x="180" y="63" type="curve" smooth="yes"/>
      <point x="180" y="107"/>
      <point x="144" y="131"/>
      <point x="109" y="131" type="curve" smooth="yes"/>
      <point x="70" y="131"/>
      <point x="39" y="109"/>
      <point x="39" y="63" type="curve" smooth="yes"/>
      <point x="39" y="7"/>
      <point x="78" y="-7"/>
      <point x="110" y="-7" type="curve" smooth="yes"/>
    </contour>
  </outline>
</glyph>
<glyph name="two" format="1">
  <advance width="513"/>
  <unicode hex="0032"/>
  <outline>
    <contour>
      <point x="286" y="164" type="line" smooth="yes"/>
      <point x="417" y="281"/>
      <point x="454" y="334"/>
      <point x="454" y="404" type="curve" smooth="yes"/>
      <point x="454" y="481"/>
      <point x="394" y="557"/>
      <point x="261" y="557" type="curve" smooth="yes"/>
      <point x="198" y="557"/>
      <point x="136" y="541"/>
      <point x="79" y="508" type="curve" smooth="yes"/>
      <point x="59" y="496"/>
      <point x="52" y="470"/>
      <point x="65" y="451" type="curve" smooth="yes"/>
      <point x="77" y="432"/>
      <point x="105" y="425"/>
      <point x="125" y="437" type="curve" smooth="yes"/>
      <point x="168" y="462"/>
      <point x="214" y="474"/>
      <point x="261" y="474" type="curve" smooth="yes"/>
      <point x="322" y="474"/>
      <point x="356" y="442"/>
      <point x="356" y="404" type="curve" smooth="yes"/>
      <point x="356" y="351"/>
      <point x="321" y="313"/>
      <point x="224" y="224" type="curve" smooth="yes"/>
      <point x="49" y="67" type="line" smooth="yes"/>
      <point x="32" y="52"/>
      <point x="32" y="25"/>
      <point x="48" y="8" type="curve" smooth="yes"/>
      <point x="65" y="-8"/>
      <point x="94" y="-9"/>
      <point x="111" y="6" type="curve" smooth="yes"/>
    </contour>
    <contour>
      <point x="439" y="-13" type="line" smooth="yes"/>
      <point x="463" y="-13"/>
      <point x="483" y="5"/>
      <point x="483" y="29" type="curve" smooth="yes"/>
      <point x="483" y="51"/>
      <point x="463" y="69"/>
      <point x="439" y="69" type="curve" smooth="yes"/>
      <point x="70" y="69" type="line" smooth="yes"/>
      <point x="46" y="69"/>
      <point x="26" y="51"/>
      <point x="26" y="29" type="curve" smooth="yes"/>
      <point x="26" y="5"/>
      <point x="46" y="-13"/>
      <point x="70" y="-13" type="curve" smooth="yes"/>
    </contour>
  </outline>
</glyph>
<glyph name="three" format="1">
  <advance width="518"/>
  <unicode hex="0033"/>
  <outline>
    <contour>
      <point x="418" y="-17"/>
      <point x="487" y="62"/>
      <point x="487" y="160" type="curve" smooth="yes"/>
      <point x="487" y="256"/>
      <point x="409" y="328"/>
      <point x="269" y="328" type="curve" smooth="yes"/>
      <point x="214" y="328"/>
      <point x="169" y="320"/>
      <point x="143" y="312" type="curve" smooth="yes"/>
      <point x="120" y="304"/>
      <point x="108" y="280"/>
      <point x="115" y="259" type="curve" smooth="yes"/>
      <point x="123" y="237"/>
      <point x="149" y="226"/>
      <point x="171" y="232" type="curve" smooth="yes"/>
      <point x="191" y="239"/>
      <point x="226" y="246"/>
      <point x="269" y="246" type="curve" smooth="yes"/>
      <point x="341" y="246"/>
      <point x="389" y="213"/>
      <point x="389" y="160" type="curve" smooth="yes"/>
      <point x="389" y="102"/>
      <point x="342" y="66"/>
      <point x="258" y="66" type="curve" smooth="yes"/>
      <point x="200" y="66"/>
      <point x="150" y="76"/>
      <point x="110" y="93" type="curve" smooth="yes"/>
      <point x="89" y="101"/>
      <point x="62" y="92"/>
      <point x="53" y="70" type="curve" smooth="yes"/>
      <point x="43" y="51"/>
      <point x="54" y="26"/>
      <point x="76" y="17" type="curve" smooth="yes"/>
      <point x="124" y="-2"/>
      <point x="186" y="-17"/>
      <point x="258" y="-17" type="curve" smooth="yes"/>
    </contour>
    <contour>
      <point x="444" y="469" type="line" smooth="yes"/>
      <point x="461" y="485"/>
      <point x="461" y="512"/>
      <point x="445" y="528" type="curve" smooth="yes"/>
      <point x="429" y="544"/>
      <point x="400" y="546"/>
      <point x="382" y="531" type="curve" smooth="yes"/>
      <point x="131" y="308" type="line" smooth="yes"/>
      <point x="114" y="292"/>
      <point x="114" y="264"/>
      <point x="130" y="249" type="curve" smooth="yes"/>
      <point x="146" y="232"/>
      <point x="175" y="230"/>
      <point x="193" y="246" type="curve" smooth="yes"/>
    </contour>
    <contour>
      <point x="423" y="466" type="line" smooth="yes"/>
      <point x="447" y="466"/>
      <point x="467" y="485"/>
      <point x="467" y="507" type="curve" smooth="yes"/>
      <point x="467" y="530"/>
      <point x="447" y="549"/>
      <point x="423" y="549" type="curve" smooth="yes"/>
      <point x="111" y="549" type="line" smooth="yes"/>
      <point x="87" y="549"/>
      <point x="67" y="530"/>
      <point x="67" y="507" type="curve" smooth="yes"/>
      <point x="67" y="485"/>
      <point x="87" y="466"/>
      <point x="111" y="466" type="curve" smooth="yes"/>
    </contour>
  </outline>
</glyph>
<glyph name="four" format="1">
  <advance width="538"/>
  <unicode hex="0034"/>
  <outline>
    <contour>
      <point x="44" y="104"/>
      <point x="74" y="106"/>
      <point x="89" y="124" type="curve" smooth="yes"/>
      <point x="403" y="481" type="line" smooth="yes"/>
      <point x="418" y="498"/>
      <point x="414" y="526"/>
      <point x="396" y="540" type="curve" smooth="yes"/>
      <point x="378" y="554"/>
      <point x="348" y="552"/>
      <point x="333" y="536" type="curve" smooth="yes"/>
      <point x="19" y="178" type="line" smooth="yes"/>
      <point x="4" y="161"/>
      <point x="8" y="132"/>
      <point x="26" y="119" type="curve" smooth="yes"/>
    </contour>
    <contour>
      <point x="489" y="109" type="line" smooth="yes"/>
      <point x="513" y="109"/>
      <point x="533" y="128"/>
      <point x="533" y="151" type="curve" smooth="yes"/>
      <point x="533" y="173"/>
      <point x="513" y="192"/>
      <point x="489" y="192" type="curve" smooth="yes"/>
      <point x="65" y="192" type="line" smooth="yes"/>
      <point x="41" y="192"/>
      <point x="21" y="173"/>
      <point x="21" y="151" type="curve" smooth="yes"/>
      <point x="21" y="128"/>
      <point x="41" y="109"/>
      <point x="65" y="109" type="curve" smooth="yes"/>
    </contour>
    <contour>
      <point x="399" y="-13"/>
      <point x="424" y="5"/>
      <point x="424" y="29" type="curve" smooth="yes"/>
      <point x="424" y="517" type="line" smooth="yes"/>
      <point x="424" y="539"/>
      <point x="399" y="558"/>
      <point x="375" y="558" type="curve" smooth="yes"/>
      <point x="351" y="558"/>
      <point x="326" y="539"/>
      <point x="326" y="517" type="curve" smooth="yes"/>
      <point x="326" y="29" type="line" smooth="yes"/>
      <point x="326" y="5"/>
      <point x="351" y="-13"/>
      <point x="375" y="-13" type="curve" smooth="yes"/>
    </contour>
  </outline>
</glyph>
<glyph name="nine" format="1">
  <advance width="543"/>
  <unicode hex="0039"/>
  <outline>
    <contour>
      <point x="406" y="-16"/>
      <point x="502" y="79"/>
      <point x="502" y="270" type="curve" smooth="yes"/>
      <point x="502" y="465"/>
      <point x="393" y="557"/>
      <point x="254" y="557" type="curve" smooth="yes"/>
      <point x="104" y="557"/>
      <point x="32" y="462"/>
      <point x="32" y="368" type="curve" smooth="yes"/>
      <point x="32" y="249"/>
      <point x="110" y="183"/>
      <point x="244" y="183" type="curve" smooth="yes"/>
      <point x="358" y="183"/>
      <point x="431" y="235"/>
      <point x="486" y="321" type="curve" smooth="yes"/>
      <point x="498" y="340"/>
      <point x="489" y="367"/>
      <point x="469" y="379" type="curve" smooth="yes"/>
      <point x="448" y="390"/>
      <point x="419" y="385"/>
      <point x="406" y="366" type="curve" smooth="yes"/>
      <point x="369" y="309"/>
      <point x="324" y="265"/>
      <point x="244" y="265" type="curve" smooth="yes"/>
      <point x="170" y="265"/>
      <point x="130" y="303"/>
      <point x="130" y="368" type="curve" smooth="yes"/>
      <point x="130" y="421"/>
      <point x="170" y="474"/>
      <point x="254" y="474" type="curve" smooth="yes"/>
      <point x="353" y="474"/>
      <point x="404" y="388"/>
      <point x="404" y="270" type="curve" smooth="yes"/>
      <point x="404" y="149"/>
      <point x="356" y="67"/>
      <point x="235" y="67" type="curve" smooth="yes"/>
      <point x="204" y="67"/>
      <point x="184" y="71"/>
      <point x="160" y="78" type="curve" smooth="yes"/>
      <point x="137" y="84"/>
      <point x="112" y="69"/>
      <point x="106" y="48" type="curve" smooth="yes"/>
      <point x="100" y="27"/>
      <point x="115" y="2"/>
      <point x="138" y="-2" type="curve" smooth="yes"/>
      <point x="168" y="-9"/>
      <point x="196" y="-16"/>
      <point x="235" y="-16" type="curve" smooth="yes"/>
    </contour>
  </outline>
</glyph>
<glyph name="equal" format="1">
  <advance width="537"/>
  <unicode hex="003D"/>
  <outline>
    <contour>
      <point x="445" y="317" type="line" smooth="yes"/>
      <point x="469" y="317"/>
      <point x="489" y="336"/>
      <point x="489" y="358" type="curve" smooth="yes"/>
      <point x="489" y="381"/>
      <point x="469" y="400"/>
      <point x="445" y="400" type="curve" smooth="yes"/>
      <point x="91" y="400" type="line" smooth="yes"/>
      <point x="67" y="400"/>
      <point x="47" y="381"/>
      <point x="47" y="358" type="curve" smooth="yes"/>
      <point x="47" y="336"/>
      <point x="67" y="317"/>
      <point x="91" y="317" type="curve" smooth="yes"/>
    </contour>
    <contour>
      <point x="445" y="122" type="line" smooth="yes"/>
      <point x="469" y="122"/>
      <point x="489" y="140"/>
      <point x="489" y="163" type="curve" smooth="yes"/>
      <point x="489" y="186"/>
      <point x="469" y="204"/>
      <point x="445" y="204" type="curve" smooth="yes"/>
      <point x="91" y="204" type="line" smooth="yes"/>
      <point x="67" y="204"/>
      <point x="47" y="186"/>
      <point x="47" y="163" type="curve" smooth="yes"/>
      <point x="47" y="140"/>
      <point x="67" y="122"/>
      <point x="91" y="122" type="curve" smooth="yes"/>
    </contour>
  </outline>
</glyph>
<glyph name="A" format="1">
  <advance width="589"/>
  <unicode hex="0041"/>
  <outline>
    <contour>
      <point x="558" y="-1"/>
      <point x="573" y="24"/>
      <point x="564" y="46" type="curve" smooth="yes"/>
      <point x="514" y="168"/>
      <point x="410" y="383"/>
      <point x="334" y="535" type="curve" smooth="yes"/>
      <point x="323" y="556"/>
      <point x="294" y="564"/>
      <point x="272" y="554" type="curve" smooth="yes"/>
      <point x="251" y="545"/>
      <point x="238" y="518"/>
      <point x="248" y="498" type="curve" smooth="yes"/>
      <point x="324" y="347"/>
      <point x="426" y="134"/>
      <point x="476" y="14" type="curve" smooth="yes"/>
      <point x="484" y="-8"/>
      <point x="514" y="-17"/>
      <point x="536" y="-10" type="curve" smooth="yes"/>
    </contour>
    <contour>
      <point x="75" y="-16"/>
      <point x="104" y="-7"/>
      <point x="112" y="15" type="curve" smooth="yes"/>
      <point x="159" y="138"/>
      <point x="258" y="349"/>
      <point x="328" y="499" type="curve" smooth="yes"/>
      <point x="338" y="519"/>
      <point x="325" y="546"/>
      <point x="303" y="554" type="curve" smooth="yes"/>
      <point x="281" y="564"/>
      <point x="252" y="555"/>
      <point x="242" y="534" type="curve" smooth="yes"/>
      <point x="170" y="383"/>
      <point x="69" y="170"/>
      <point x="22" y="45" type="curve" smooth="yes"/>
      <point x="14" y="23"/>
      <point x="30" y="-2"/>
      <point x="52" y="-10" type="curve" smooth="yes"/>
    </contour>
    <contour>
      <point x="445" y="131" type="line" smooth="yes"/>
      <point x="469" y="131"/>
      <point x="489" y="149"/>
      <point x="489" y="173" type="curve" smooth="yes"/>
      <point x="489" y="195"/>
      <point x="469" y="213"/>
      <point x="445" y="213" type="curve" smooth="yes"/>
      <point x="139" y="213" type="line" smooth="yes"/>
      <point x="115" y="213"/>
      <point x="95" y="195"/>
      <point x="95" y="173" type="curve" smooth="yes"/>
      <point x="95" y="149"/>
      <point x="115" y="131"/>
      <point x="139" y="131" type="curve" smooth="yes"/>
    </contour>
    <contour>
      <point x="524" y="63" type="move" name="ogonek"/>
    </contour>
    <contour>
      <point x="287" y="565" type="move" name="top"/>
    </contour>
  </outline>
</glyph>
<glyph name="C" format="1">
  <advance width="574"/>
  <unicode hex="0043"/>
  <outline>
    <contour>
      <point x="410" y="-23"/>
      <point x="465" y="-9"/>
      <point x="509" y="12" type="curve" smooth="yes"/>
      <point x="530" y="23"/>
      <point x="539" y="48"/>
      <point x="528" y="67" type="curve" smooth="yes"/>
      <point x="517" y="88"/>
      <point x="490" y="97"/>
      <point x="469" y="86" type="curve" smooth="yes"/>
      <point x="435" y="69"/>
      <point x="394" y="61"/>
      <point x="347" y="61" type="curve" smooth="yes"/>
      <point x="206" y="61"/>
      <point x="129" y="152"/>
      <point x="129" y="264" type="curve" smooth="yes"/>
      <point x="129" y="387"/>
      <point x="224" y="475"/>
      <point x="341" y="475" type="curve" smooth="yes"/>
      <point x="388" y="475"/>
      <point x="433" y="466"/>
      <point x="463" y="451" type="curve" smooth="yes"/>
      <point x="484" y="441"/>
      <point x="511" y="448"/>
      <point x="523" y="468" type="curve" smooth="yes"/>
      <point x="534" y="487"/>
      <point x="526" y="513"/>
      <point x="505" y="524" type="curve" smooth="yes"/>
      <point x="465" y="545"/>
      <point x="404" y="558"/>
      <point x="341" y="558" type="curve" smooth="yes"/>
      <point x="178" y="558"/>
      <point x="31" y="443"/>
      <point x="31" y="264" type="curve" smooth="yes"/>
      <point x="31" y="100"/>
      <point x="150" y="-23"/>
      <point x="347" y="-23" type="curve" smooth="yes"/>
    </contour>
    <contour>
      <point x="331" y="558" type="move" name="top"/>
    </contour>
    <contour>
      <point x="317" y="-20" type="move" name="bottom"/>
    </contour>
  </outline>
</glyph>
<glyph name="E" format="1">
  <advance width="491"/>
  <unicode hex="0045"/>
  <outline>
    <contour>
      <point x="143" y="-13"/>
      <point x="168" y="5"/>
      <point x="168" y="29" type="curve" smooth="yes"/>
      <point x="168" y="507" type="line" smooth="yes"/>
      <point x="168" y="530"/>
      <point x="143" y="549"/>
      <point x="119" y="549" type="curve" smooth="yes"/>
      <point x="95" y="549"/>
      <point x="70" y="530"/>
      <point x="70" y="507" type="curve" smooth="yes"/>
      <point x="70" y="29" type="line" smooth="yes"/>
      <point x="70" y="5"/>
      <point x="95" y="-13"/>
      <point x="119" y="-13" type="curve" smooth="yes"/>
    </contour>
    <contour>
      <point x="412" y="-13" type="line" smooth="yes"/>
      <point x="436" y="-13"/>
      <point x="456" y="5"/>
      <point x="456" y="29" type="curve" smooth="yes"/>
      <point x="456" y="51"/>
      <point x="436" y="69"/>
      <point x="412" y="69" type="curve" smooth="yes"/>
      <point x="128" y="69" type="line" smooth="yes"/>
      <point x="104" y="69"/>
      <point x="84" y="51"/>
      <point x="84" y="29" type="curve" smooth="yes"/>
      <point x="84" y="5"/>
      <point x="104" y="-13"/>
      <point x="128" y="-13" type="curve" smooth="yes"/>
    </contour>
    <contour>
      <point x="365" y="245" type="line" smooth="yes"/>
      <point x="389" y="245"/>
      <point x="409" y="263"/>
      <point x="409" y="286" type="curve" smooth="yes"/>
      <point x="409" y="309"/>
      <point x="389" y="327"/>
      <point x="365" y="327" type="curve" smooth="yes"/>
      <point x="128" y="327" type="line" smooth="yes"/>
      <point x="104" y="327"/>
      <point x="84" y="309"/>
      <point x="84" y="286" type="curve" smooth="yes"/>
      <point x="84" y="263"/>
      <point x="104" y="245"/>
      <point x="128" y="245" type="curve" smooth="yes"/>
    </contour>
    <contour>
      <point x="410" y="466" type="line" smooth="yes"/>
      <point x="434" y="466"/>
      <point x="454" y="485"/>
      <point x="454" y="507" type="curve" smooth="yes"/>
      <point x="454" y="530"/>
      <point x="434" y="549"/>
      <point x="410" y="549" type="curve" smooth="yes"/>
      <point x="128" y="549" type="line" smooth="yes"/>
      <point x="104" y="549"/>
      <point x="84" y="530"/>
      <point x="84" y="507" type="curve" smooth="yes"/>
      <point x="84" y="485"/>
      <point x="104" y="466"/>
      <point x="128" y="466" type="curve" smooth="yes"/>
    </contour>
    <contour>
      <point x="413" y="39" type="move" name="ogonek"/>
    </contour>
    <contour>
      <point x="260" y="549" type="move" name="top"/>
    </contour>
  </outline>
</glyph>
<glyph name="H" format="1">
  <advance width="643"/>
  <unicode hex="0048"/>
  <outline>
    <contour>
      <point x="547" y="-13"/>
      <point x="572" y="5"/>
      <point x="572" y="29" type="curve" smooth="yes"/>
      <point x="572" y="507" type="line" smooth="yes"/>
      <point x="572" y="530"/>
      <point x="547" y="549"/>
      <point x="523" y="549" type="curve" smooth="yes"/>
      <point x="499" y="549"/>
      <point x="474" y="530"/>
      <point x="474" y="507" type="curve" smooth="yes"/>
      <point x="474" y="29" type="line" smooth="yes"/>
      <point x="474" y="5"/>
      <point x="499" y="-13"/>
      <point x="523" y="-13" type="curve" smooth="yes"/>
    </contour>
    <contour>
      <point x="143" y="-13"/>
      <point x="168" y="5"/>
      <point x="168" y="29" type="curve" smooth="yes"/>
      <point x="168" y="507" type="line" smooth="yes"/>
      <point x="168" y="530"/>
      <point x="143" y="549"/>
      <point x="119" y="549" type="curve" smooth="yes"/>
      <point x="95" y="549"/>
      <point x="70" y="530"/>
      <point x="70" y="507" type="curve" smooth="yes"/>
      <point x="70" y="29" type="line" smooth="yes"/>
      <point x="70" y="5"/>
      <point x="95" y="-13"/>
      <point x="119" y="-13" type="curve" smooth="yes"/>
    </contour>
    <contour>
      <point x="522" y="244" type="line" smooth="yes"/>
      <point x="546" y="244"/>
      <point x="566" y="262"/>
      <point x="566" y="285" type="curve" smooth="yes"/>
      <point x="566" y="308"/>
      <point x="546" y="326"/>
      <point x="522" y="326" type="curve" smooth="yes"/>
      <point x="123" y="326" type="line" smooth="yes"/>
      <point x="99" y="326"/>
      <point x="79" y="308"/>
      <point x="79" y="285" type="curve" smooth="yes"/>
      <point x="79" y="262"/>
      <point x="99" y="244"/>
      <point x="123" y="244" type="curve" smooth="yes"/>
    </contour>
  </outline>
</glyph>
<glyph name="I" format="1">
  <advance width="249"/>
  <unicode hex="0049"/>
  <outline>
    <contour>
      <point x="148" y="-13"/>
      <point x="173" y="5"/>
      <point x="173" y="29" type="curve" smooth="yes"/>
      <point x="173" y="507" type="line" smooth="yes"/>
      <point x="173" y="530"/>
      <point x="148" y="549"/>
      <point x="124" y="549" type="curve" smooth="yes"/>
      <point x="100" y="549"/>
      <point x="75" y="530"/>
      <point x="75" y="507" type="curve" smooth="yes"/>
      <point x="75" y="29" type="line" smooth="yes"/>
      <point x="75" y="5"/>
      <point x="100" y="-13"/>
      <point x="124" y="-13" type="curve" smooth="yes"/>
    </contour>
    <contour>
      <point x="130" y="59" type="move" name="ogonek"/>
    </contour>
    <contour>
      <point x="124" y="-14" type="move" name="bottom"/>
    </contour>
    <contour>
      <point x="124" y="548" type="move" name="top"/>
    </contour>
  </outline>
</glyph>
<glyph name="K" format="1">
  <advance width="565"/>
  <unicode hex="004B"/>
  <outline>
    <contour>
      <point x="200" y="206"/>
      <point x="399" y="374"/>
      <point x="505" y="478" type="curve" smooth="yes"/>
      <point x="521" y="494"/>
      <point x="520" y="521"/>
      <point x="502" y="537" type="curve" smooth="yes"/>
      <point x="485" y="552"/>
      <point x="456" y="552"/>
      <point x="439" y="536" type="curve" smooth="yes"/>
      <point x="335" y="434"/>
      <point x="140" y="268"/>
      <point x="89" y="225" type="curve" smooth="yes"/>
      <point x="71" y="210"/>
      <point x="70" y="183"/>
      <point x="86" y="166" type="curve" smooth="yes"/>
      <point x="102" y="150"/>
      <point x="131" y="148"/>
      <point x="149" y="163" type="curve" smooth="yes"/>
    </contour>
    <contour>
      <point x="143" y="-13"/>
      <point x="168" y="5"/>
      <point x="168" y="29" type="curve" smooth="yes"/>
      <point x="168" y="507" type="line" smooth="yes"/>
      <point x="168" y="530"/>
      <point x="143" y="549"/>
      <point x="119" y="549" type="curve" smooth="yes"/>
      <point x="95" y="549"/>
      <point x="70" y="530"/>
      <point x="70" y="507" type="curve" smooth="yes"/>
      <point x="70" y="29" type="line" smooth="yes"/>
      <point x="70" y="5"/>
      <point x="95" y="-13"/>
      <point x="119" y="-13" type="curve" smooth="yes"/>
    </contour>
    <contour>
      <point x="540" y="12"/>
      <point x="543" y="39"/>
      <point x="527" y="57" type="curve" smooth="yes"/>
      <point x="469" y="119"/>
      <point x="344" y="261"/>
      <point x="284" y="330" type="curve" smooth="yes"/>
      <point x="269" y="348"/>
      <point x="239" y="349"/>
      <point x="221" y="335" type="curve" smooth="yes"/>
      <point x="203" y="321"/>
      <point x="199" y="293"/>
      <point x="214" y="276" type="curve" smooth="yes"/>
      <point x="274" y="207"/>
      <point x="401" y="63"/>
      <point x="459" y="1" type="curve" smooth="yes"/>
      <point x="475" y="-17"/>
      <point x="504" y="-18"/>
      <point x="522" y="-2" type="curve" smooth="yes"/>
    </contour>
    <contour>
      <point x="284" y="29" type="move" name="bottom"/>
    </contour>
  </outline>
</glyph>
<glyph name="P" format="1">
  <advance width="516"/>
  <unicode hex="0050"/>
  <outline>
    <contour>
      <point x="143" y="-13"/>
      <point x="168" y="5"/>
      <point x="168" y="29" type="curve" smooth="yes"/>
      <point x="168" y="507" type="line"/>
      <point x="119" y="466" type="line"/>
      <point x="269" y="466" type="line" smooth="yes"/>
      <point x="346" y="466"/>
      <point x="400" y="420"/>
      <point x="400" y="355" type="curve" smooth="yes"/>
      <point x="400" y="293"/>
      <point x="356" y="244"/>
      <point x="269" y="244" type="curve" smooth="yes"/>
      <point x="146" y="244" type="line" smooth="yes"/>
      <point x="122" y="244"/>
      <point x="102" y="225"/>
      <point x="102" y="202" type="curve" smooth="yes"/>
      <point x="102" y="180"/>
      <point x="122" y="161"/>
      <point x="146" y="161" type="curve" smooth="yes"/>
      <point x="269" y="161" type="line" smooth="yes"/>
      <point x="420" y="161"/>
      <point x="498" y="249"/>
      <point x="498" y="355" type="curve" smooth="yes"/>
      <point x="498" y="469"/>
      <point x="404" y="549"/>
      <point x="269" y="549" type="curve" smooth="yes"/>
      <point x="119" y="549" type="line" smooth="yes"/>
      <point x="92" y="549"/>
      <point x="70" y="530"/>
      <point x="70" y="507" type="curve" smooth="yes"/>
      <point x="70" y="29" type="line" smooth="yes"/>
      <point x="70" y="5"/>
      <point x="95" y="-13"/>
      <point x="119" y="-13" type="curve" smooth="yes"/>
    </contour>
  </outline>
</glyph>
<glyph name="Q" format="1">
  <advance width="652"/>
  <unicode hex="0051"/>
  <outline>
    <contour>
      <point x="508" y="-19"/>
      <point x="621" y="102"/>
      <point x="621" y="270" type="curve" smooth="yes"/>
      <point x="621" y="446"/>
      <point x="487" y="561"/>
      <point x="328" y="561" type="curve" smooth="yes"/>
      <point x="156" y="561"/>
      <point x="31" y="446"/>
      <point x="31" y="267" type="curve" smooth="yes"/>
      <point x="31" y="103"/>
      <point x="157" y="-19"/>
      <point x="328" y="-19" type="curve" smooth="yes"/>
    </contour>
    <contour>
      <point x="552" y="-152"/>
      <point x="572" y="-132"/>
      <point x="572" y="-110" type="curve" smooth="yes"/>
      <point x="572" y="-88"/>
      <point x="552" y="-68"/>
      <point x="528" y="-68" type="curve" smooth="yes"/>
      <point x="442" y="-68"/>
      <point x="386" y="-25"/>
      <point x="371" y="32" type="curve" smooth="yes"/>
      <point x="365" y="53"/>
      <point x="336" y="66"/>
      <point x="313" y="61" type="curve" smooth="yes"/>
      <point x="290" y="55"/>
      <point x="271" y="31"/>
      <point x="277" y="8" type="curve" smooth="yes"/>
      <point x="302" y="-81"/>
      <point x="390" y="-152"/>
      <point x="528" y="-152" type="curve" smooth="yes"/>
    </contour>
    <contour>
      <point x="207" y="65"/>
      <point x="129" y="159"/>
      <point x="129" y="267" type="curve" smooth="yes"/>
      <point x="129" y="388"/>
      <point x="204" y="478"/>
      <point x="328" y="478" type="curve" smooth="yes"/>
      <point x="441" y="478"/>
      <point x="523" y="388"/>
      <point x="523" y="270" type="curve" smooth="yes"/>
      <point x="523" y="160"/>
      <point x="456" y="65"/>
      <point x="328" y="65" type="curve" smooth="yes"/>
    </contour>
  </outline>
</glyph>
<glyph name="S" format="1">
  <advance width="531"/>
  <unicode hex="0053"/>
  <outline>
    <contour>
      <point x="427" y="-22"/>
      <point x="487" y="59"/>
      <point x="487" y="140" type="curve" smooth="yes"/>
      <point x="487" y="219"/>
      <point x="442" y="286"/>
      <point x="275" y="321" type="curve" smooth="yes"/>
      <point x="179" y="339"/>
      <point x="151" y="374"/>
      <point x="151" y="410" type="curve" smooth="yes"/>
      <point x="151" y="445"/>
      <point x="192" y="473"/>
      <point x="245" y="473" type="curve" smooth="yes"/>
      <point x="310" y="473"/>
      <point x="342" y="462"/>
      <point x="387" y="445" type="curve" smooth="yes"/>
      <point x="409" y="437"/>
      <point x="435" y="448"/>
      <point x="444" y="469" type="curve" smooth="yes"/>
      <point x="453" y="489"/>
      <point x="441" y="514"/>
      <point x="419" y="522" type="curve" smooth="yes"/>
      <point x="364" y="543"/>
      <point x="326" y="555"/>
      <point x="245" y="555" type="curve" smooth="yes"/>
      <point x="120" y="555"/>
      <point x="53" y="481"/>
      <point x="53" y="410" type="curve" smooth="yes"/>
      <point x="53" y="349"/>
      <point x="75" y="273"/>
      <point x="259" y="240" type="curve" smooth="yes"/>
      <point x="348" y="221"/>
      <point x="389" y="189"/>
      <point x="389" y="140" type="curve" smooth="yes"/>
      <point x="389" y="95"/>
      <point x="345" y="62"/>
      <point x="266" y="62" type="curve" smooth="yes"/>
      <point x="211" y="62"/>
      <point x="158" y="72"/>
      <point x="111" y="98" type="curve" smooth="yes"/>
      <point x="90" y="109"/>
      <point x="63" y="102"/>
      <point x="51" y="83" type="curve" smooth="yes"/>
      <point x="39" y="64"/>
      <point x="46" y="37"/>
      <point x="67" y="27" type="curve" smooth="yes"/>
      <point x="128" y="-6"/>
      <point x="195" y="-22"/>
      <point x="266" y="-22" type="curve" smooth="yes"/>
    </contour>
    <contour>
      <point x="248" y="555" type="move" name="top"/>
    </contour>
    <contour>
      <point x="248" y="-23" type="move" name="bottom"/>
    </contour>
  </outline>
</glyph>
<glyph name="W" format="1">
  <advance width="922"/>
  <unicode hex="0057"/>
  <outline>
    <contour>
      <point x="271" y="-28"/>
      <point x="301" y="-19"/>
      <point x="310" y="2" type="curve" smooth="yes"/>
      <point x="350" y="86"/>
      <point x="461" y="349"/>
      <point x="507" y="490" type="curve" smooth="yes"/>
      <point x="514" y="512"/>
      <point x="497" y="536"/>
      <point x="474" y="543" type="curve" smooth="yes"/>
      <point x="451" y="550"/>
      <point x="422" y="538"/>
      <point x="415" y="517" type="curve" smooth="yes"/>
      <point x="371" y="379"/>
      <point x="262" y="120"/>
      <point x="224" y="37" type="curve" smooth="yes"/>
      <point x="214" y="17"/>
      <point x="227" y="-9"/>
      <point x="249" y="-18" type="curve" smooth="yes"/>
    </contour>
    <contour>
      <point x="303" y="-2"/>
      <point x="316" y="25"/>
      <point x="305" y="44" type="curve" smooth="yes"/>
      <point x="269" y="117"/>
      <point x="167" y="398"/>
      <point x="133" y="519" type="curve" smooth="yes"/>
      <point x="126" y="539"/>
      <point x="98" y="552"/>
      <point x="75" y="546" type="curve" smooth="yes"/>
      <point x="52" y="540"/>
      <point x="33" y="516"/>
      <point x="39" y="494" type="curve" smooth="yes"/>
      <point x="75" y="370"/>
      <point x="183" y="81"/>
      <point x="221" y="6" type="curve" smooth="yes"/>
      <point x="231" y="-14"/>
      <point x="260" y="-22"/>
      <point x="282" y="-12" type="curve" smooth="yes"/>
    </contour>
    <contour>
      <point x="693" y="-2"/>
      <point x="705" y="24"/>
      <point x="694" y="44" type="curve" smooth="yes"/>
      <point x="657" y="117"/>
      <point x="551" y="387"/>
      <point x="512" y="505" type="curve" smooth="yes"/>
      <point x="505" y="527"/>
      <point x="476" y="538"/>
      <point x="453" y="532" type="curve" smooth="yes"/>
      <point x="430" y="525"/>
      <point x="413" y="500"/>
      <point x="420" y="479" type="curve" smooth="yes"/>
      <point x="461" y="357"/>
      <point x="571" y="79"/>
      <point x="610" y="4" type="curve" smooth="yes"/>
      <point x="620" y="-15"/>
      <point x="650" y="-23"/>
      <point x="671" y="-13" type="curve" smooth="yes"/>
    </contour>
    <contour>
      <point x="660" y="-29"/>
      <point x="690" y="-20"/>
      <point x="699" y="2" type="curve" smooth="yes"/>
      <point x="739" y="85"/>
      <point x="840" y="351"/>
      <point x="883" y="494" type="curve" smooth="yes"/>
      <point x="890" y="516"/>
      <point x="872" y="540"/>
      <point x="849" y="546" type="curve" smooth="yes"/>
      <point x="826" y="552"/>
      <point x="797" y="540"/>
      <point x="791" y="519" type="curve" smooth="yes"/>
      <point x="748" y="379"/>
      <point x="651" y="119"/>
      <point x="613" y="36" type="curve" smooth="yes"/>
      <point x="603" y="16"/>
      <point x="616" y="-10"/>
      <point x="638" y="-19" type="curve" smooth="yes"/>
    </contour>
    <contour>
      <point x="460" y="541" type="move" name="top"/>
    </contour>
  </outline>
</glyph>
<glyph name="Y" format="1">
  <advance width="568"/>
  <unicode hex="0059"/>
  <outline>
    <contour>
      <point x="278" y="155"/>
      <point x="308" y="158"/>
      <point x="322" y="175" type="curve" smooth="yes"/>
      <point x="375" y="240"/>
      <point x="496" y="416"/>
      <point x="540" y="485" type="curve" smooth="yes"/>
      <point x="552" y="504"/>
      <point x="543" y="532"/>
      <point x="523" y="543" type="curve" smooth="yes"/>
      <point x="502" y="554"/>
      <point x="472" y="549"/>
      <point x="460" y="530" type="curve" smooth="yes"/>
      <point x="418" y="463"/>
      <point x="301" y="291"/>
      <point x="250" y="226" type="curve" smooth="yes"/>
      <point x="235" y="208"/>
      <point x="241" y="181"/>
      <point x="260" y="167" type="curve" smooth="yes"/>
    </contour>
    <contour>
      <point x="310" y="-13"/>
      <point x="335" y="5"/>
      <point x="335" y="29" type="curve" smooth="yes"/>
      <point x="335" y="194" type="line" smooth="yes"/>
      <point x="335" y="217"/>
      <point x="310" y="235"/>
      <point x="286" y="235" type="curve" smooth="yes"/>
      <point x="262" y="235"/>
      <point x="237" y="217"/>
      <point x="237" y="194" type="curve" smooth="yes"/>
      <point x="237" y="29" type="line" smooth="yes"/>
      <point x="237" y="5"/>
      <point x="262" y="-13"/>
      <point x="286" y="-13" type="curve" smooth="yes"/>
    </contour>
    <contour>
      <point x="328" y="187"/>
      <point x="334" y="214"/>
      <point x="320" y="231" type="curve" smooth="yes"/>
      <point x="275" y="288"/>
      <point x="151" y="462"/>
      <point x="108" y="530" type="curve" smooth="yes"/>
      <point x="95" y="549"/>
      <point x="66" y="554"/>
      <point x="45" y="543" type="curve" smooth="yes"/>
      <point x="25" y="531"/>
      <point x="16" y="504"/>
      <point x="28" y="485" type="curve" smooth="yes"/>
      <point x="73" y="415"/>
      <point x="201" y="237"/>
      <point x="246" y="181" type="curve" smooth="yes"/>
      <point x="261" y="163"/>
      <point x="290" y="160"/>
      <point x="309" y="173" type="curve" smooth="yes"/>
    </contour>
    <contour>
      <point x="285" y="517" type="move" name="top"/>
    </contour>
  </outline>
</glyph>
<glyph name="Z" format="1">
  <advance width="571"/>
  <unicode hex="005A"/>
  <outline>
    <contour>
      <point x="84" y="-11"/>
      <point x="114" y="-6"/>
      <point x="127" y="12" type="curve" smooth="yes"/>
      <point x="182" y="94"/>
      <point x="447" y="390"/>
      <point x="513" y="484" type="curve" smooth="yes"/>
      <point x="527" y="502"/>
      <point x="519" y="530"/>
      <point x="499" y="542" type="curve" smooth="yes"/>
      <point x="479" y="554"/>
      <point x="450" y="550"/>
      <point x="437" y="531" type="curve" smooth="yes"/>
      <point x="371" y="437"/>
      <point x="104" y="140"/>
      <point x="49" y="60" type="curve" smooth="yes"/>
      <point x="36" y="40"/>
      <point x="44" y="13"/>
      <point x="64" y="2" type="curve" smooth="yes"/>
    </contour>
    <contour>
      <point x="488" y="-13" type="line" smooth="yes"/>
      <point x="512" y="-13"/>
      <point x="532" y="5"/>
      <point x="532" y="29" type="curve" smooth="yes"/>
      <point x="532" y="51"/>
      <point x="512" y="69"/>
      <point x="488" y="69" type="curve" smooth="yes"/>
      <point x="83" y="69" type="line" smooth="yes"/>
      <point x="59" y="69"/>
      <point x="39" y="51"/>
      <point x="39" y="29" type="curve" smooth="yes"/>
      <point x="39" y="5"/>
      <point x="59" y="-13"/>
      <point x="83" y="-13" type="curve" smooth="yes"/>
    </contour>
    <contour>
      <point x="464" y="466" type="line" smooth="yes"/>
      <point x="488" y="466"/>
      <point x="508" y="485"/>
      <point x="508" y="507" type="curve" smooth="yes"/>
      <point x="508" y="530"/>
      <point x="488" y="549"/>
      <point x="464" y="549" type="curve" smooth="yes"/>
      <point x="97" y="549" type="line" smooth="yes"/>
      <point x="73" y="549"/>
      <point x="53" y="530"/>
      <point x="53" y="507" type="curve" smooth="yes"/>
      <point x="53" y="485"/>
      <point x="73" y="466"/>
      <point x="97" y="466" type="curve" smooth="yes"/>
    </contour>
    <contour>
      <point x="283" y="549" type="move" name="top"/>
    </contour>
  </outline>
</glyph>
<glyph name="bracketleft" format="1">
  <advance width="332"/>
  <unicode hex="005B"/>
  <outline>
    <contour>
      <point x="235" y="-111" type="line" smooth="yes"/>
      <point x="259" y="-111"/>
      <point x="279" y="-92"/>
      <point x="279" y="-69" type="curve" smooth="yes"/>
      <point x="279" y="-47"/>
      <point x="259" y="-29"/>
      <point x="235" y="-29" type="curve" smooth="yes"/>
      <point x="93" y="-29" type="line"/>
      <point x="142" y="-69" type="line"/>
      <point x="142" y="601" type="line"/>
      <point x="93" y="560" type="line"/>
      <point x="235" y="560" type="line" smooth="yes"/>
      <point x="259" y="560"/>
      <point x="279" y="579"/>
      <point x="279" y="601" type="curve" smooth="yes"/>
      <point x="279" y="624"/>
      <point x="259" y="643"/>
      <point x="235" y="643" type="curve" smooth="yes"/>
      <point x="93" y="643" type="line" smooth="yes"/>
      <point x="66" y="643"/>
      <point x="44" y="624"/>
      <point x="44" y="601" type="curve" smooth="yes"/>
      <point x="44" y="-69" type="line" smooth="yes"/>
      <point x="44" y="-92"/>
      <point x="66" y="-111"/>
      <point x="93" y="-111" type="curve" smooth="yes"/>
    </contour>
  </outline>
</glyph>
<glyph name="backslash" format="1">
  <advance width="395"/>
  <unicode hex="005C"/>
  <outline>
    <contour>
      <point x="368" y="-83"/>
      <point x="384" y="-58"/>
      <point x="376" y="-36" type="curve" smooth="yes"/>
      <point x="115" y="635" type="line" smooth="yes"/>
      <point x="107" y="657"/>
      <point x="77" y="666"/>
      <point x="55" y="659" type="curve" smooth="yes"/>
      <point x="33" y="651"/>
      <point x="17" y="626"/>
      <point x="25" y="605" type="curve" smooth="yes"/>
      <point x="286" y="-66" type="line" smooth="yes"/>
      <point x="294" y="-89"/>
      <point x="324" y="-97"/>
      <point x="346" y="-91" type="curve" smooth="yes"/>
    </contour>
  </outline>
</glyph>
<glyph name="bracketright" format="1">
  <advance width="332"/>
  <unicode hex="005D"/>
  <outline>
    <contour>
      <point x="239" y="-103" type="line" smooth="yes"/>
      <point x="266" y="-103"/>
      <point x="288" y="-85"/>
      <point x="288" y="-62" type="curve" smooth="yes"/>
      <point x="288" y="609" type="line" smooth="yes"/>
      <point x="288" y="631"/>
      <point x="266" y="650"/>
      <point x="239" y="650" type="curve" smooth="yes"/>
      <point x="97" y="650" type="line" smooth="yes"/>
      <point x="73" y="650"/>
      <point x="53" y="631"/>
      <point x="53" y="609" type="curve" smooth="yes"/>
      <point x="53" y="586"/>
      <point x="73" y="567"/>
      <point x="97" y="567" type="curve" smooth="yes"/>
      <point x="239" y="567" type="line"/>
      <point x="190" y="609" type="line"/>
      <point x="190" y="-62" type="line"/>
      <point x="239" y="-21" type="line"/>
      <point x="97" y="-21" type="line" smooth="yes"/>
      <point x="73" y="-21"/>
      <point x="53" y="-39"/>
      <point x="53" y="-62" type="curve" smooth="yes"/>
      <point x="53" y="-85"/>
      <point x="73" y="-103"/>
      <point x="97" y="-103" type="curve" smooth="yes"/>
    </contour>
  </outline>
</glyph>
<glyph name="asciicircum" format="1">
  <advance width="495"/>
  <unicode hex="005E"/>
  <outline>
    <contour>
      <point x="441" y="220"/>
      <point x="452" y="247"/>
      <point x="441" y="266" type="curve" smooth="yes"/>
      <point x="397" y="346"/>
      <point x="346" y="440"/>
      <point x="294" y="531" type="curve" smooth="yes"/>
      <point x="283" y="551"/>
      <point x="253" y="557"/>
      <point x="232" y="547" type="curve" smooth="yes"/>
      <point x="211" y="536"/>
      <point x="201" y="509"/>
      <point x="212" y="489" type="curve" smooth="yes"/>
      <point x="264" y="398"/>
      <point x="315" y="304"/>
      <point x="359" y="225" type="curve" smooth="yes"/>
      <point x="370" y="205"/>
      <point x="399" y="198"/>
      <point x="420" y="209" type="curve" smooth="yes"/>
    </contour>
    <contour>
      <point x="97" y="198"/>
      <point x="127" y="206"/>
      <point x="138" y="226" type="curve" smooth="yes"/>
      <point x="181" y="305"/>
      <point x="235" y="399"/>
      <point x="285" y="490" type="curve" smooth="yes"/>
      <point x="295" y="510"/>
      <point x="284" y="536"/>
      <point x="263" y="547" type="curve" smooth="yes"/>
      <point x="242" y="557"/>
      <point x="212" y="551"/>
      <point x="201" y="530" type="curve" smooth="yes"/>
      <point x="151" y="439"/>
      <point x="97" y="345"/>
      <point x="54" y="265" type="curve" smooth="yes"/>
      <point x="44" y="246"/>
      <point x="55" y="220"/>
      <point x="76" y="209" type="curve" smooth="yes"/>
    </contour>
  </outline>
</glyph>
<glyph name="c" format="1">
  <advance width="448"/>
  <unicode hex="0063"/>
  <outline>
    <contour>
      <point x="321" y="-10"/>
      <point x="361" y="0"/>
      <point x="395" y="11" type="curve" smooth="yes"/>
      <point x="417" y="19"/>
      <point x="429" y="43"/>
      <point x="420" y="66" type="curve" smooth="yes"/>
      <point x="412" y="86"/>
      <point x="386" y="97"/>
      <point x="363" y="89" type="curve" smooth="yes"/>
      <point x="339" y="80"/>
      <point x="309" y="72"/>
      <point x="272" y="72" type="curve" smooth="yes"/>
      <point x="179" y="72"/>
      <point x="127" y="125"/>
      <point x="127" y="192" type="curve" smooth="yes"/>
      <point x="127" y="269"/>
      <point x="178" y="328"/>
      <point x="273" y="328" type="curve" smooth="yes"/>
      <point x="299" y="328"/>
      <point x="329" y="323"/>
      <point x="353" y="316" type="curve" smooth="yes"/>
      <point x="375" y="309"/>
      <point x="401" y="321"/>
      <point x="408" y="343" type="curve" smooth="yes"/>
      <point x="415" y="363"/>
      <point x="402" y="388"/>
      <point x="379" y="394" type="curve" smooth="yes"/>
      <point x="347" y="404"/>
      <point x="307" y="411"/>
      <point x="273" y="411" type="curve" smooth="yes"/>
      <point x="120" y="411"/>
      <point x="29" y="320"/>
      <point x="29" y="192" type="curve" smooth="yes"/>
      <point x="29" y="79"/>
      <point x="115" y="-10"/>
      <point x="272" y="-10" type="curve" smooth="yes"/>
    </contour>
    <contour>
      <point x="257" y="411" type="move" name="top"/>
    </contour>
    <contour>
      <point x="245" y="-5" type="move" name="bottom"/>
    </contour>
  </outline>
</glyph>
<glyph name="e" format="1">
  <advance width="483"/>
  <unicode hex="0065"/>
  <outline>
    <contour>
      <point x="319" y="-12"/>
      <point x="360" y="2"/>
      <point x="392" y="10" type="curve" smooth="yes"/>
      <point x="415" y="16"/>
      <point x="426" y="42"/>
      <point x="418" y="62" type="curve" smooth="yes"/>
      <point x="410" y="83"/>
      <point x="385" y="93"/>
      <point x="362" y="86" type="curve" smooth="yes"/>
      <point x="339" y="79"/>
      <point x="307" y="72"/>
      <point x="275" y="72" type="curve" smooth="yes"/>
      <point x="188" y="72"/>
      <point x="127" y="113"/>
      <point x="127" y="195" type="curve" smooth="yes"/>
      <point x="127" y="269"/>
      <point x="179" y="328"/>
      <point x="254" y="328" type="curve" smooth="yes"/>
      <point x="308" y="328"/>
      <point x="348" y="291"/>
      <point x="348" y="260" type="curve" smooth="yes"/>
      <point x="348" y="243"/>
      <point x="331" y="240"/>
      <point x="311" y="240" type="curve" smooth="yes"/>
      <point x="91" y="240" type="line" smooth="yes"/>
      <point x="67" y="240"/>
      <point x="47" y="221"/>
      <point x="47" y="199" type="curve" smooth="yes"/>
      <point x="47" y="176"/>
      <point x="67" y="157"/>
      <point x="91" y="157" type="curve" smooth="yes"/>
      <point x="311" y="157" type="line" smooth="yes"/>
      <point x="417" y="157"/>
      <point x="446" y="201"/>
      <point x="446" y="260" type="curve" smooth="yes"/>
      <point x="446" y="323"/>
      <point x="374" y="410"/>
      <point x="254" y="410" type="curve" smooth="yes"/>
      <point x="133" y="410"/>
      <point x="29" y="328"/>
      <point x="29" y="195" type="curve" smooth="yes"/>
      <point x="29" y="61"/>
      <point x="130" y="-12"/>
      <point x="275" y="-12" type="curve" smooth="yes"/>
    </contour>
    <contour>
      <point x="378" y="64" type="move" name="ogonek"/>
    </contour>
    <contour>
      <point x="255" y="-15" type="move" name="bottom"/>
    </contour>
    <contour>
      <point x="246" y="410" type="move" name="top"/>
    </contour>
  </outline>
</glyph>
<glyph name="f" format="1">
  <advance width="314"/>
  <unicode hex="0066"/>
  <outline>
    <contour>
      <point x="155" y="-14"/>
      <point x="180" y="4"/>
      <point x="180" y="28" type="curve" smooth="yes"/>
      <point x="180" y="437" type="line" smooth="yes"/>
      <point x="180" y="484"/>
      <point x="204" y="512"/>
      <point x="276" y="516" type="curve" smooth="yes"/>
      <point x="300" y="517"/>
      <point x="319" y="537"/>
      <point x="318" y="559" type="curve" smooth="yes"/>
      <point x="317" y="582"/>
      <point x="295" y="599"/>
      <point x="272" y="598" type="curve" smooth="yes"/>
      <point x="124" y="591"/>
      <point x="82" y="529"/>
      <point x="82" y="437" type="curve" smooth="yes"/>
      <point x="82" y="28" type="line" smooth="yes"/>
      <point x="82" y="4"/>
      <point x="107" y="-14"/>
      <point x="131" y="-14" type="curve" smooth="yes"/>
    </contour>
    <contour>
      <point x="276" y="324" type="line" smooth="yes"/>
      <point x="300" y="324"/>
      <point x="320" y="343"/>
      <point x="320" y="365" type="curve" smooth="yes"/>
      <point x="320" y="388"/>
      <point x="300" y="407"/>
      <point x="276" y="407" type="curve" smooth="yes"/>
      <point x="38" y="407" type="line" smooth="yes"/>
      <point x="14" y="407"/>
      <point x="-6" y="388"/>
      <point x="-6" y="365" type="curve" smooth="yes"/>
      <point x="-6" y="343"/>
      <point x="14" y="324"/>
      <point x="38" y="324" type="curve" smooth="yes"/>
    </contour>
  </outline>
</glyph>
<glyph name="i" format="1">
  <advance width="224"/>
  <unicode hex="0069"/>
  <outline>
    <contour>
      <point x="136" y="-15"/>
      <point x="161" y="3"/>
      <point x="161" y="27" type="curve" smooth="yes"/>
      <point x="161" y="364" type="line" smooth="yes"/>
      <point x="161" y="387"/>
      <point x="136" y="406"/>
      <point x="112" y="406" type="curve" smooth="yes"/>
      <point x="88" y="406"/>
      <point x="63" y="387"/>
      <point x="63" y="364" type="curve" smooth="yes"/>
      <point x="63" y="27" type="line" smooth="yes"/>
      <point x="63" y="3"/>
      <point x="88" y="-15"/>
      <point x="112" y="-15" type="curve" smooth="yes"/>
    </contour>
    <contour>
      <point x="143" y="479"/>
      <point x="180" y="499"/>
      <point x="180" y="544" type="curve" smooth="yes"/>
      <point x="180" y="591"/>
      <point x="143" y="612"/>
      <point x="112" y="612" type="curve" smooth="yes"/>
      <point x="79" y="612"/>
      <point x="44" y="591"/>
      <point x="44" y="544" type="curve" smooth="yes"/>
      <point x="44" y="502"/>
      <point x="77" y="479"/>
      <point x="113" y="479" type="curve" smooth="yes"/>
    </contour>
    <contour>
      <point x="112" y="-13" type="move" name="bottom"/>
    </contour>
  </outline>
</glyph>
<glyph name="j" format="1">
  <advance width="224"/>
  <unicode hex="006A"/>
  <outline>
    <contour>
      <point x="102" y="-131"/>
      <point x="161" y="-74"/>
      <point x="161" y="49" type="curve" smooth="yes"/>
      <point x="161" y="368" type="line" smooth="yes"/>
      <point x="161" y="390"/>
      <point x="136" y="410"/>
      <point x="112" y="410" type="curve" smooth="yes"/>
      <point x="88" y="410"/>
      <point x="63" y="390"/>
      <point x="63" y="368" type="curve" smooth="yes"/>
      <point x="63" y="49" type="line" smooth="yes"/>
      <point x="63" y="-24"/>
      <point x="38" y="-65"/>
      <point x="-20" y="-88" type="curve" smooth="yes"/>
      <point x="-42" y="-95"/>
      <point x="-54" y="-121"/>
      <point x="-45" y="-141" type="curve" smooth="yes"/>
      <point x="-36" y="-161"/>
      <point x="-10" y="-173"/>
      <point x="12" y="-164" type="curve" smooth="yes"/>
    </contour>
    <contour>
      <point x="143" y="483"/>
      <point x="180" y="503"/>
      <point x="180" y="548" type="curve" smooth="yes"/>
      <point x="180" y="595"/>
      <point x="143" y="616"/>
      <point x="112" y="616" type="curve" smooth="yes"/>
      <point x="79" y="616"/>
      <point x="44" y="595"/>
      <point x="44" y="548" type="curve" smooth="yes"/>
      <point x="44" y="505"/>
      <point x="77" y="483"/>
      <point x="113" y="483" type="curve" smooth="yes"/>
    </contour>
  </outline>
</glyph>
<glyph name="l" format="1">
  <advance width="224"/>
  <unicode hex="006C"/>
  <outline>
    <contour>
      <point x="136" y="-14"/>
      <point x="161" y="4"/>
      <point x="161" y="28" type="curve" smooth="yes"/>
      <point x="161" y="533" type="line" smooth="yes"/>
      <point x="161" y="555"/>
      <point x="136" y="574"/>
      <point x="112" y="574" type="curve" smooth="yes"/>
      <point x="88" y="574"/>
      <point x="63" y="555"/>
      <point x="63" y="533" type="curve" smooth="yes"/>
      <point x="63" y="28" type="line" smooth="yes"/>
      <point x="63" y="4"/>
      <point x="88" y="-14"/>
      <point x="112" y="-14" type="curve" smooth="yes"/>
    </contour>
    <contour>
      <point x="111" y="572" type="move" name="top"/>
    </contour>
    <contour>
      <point x="110" y="-15" type="move" name="bottom"/>
    </contour>
  </outline>
</glyph>
<glyph name="n" format="1">
  <advance width="502"/>
  <unicode hex="006E"/>
  <outline>
    <contour>
      <point x="431" y="-10"/>
      <point x="456" y="8"/>
      <point x="456" y="32" type="curve" smooth="yes"/>
      <point x="456" y="228" type="line" smooth="yes"/>
      <point x="456" y="377"/>
      <point x="376" y="411"/>
      <point x="289" y="411" type="curve" smooth="yes"/>
      <point x="212" y="411"/>
      <point x="137" y="370"/>
      <point x="78" y="313" type="curve" smooth="yes"/>
      <point x="61" y="296"/>
      <point x="62" y="269"/>
      <point x="79" y="254" type="curve" smooth="yes"/>
      <point x="96" y="238"/>
      <point x="125" y="238"/>
      <point x="142" y="254" type="curve" smooth="yes"/>
      <point x="183" y="293"/>
      <point x="234" y="328"/>
      <point x="289" y="328" type="curve" smooth="yes"/>
      <point x="336" y="328"/>
      <point x="358" y="290"/>
      <point x="358" y="228" type="curve" smooth="yes"/>
      <point x="358" y="32" type="line" smooth="yes"/>
      <point x="358" y="8"/>
      <point x="383" y="-10"/>
      <point x="407" y="-10" type="curve" smooth="yes"/>
    </contour>
    <contour>
      <point x="130" y="-10"/>
      <point x="155" y="8"/>
      <point x="155" y="32" type="curve" smooth="yes"/>
      <point x="155" y="370" type="line" smooth="yes"/>
      <point x="155" y="392"/>
      <point x="130" y="411"/>
      <point x="106" y="411" type="curve" smooth="yes"/>
      <point x="82" y="411"/>
      <point x="57" y="392"/>
      <point x="57" y="370" type="curve" smooth="yes"/>
      <point x="57" y="32" type="line" smooth="yes"/>
      <point x="57" y="8"/>
      <point x="82" y="-10"/>
      <point x="106" y="-10" type="curve" smooth="yes"/>
    </contour>
    <contour>
      <point x="265" y="413" type="move" name="top"/>
    </contour>
    <contour>
      <point x="246" y="34" type="move" name="bottom"/>
    </contour>
  </outline>
</glyph>
<glyph name="s" format="1">
  <advance width="459"/>
  <unicode hex="0073"/>
  <outline>
    <contour>
      <point x="390" y="-14"/>
      <point x="429" y="55"/>
      <point x="429" y="117" type="curve" smooth="yes"/>
      <point x="429" y="177"/>
      <point x="389" y="237"/>
      <point x="270" y="249" type="curve" smooth="yes"/>
      <point x="227" y="254" type="line" smooth="yes"/>
      <point x="182" y="257"/>
      <point x="146" y="266"/>
      <point x="146" y="290" type="curve" smooth="yes"/>
      <point x="146" y="316"/>
      <point x="182" y="331"/>
      <point x="231" y="331" type="curve" smooth="yes"/>
      <point x="271" y="331"/>
      <point x="307" y="325"/>
      <point x="335" y="317" type="curve" smooth="yes"/>
      <point x="358" y="312"/>
      <point x="383" y="325"/>
      <point x="389" y="348" type="curve" smooth="yes"/>
      <point x="395" y="369"/>
      <point x="380" y="392"/>
      <point x="357" y="398" type="curve" smooth="yes"/>
      <point x="323" y="406"/>
      <point x="279" y="414"/>
      <point x="231" y="414" type="curve" smooth="yes"/>
      <point x="86" y="414"/>
      <point x="48" y="346"/>
      <point x="48" y="290" type="curve" smooth="yes"/>
      <point x="48" y="240"/>
      <point x="74" y="184"/>
      <point x="219" y="170" type="curve" smooth="yes"/>
      <point x="260" y="165" type="line" smooth="yes"/>
      <point x="305" y="162"/>
      <point x="331" y="143"/>
      <point x="331" y="117" type="curve" smooth="yes"/>
      <point x="331" y="87"/>
      <point x="294" y="68"/>
      <point x="238" y="68" type="curve" smooth="yes"/>
      <point x="194" y="68"/>
      <point x="149" y="77"/>
      <point x="109" y="94" type="curve" smooth="yes"/>
      <point x="87" y="102"/>
      <point x="60" y="93"/>
      <point x="51" y="72" type="curve" smooth="yes"/>
      <point x="41" y="52"/>
      <point x="52" y="27"/>
      <point x="73" y="18" type="curve" smooth="yes"/>
      <point x="125" y="-3"/>
      <point x="182" y="-14"/>
      <point x="238" y="-14" type="curve" smooth="yes"/>
    </contour>
    <contour>
      <point x="231" y="414" type="move" name="top"/>
    </contour>
    <contour>
      <point x="233" y="-13" type="move" name="bottom"/>
    </contour>
  </outline>
</glyph>
<glyph name="bar" format="1">
  <advance width="295"/>
  <unicode hex="007C"/>
  <outline>
    <contour>
      <point x="172" y="-113"/>
      <point x="197" y="-94"/>
      <point x="197" y="-71" type="curve" smooth="yes"/>
      <point x="197" y="602" type="line" smooth="yes"/>
      <point x="197" y="625"/>
      <point x="172" y="644"/>
      <point x="148" y="644" type="curve" smooth="yes"/>
      <point x="124" y="644"/>
      <point x="99" y="625"/>
      <point x="99" y="602" type="curve" smooth="yes"/>
      <point x="99" y="-71" type="line" smooth="yes"/>
      <point x="99" y="-94"/>
      <point x="124" y="-113"/>
      <point x="148" y="-113" type="curve" smooth="yes"/>
    </contour>
  </outline>
</glyph>
<glyph name="exclamdown" format="1">
  <advance width="323"/>
  <unicode hex="00A1"/>
  <outline>
    <contour>
      <point x="192" y="-24"/>
      <point x="217" y="-4"/>
      <point x="216" y="18" type="curve" smooth="yes"/>
      <point x="209" y="293" type="line" smooth="yes"/>
      <point x="208" y="316"/>
      <point x="183" y="334"/>
      <point x="159" y="333" type="curve" smooth="yes"/>
      <point x="135" y="332"/>
      <point x="110" y="314"/>
      <point x="111" y="291" type="curve" smooth="yes"/>
      <point x="118" y="16" type="line" smooth="yes"/>
      <point x="119" y="-6"/>
      <point x="144" y="-26"/>
      <point x="168" y="-25" type="curve" smooth="yes"/>
    </contour>
    <contour>
      <point x="196" y="437"/>
      <point x="231" y="462"/>
      <point x="231" y="507" type="curve" smooth="yes"/>
      <point x="231" y="564"/>
      <point x="198" y="577"/>
      <point x="161" y="577" type="curve" smooth="yes"/>
      <point x="131" y="577"/>
      <point x="90" y="562"/>
      <point x="90" y="507" type="curve" smooth="yes"/>
      <point x="90" y="460"/>
      <point x="121" y="437"/>
      <point x="160" y="437" type="curve" smooth="yes"/>
    </contour>
  </outline>
</glyph>
<glyph name="sterling" format="1">
  <advance width="459"/>
  <unicode hex="00A3"/>
  <outline>
    <contour>
      <point x="170" y="75" type="line" smooth="yes"/>
      <point x="212" y="109"/>
      <point x="242" y="155"/>
      <point x="242" y="193" type="curve" smooth="yes"/>
      <point x="242" y="227"/>
      <point x="219" y="270"/>
      <point x="186" y="307" type="curve" smooth="yes"/>
      <point x="155" y="342"/>
      <point x="136" y="367"/>
      <point x="136" y="405" type="curve" smooth="yes"/>
      <point x="136" y="440"/>
      <point x="163" y="474"/>
      <point x="215" y="474" type="curve" smooth="yes"/>
      <point x="254" y="474"/>
      <point x="290" y="463"/>
      <point x="321" y="445" type="curve" smooth="yes"/>
      <point x="341" y="434"/>
      <point x="369" y="441"/>
      <point x="381" y="459" type="curve" smooth="yes"/>
      <point x="394" y="478"/>
      <point x="388" y="504"/>
      <point x="367" y="517" type="curve" smooth="yes"/>
      <point x="324" y="542"/>
      <point x="272" y="557"/>
      <point x="215" y="557" type="curve" smooth="yes"/>
      <point x="101" y="557"/>
      <point x="38" y="483"/>
      <point x="38" y="405" type="curve" smooth="yes"/>
      <point x="38" y="347"/>
      <point x="69" y="306"/>
      <point x="118" y="251" type="curve" smooth="yes"/>
      <point x="135" y="232"/>
      <point x="144" y="210"/>
      <point x="144" y="193" type="curve" smooth="yes"/>
      <point x="144" y="175"/>
      <point x="130" y="155"/>
      <point x="110" y="137" type="curve" smooth="yes"/>
      <point x="29" y="67" type="line" smooth="yes"/>
      <point x="11" y="53"/>
      <point x="10" y="26"/>
      <point x="27" y="8" type="curve" smooth="yes"/>
      <point x="43" y="-7"/>
      <point x="72" y="-9"/>
      <point x="89" y="5" type="curve" smooth="yes"/>
    </contour>
    <contour>
      <point x="379" y="-13" type="line" smooth="yes"/>
      <point x="403" y="-13"/>
      <point x="423" y="5"/>
      <point x="423" y="29" type="curve" smooth="yes"/>
      <point x="423" y="51"/>
      <point x="403" y="69"/>
      <point x="379" y="69" type="curve" smooth="yes"/>
      <point x="49" y="69" type="line" smooth="yes"/>
      <point x="25" y="69"/>
      <point x="5" y="51"/>
      <point x="5" y="29" type="curve" smooth="yes"/>
      <point x="5" y="5"/>
      <point x="25" y="-13"/>
      <point x="49" y="-13" type="curve" smooth="yes"/>
    </contour>
    <contour>
      <point x="369" y="209" type="line" smooth="yes"/>
      <point x="393" y="209"/>
      <point x="413" y="228"/>
      <point x="413" y="251" type="curve" smooth="yes"/>
      <point x="413" y="273"/>
      <point x="393" y="292"/>
      <point x="369" y="292" type="curve" smooth="yes"/>
      <point x="55" y="292" type="line" smooth="yes"/>
      <point x="31" y="292"/>
      <point x="11" y="273"/>
      <point x="11" y="251" type="curve" smooth="yes"/>
      <point x="11" y="228"/>
      <point x="31" y="209"/>
      <point x="55" y="209" type="curve" smooth="yes"/>
    </contour>
  </outline>
</glyph>
<glyph name="yen" format="1">
  <advance width="568"/>
  <unicode hex="00A5"/>
  <outline>
    <contour>
      <point x="378" y="294"/>
      <point x="478" y="413"/>
      <point x="530" y="483" type="curve" smooth="yes"/>
      <point x="544" y="501"/>
      <point x="538" y="528"/>
      <point x="518" y="541" type="curve" smooth="yes"/>
      <point x="499" y="554"/>
      <point x="469" y="551"/>
      <point x="456" y="532" type="curve" smooth="yes"/>
      <point x="406" y="466"/>
      <point x="312" y="351"/>
      <point x="260" y="303" type="curve" smooth="yes"/>
      <point x="243" y="287"/>
      <point x="244" y="260"/>
      <point x="261" y="244" type="curve" smooth="yes"/>
      <point x="278" y="228"/>
      <point x="307" y="227"/>
      <point x="324" y="243" type="curve" smooth="yes"/>
    </contour>
    <contour>
      <point x="474" y="88" type="line" smooth="yes"/>
      <point x="498" y="88"/>
      <point x="518" y="106"/>
      <point x="518" y="129" type="curve" smooth="yes"/>
      <point x="518" y="152"/>
      <point x="498" y="170"/>
      <point x="474" y="170" type="curve" smooth="yes"/>
      <point x="109" y="170" type="line" smooth="yes"/>
      <point x="85" y="170"/>
      <point x="65" y="152"/>
      <point x="65" y="129" type="curve" smooth="yes"/>
      <point x="65" y="106"/>
      <point x="85" y="88"/>
      <point x="109" y="88" type="curve" smooth="yes"/>
    </contour>
    <contour>
      <point x="316" y="-13"/>
      <point x="341" y="5"/>
      <point x="341" y="29" type="curve" smooth="yes"/>
      <point x="341" y="267" type="line" smooth="yes"/>
      <point x="341" y="290"/>
      <point x="316" y="309"/>
      <point x="292" y="309" type="curve" smooth="yes"/>
      <point x="268" y="309"/>
      <point x="243" y="290"/>
      <point x="243" y="267" type="curve" smooth="yes"/>
      <point x="243" y="29" type="line" smooth="yes"/>
      <point x="243" y="5"/>
      <point x="268" y="-13"/>
      <point x="292" y="-13" type="curve" smooth="yes"/>
    </contour>
    <contour>
      <point x="474" y="228" type="line" smooth="yes"/>
      <point x="498" y="228"/>
      <point x="518" y="247"/>
      <point x="518" y="269" type="curve" smooth="yes"/>
      <point x="518" y="292"/>
      <point x="498" y="311"/>
      <point x="474" y="311" type="curve" smooth="yes"/>
      <point x="109" y="311" type="line" smooth="yes"/>
      <point x="85" y="311"/>
      <point x="65" y="292"/>
      <point x="65" y="269" type="curve" smooth="yes"/>
      <point x="65" y="247"/>
      <point x="85" y="228"/>
      <point x="109" y="228" type="curve" smooth="yes"/>
    </contour>
    <contour>
      <point x="275" y="237"/>
      <point x="304" y="238"/>
      <point x="321" y="254" type="curve" smooth="yes"/>
      <point x="337" y="270"/>
      <point x="337" y="298"/>
      <point x="320" y="314" type="curve" smooth="yes"/>
      <point x="281" y="349"/>
      <point x="175" y="465"/>
      <point x="126" y="532" type="curve" smooth="yes"/>
      <point x="112" y="551"/>
      <point x="82" y="554"/>
      <point x="63" y="541" type="curve" smooth="yes"/>
      <point x="43" y="528"/>
      <point x="37" y="501"/>
      <point x="50" y="483" type="curve" smooth="yes"/>
      <point x="103" y="412"/>
      <point x="217" y="291"/>
      <point x="258" y="254" type="curve" smooth="yes"/>
    </contour>
  </outline>
</glyph>
<glyph name="ordfeminine" format="1">
  <advance width="446"/>
  <unicode hex="00AA"/>
  <outline>
    <contour>
      <point x="377" y="261"/>
      <point x="379" y="287"/>
      <point x="363" y="304" type="curve" smooth="yes"/>
      <point x="352" y="316"/>
      <point x="349" y="329"/>
      <point x="349" y="352" type="curve" smooth="yes"/>
      <point x="349" y="411" type="line" smooth="yes"/>
      <point x="349" y="490"/>
      <point x="305" y="544"/>
      <point x="209" y="544" type="curve" smooth="yes"/>
      <point x="180" y="544"/>
      <point x="149" y="536"/>
      <point x="130" y="531" type="curve" smooth="yes"/>
      <point x="108" y="524"/>
      <point x="95" y="501"/>
      <point x="102" y="480" type="curve" smooth="yes"/>
      <point x="109" y="459"/>
      <point x="134" y="447"/>
      <point x="156" y="454" type="curve" smooth="yes"/>
      <point x="169" y="457"/>
      <point x="190" y="463"/>
      <point x="209" y="463" type="curve" smooth="yes"/>
      <point x="247" y="463"/>
      <point x="263" y="436"/>
      <point x="263" y="411" type="curve" smooth="yes"/>
      <point x="263" y="352" type="line" smooth="yes"/>
      <point x="263" y="303"/>
      <point x="276" y="274"/>
      <point x="299" y="250" type="curve" smooth="yes"/>
      <point x="314" y="233"/>
      <point x="342" y="231"/>
      <point x="360" y="247" type="curve" smooth="yes"/>
    </contour>
    <contour>
      <point x="364" y="124" type="line" smooth="yes"/>
      <point x="387" y="124"/>
      <point x="407" y="142"/>
      <point x="407" y="164" type="curve" smooth="yes"/>
      <point x="407" y="186"/>
      <point x="387" y="204"/>
      <point x="364" y="204" type="curve" smooth="yes"/>
      <point x="93" y="204" type="line" smooth="yes"/>
      <point x="70" y="204"/>
      <point x="50" y="186"/>
      <point x="50" y="164" type="curve" smooth="yes"/>
      <point x="50" y="142"/>
      <point x="70" y="124"/>
      <point x="93" y="124" type="curve" smooth="yes"/>
    </contour>
    <contour>
      <point x="245" y="236"/>
      <point x="295" y="262"/>
      <point x="339" y="318" type="curve" smooth="yes"/>
      <point x="353" y="335"/>
      <point x="350" y="359"/>
      <point x="332" y="372" type="curve" smooth="yes"/>
      <point x="313" y="385"/>
      <point x="288" y="381"/>
      <point x="275" y="364" type="curve" smooth="yes"/>
      <point x="249" y="331"/>
      <point x="216" y="317"/>
      <point x="178" y="317" type="curve" smooth="yes"/>
      <point x="161" y="317"/>
      <point x="153" y="325"/>
      <point x="153" y="334" type="curve" smooth="yes"/>
      <point x="153" y="340"/>
      <point x="155" y="345"/>
      <point x="162" y="351" type="curve" smooth="yes"/>
      <point x="175" y="362"/>
      <point x="199" y="369"/>
      <point x="238" y="369" type="curve" smooth="yes"/>
      <point x="258" y="369"/>
      <point x="279" y="367"/>
      <point x="302" y="366" type="curve" smooth="yes"/>
      <point x="325" y="365"/>
      <point x="346" y="381"/>
      <point x="347" y="403" type="curve" smooth="yes"/>
      <point x="348" y="424"/>
      <point x="329" y="438"/>
      <point x="306" y="439" type="curve" smooth="yes"/>
      <point x="281" y="440"/>
      <point x="260" y="442"/>
      <point x="238" y="442" type="curve" smooth="yes"/>
      <point x="171" y="442"/>
      <point x="130" y="428"/>
      <point x="101" y="404" type="curve" smooth="yes"/>
      <point x="74" y="379"/>
      <point x="67" y="359"/>
      <point x="67" y="330" type="curve" smooth="yes"/>
      <point x="67" y="292"/>
      <point x="92" y="236"/>
      <point x="178" y="236" type="curve" smooth="yes"/>
    </contour>
  </outline>
</glyph>
<glyph name="logicalnot" format="1">
  <advance width="485"/>
  <unicode hex="00AC"/>
  <outline>
    <contour>
      <point x="381" y="214" type="line" smooth="yes"/>
      <point x="405" y="214"/>
      <point x="425" y="232"/>
      <point x="425" y="255" type="curve" smooth="yes"/>
      <point x="425" y="278"/>
      <point x="405" y="296"/>
      <point x="381" y="296" type="curve" smooth="yes"/>
      <point x="104" y="296" type="line" smooth="yes"/>
      <point x="80" y="296"/>
      <point x="60" y="278"/>
      <point x="60" y="255" type="curve" smooth="yes"/>
      <point x="60" y="232"/>
      <point x="80" y="214"/>
      <point x="104" y="214" type="curve" smooth="yes"/>
    </contour>
    <contour>
      <point x="405" y="107"/>
      <point x="430" y="127"/>
      <point x="430" y="149" type="curve" smooth="yes"/>
      <point x="430" y="249" type="line" smooth="yes"/>
      <point x="430" y="271"/>
      <point x="405" y="290"/>
      <point x="381" y="290" type="curve" smooth="yes"/>
      <point x="357" y="290"/>
      <point x="332" y="271"/>
      <point x="332" y="249" type="curve" smooth="yes"/>
      <point x="332" y="149" type="line" smooth="yes"/>
      <point x="332" y="127"/>
      <point x="357" y="107"/>
      <point x="381" y="107" type="curve" smooth="yes"/>
    </contour>
  </outline>
</glyph>
<glyph name="registered" format="1">
  <advance width="568"/>
  <unicode hex="00AE"/>
  <outline>
    <contour>
      <point x="432" y="162"/>
      <point x="538" y="261"/>
      <point x="538" y="397" type="curve" smooth="yes"/>
      <point x="538" y="531"/>
      <point x="435" y="631"/>
      <point x="281" y="631" type="curve" smooth="yes"/>
      <point x="136" y="631"/>
      <point x="36" y="537"/>
      <point x="36" y="400" type="curve" smooth="yes"/>
      <point x="36" y="272"/>
      <point x="135" y="162"/>
      <point x="288" y="162" type="curve" smooth="yes"/>
    </contour>
    <contour>
      <point x="410" y="295"/>
      <point x="412" y="322"/>
      <point x="396" y="338" type="curve" smooth="yes"/>
      <point x="346" y="391" type="line" smooth="yes"/>
      <point x="331" y="409"/>
      <point x="303" y="410"/>
      <point x="286" y="395" type="curve" smooth="yes"/>
      <point x="268" y="381"/>
      <point x="266" y="355"/>
      <point x="282" y="339" type="curve" smooth="yes"/>
      <point x="332" y="285" type="line" smooth="yes"/>
      <point x="347" y="268"/>
      <point x="375" y="266"/>
      <point x="392" y="282" type="curve" smooth="yes"/>
    </contour>
    <contour>
      <point x="187" y="243"/>
      <point x="122" y="316"/>
      <point x="122" y="400" type="curve" smooth="yes"/>
      <point x="122" y="488"/>
      <point x="186" y="551"/>
      <point x="281" y="551" type="curve" smooth="yes"/>
      <point x="381" y="551"/>
      <point x="452" y="486"/>
      <point x="452" y="397" type="curve" smooth="yes"/>
      <point x="452" y="309"/>
      <point x="382" y="243"/>
      <point x="288" y="243" type="curve" smooth="yes"/>
    </contour>
    <contour>
      <point x="249" y="271"/>
      <point x="269" y="290"/>
      <point x="269" y="312" type="curve" smooth="yes"/>
      <point x="269" y="485" type="line"/>
      <point x="226" y="444" type="line"/>
      <point x="286" y="444" type="line" smooth="yes"/>
      <point x="296" y="444"/>
      <point x="309" y="442"/>
      <point x="309" y="430" type="curve" smooth="yes"/>
      <point x="309" y="419"/>
      <point x="300" y="412"/>
      <point x="286" y="412" type="curve" smooth="yes"/>
      <point x="237" y="412" type="line" smooth="yes"/>
      <point x="214" y="412"/>
      <point x="194" y="393"/>
      <point x="194" y="372" type="curve" smooth="yes"/>
      <point x="194" y="350"/>
      <point x="214" y="331"/>
      <point x="237" y="331" type="curve" smooth="yes"/>
      <point x="286" y="331" type="line" smooth="yes"/>
      <point x="362" y="331"/>
      <point x="395" y="378"/>
      <point x="395" y="430" type="curve" smooth="yes"/>
      <point x="395" y="486"/>
      <point x="356" y="525"/>
      <point x="286" y="525" type="curve" smooth="yes"/>
      <point x="226" y="525" type="line" smooth="yes"/>
      <point x="202" y="525"/>
      <point x="183" y="507"/>
      <point x="183" y="485" type="curve" smooth="yes"/>
      <point x="183" y="312" type="line" smooth="yes"/>
      <point x="183" y="290"/>
      <point x="203" y="271"/>
      <point x="226" y="271" type="curve" smooth="yes"/>
    </contour>
  </outline>
</glyph>
<glyph name="plusminus" format="1">
  <advance width="537"/>
  <unicode hex="00B1"/>
  <outline>
    <contour>
      <point x="445" y="288" type="line" smooth="yes"/>
      <point x="469" y="288"/>
      <point x="489" y="307"/>
      <point x="489" y="329" type="curve" smooth="yes"/>
      <point x="489" y="352"/>
      <point x="469" y="371"/>
      <point x="445" y="371" type="curve" smooth="yes"/>
      <point x="91" y="371" type="line" smooth="yes"/>
      <point x="67" y="371"/>
      <point x="47" y="352"/>
      <point x="47" y="329" type="curve" smooth="yes"/>
      <point x="47" y="307"/>
      <point x="67" y="288"/>
      <point x="91" y="288" type="curve" smooth="yes"/>
    </contour>
    <contour>
      <point x="445" y="45" type="line" smooth="yes"/>
      <point x="469" y="45"/>
      <point x="489" y="65"/>
      <point x="489" y="87" type="curve" smooth="yes"/>
      <point x="489" y="109"/>
      <point x="469" y="128"/>
      <point x="445" y="128" type="curve" smooth="yes"/>
      <point x="91" y="128" type="line" smooth="yes"/>
      <point x="67" y="128"/>
      <point x="47" y="109"/>
      <point x="47" y="87" type="curve" smooth="yes"/>
      <point x="47" y="65"/>
      <point x="67" y="45"/>
      <point x="91" y="45" type="curve" smooth="yes"/>
    </contour>
    <contour>
      <point x="292" y="170"/>
      <point x="317" y="190"/>
      <point x="317" y="212" type="curve" smooth="yes"/>
      <point x="317" y="447" type="line" smooth="yes"/>
      <point x="317" y="470"/>
      <point x="292" y="488"/>
      <point x="268" y="488" type="curve" smooth="yes"/>
      <point x="244" y="488"/>
      <point x="219" y="470"/>
      <point x="219" y="447" type="curve" smooth="yes"/>
      <point x="219" y="212" type="line" smooth="yes"/>
      <point x="219" y="190"/>
      <point x="244" y="170"/>
      <point x="268" y="170" type="curve" smooth="yes"/>
    </contour>
  </outline>
</glyph>
<glyph name="paragraph" format="1">
  <advance width="564"/>
  <unicode hex="00B6"/>
  <outline>
    <contour>
      <point x="469" y="-13"/>
      <point x="494" y="5"/>
      <point x="494" y="29" type="curve" smooth="yes"/>
      <point x="494" y="507" type="line" smooth="yes"/>
      <point x="494" y="530"/>
      <point x="472" y="549"/>
      <point x="445" y="549" type="curve" smooth="yes"/>
      <point x="247" y="549" type="line" smooth="yes"/>
      <point x="112" y="549"/>
      <point x="22" y="469"/>
      <point x="22" y="355" type="curve" smooth="yes"/>
      <point x="22" y="248"/>
      <point x="97" y="161"/>
      <point x="247" y="161" type="curve" smooth="yes"/>
      <point x="306" y="161" type="line" smooth="yes"/>
      <point x="330" y="161"/>
      <point x="350" y="180"/>
      <point x="350" y="202" type="curve" smooth="yes"/>
      <point x="350" y="225"/>
      <point x="330" y="244"/>
      <point x="306" y="244" type="curve" smooth="yes"/>
      <point x="247" y="244" type="line" smooth="yes"/>
      <point x="161" y="244"/>
      <point x="120" y="294"/>
      <point x="120" y="355" type="curve" smooth="yes"/>
      <point x="120" y="420"/>
      <point x="170" y="466"/>
      <point x="247" y="466" type="curve" smooth="yes"/>
      <point x="445" y="466" type="line"/>
      <point x="396" y="507" type="line"/>
      <point x="396" y="29" type="line" smooth="yes"/>
      <point x="396" y="5"/>
      <point x="421" y="-13"/>
      <point x="445" y="-13" type="curve" smooth="yes"/>
    </contour>
    <contour>
      <point x="330" y="-13"/>
      <point x="355" y="5"/>
      <point x="355" y="29" type="curve" smooth="yes"/>
      <point x="355" y="505" type="line" smooth="yes"/>
      <point x="355" y="528"/>
      <point x="330" y="547"/>
      <point x="306" y="547" type="curve" smooth="yes"/>
      <point x="282" y="547"/>
      <point x="257" y="528"/>
      <point x="257" y="505" type="curve" smooth="yes"/>
      <point x="257" y="29" type="line" smooth="yes"/>
      <point x="257" y="5"/>
      <point x="282" y="-13"/>
      <point x="306" y="-13" type="curve" smooth="yes"/>
    </contour>
  </outline>
</glyph>
<glyph name="uni00B9" format="1">
  <advance width="224"/>
  <unicode hex="00B9"/>
  <outline>
    <contour>
      <point x="159" y="213"/>
      <point x="179" y="231"/>
      <point x="179" y="254" type="curve" smooth="yes"/>
      <point x="179" y="508" type="line" smooth="yes"/>
      <point x="179" y="530"/>
      <point x="159" y="549"/>
      <point x="136" y="549" type="curve" smooth="yes"/>
      <point x="113" y="549"/>
      <point x="93" y="530"/>
      <point x="93" y="508" type="curve" smooth="yes"/>
      <point x="93" y="254" type="line" smooth="yes"/>
      <point x="93" y="231"/>
      <point x="113" y="213"/>
      <point x="136" y="213" type="curve" smooth="yes"/>
    </contour>
    <contour>
      <point x="157" y="476" type="line" smooth="yes"/>
      <point x="177" y="487"/>
      <point x="185" y="512"/>
      <point x="174" y="532" type="curve" smooth="yes"/>
      <point x="163" y="551"/>
      <point x="136" y="558"/>
      <point x="115" y="548" type="curve" smooth="yes"/>
      <point x="29" y="504" type="line" smooth="yes"/>
      <point x="9" y="493"/>
      <point x="1" y="468"/>
      <point x="12" y="448" type="curve" smooth="yes"/>
      <point x="23" y="429"/>
      <point x="50" y="422"/>
      <point x="71" y="432" type="curve" smooth="yes"/>
    </contour>
  </outline>
</glyph>
<glyph name="ordmasculine" format="1">
  <advance width="440"/>
  <unicode hex="00BA"/>
  <outline>
    <contour>
      <point x="318" y="237"/>
      <point x="382" y="303"/>
      <point x="382" y="389" type="curve" smooth="yes"/>
      <point x="382" y="473"/>
      <point x="317" y="544"/>
      <point x="220" y="544" type="curve" smooth="yes"/>
      <point x="119" y="544"/>
      <point x="57" y="473"/>
      <point x="57" y="389" type="curve" smooth="yes"/>
      <point x="57" y="303"/>
      <point x="122" y="237"/>
      <point x="220" y="237" type="curve" smooth="yes"/>
    </contour>
    <contour>
      <point x="354" y="124" type="line" smooth="yes"/>
      <point x="377" y="124"/>
      <point x="397" y="142"/>
      <point x="397" y="164" type="curve" smooth="yes"/>
      <point x="397" y="186"/>
      <point x="377" y="204"/>
      <point x="354" y="204" type="curve" smooth="yes"/>
      <point x="93" y="204" type="line" smooth="yes"/>
      <point x="70" y="204"/>
      <point x="50" y="186"/>
      <point x="50" y="164" type="curve" smooth="yes"/>
      <point x="50" y="142"/>
      <point x="70" y="124"/>
      <point x="93" y="124" type="curve" smooth="yes"/>
    </contour>
    <contour>
      <point x="174" y="318"/>
      <point x="143" y="348"/>
      <point x="143" y="389" type="curve" smooth="yes"/>
      <point x="143" y="428"/>
      <point x="171" y="463"/>
      <point x="220" y="463" type="curve" smooth="yes"/>
      <point x="267" y="463"/>
      <point x="296" y="428"/>
      <point x="296" y="389" type="curve" smooth="yes"/>
      <point x="296" y="348"/>
      <point x="266" y="318"/>
      <point x="220" y="318" type="curve" smooth="yes"/>
    </contour>
  </outline>
</glyph>
<glyph name="guillemotright" format="1">
  <advance width="440"/>
  <unicode hex="00BB"/>
  <outline>
    <contour>
      <point x="73" y="1"/>
      <point x="103" y="3"/>
      <point x="117" y="22" type="curve" smooth="yes"/>
      <point x="234" y="170" type="line" smooth="yes"/>
      <point x="248" y="189"/>
      <point x="242" y="216"/>
      <point x="223" y="228" type="curve" smooth="yes"/>
      <point x="204" y="243"/>
      <point x="174" y="239"/>
      <point x="160" y="222" type="curve" smooth="yes"/>
      <point x="43" y="72" type="line" smooth="yes"/>
      <point x="29" y="55"/>
      <point x="35" y="28"/>
      <point x="54" y="14" type="curve" smooth="yes"/>
    </contour>
    <contour>
      <point x="242" y="181"/>
      <point x="248" y="208"/>
      <point x="234" y="226" type="curve" smooth="yes"/>
      <point x="117" y="375" type="line" smooth="yes"/>
      <point x="103" y="392"/>
      <point x="73" y="396"/>
      <point x="54" y="382" type="curve" smooth="yes"/>
      <point x="35" y="369"/>
      <point x="29" y="342"/>
      <point x="43" y="324" type="curve" smooth="yes"/>
      <point x="160" y="175" type="line" smooth="yes"/>
      <point x="174" y="158"/>
      <point x="204" y="154"/>
      <point x="223" y="167" type="curve" smooth="yes"/>
    </contour>
    <contour>
      <point x="252" y="1"/>
      <point x="282" y="3"/>
      <point x="296" y="22" type="curve" smooth="yes"/>
      <point x="412" y="170" type="line" smooth="yes"/>
      <point x="426" y="189"/>
      <point x="420" y="216"/>
      <point x="401" y="228" type="curve" smooth="yes"/>
      <point x="382" y="243"/>
      <point x="352" y="239"/>
      <point x="338" y="222" type="curve" smooth="yes"/>
      <point x="222" y="72" type="line" smooth="yes"/>
      <point x="208" y="55"/>
      <point x="214" y="28"/>
      <point x="233" y="14" type="curve" smooth="yes"/>
    </contour>
    <contour>
      <point x="420" y="181"/>
      <point x="426" y="208"/>
      <point x="412" y="226" type="curve" smooth="yes"/>
      <point x="296" y="375" type="line" smooth="yes"/>
      <point x="282" y="392"/>
      <point x="252" y="396"/>
      <point x="233" y="382" type="curve" smooth="yes"/>
      <point x="214" y="369"/>
      <point x="208" y="342"/>
      <point x="222" y="324" type="curve" smooth="yes"/>
      <point x="338" y="175" type="line" smooth="yes"/>
      <point x="352" y="158"/>
      <point x="382" y="154"/>
      <point x="401" y="167" type="curve" smooth="yes"/>
    </contour>
  </outline>
</glyph>
<glyph name="AE" format="1">
  <advance width="773"/>
  <unicode hex="00C6"/>
  <outline>
    <contour>
      <point x="31" y="-19"/>
      <point x="61" y="-14"/>
      <point x="74" y="4" type="curve" smooth="yes"/>
      <point x="160" y="129"/>
      <point x="293" y="318"/>
      <point x="401" y="485" type="curve" smooth="yes"/>
      <point x="414" y="504"/>
      <point x="405" y="531"/>
      <point x="385" y="543" type="curve" smooth="yes"/>
      <point x="365" y="554"/>
      <point x="335" y="549"/>
      <point x="323" y="530" type="curve" smooth="yes"/>
      <point x="215" y="363"/>
      <point x="82" y="176"/>
      <point x="-4" y="52" type="curve" smooth="yes"/>
      <point x="-17" y="34"/>
      <point x="-9" y="5"/>
      <point x="11" y="-6" type="curve" smooth="yes"/>
    </contour>
    <contour>
      <point x="402" y="130" type="line" smooth="yes"/>
      <point x="426" y="130"/>
      <point x="446" y="149"/>
      <point x="446" y="171" type="curve" smooth="yes"/>
      <point x="446" y="194"/>
      <point x="426" y="213"/>
      <point x="402" y="213" type="curve" smooth="yes"/>
      <point x="140" y="213" type="line" smooth="yes"/>
      <point x="116" y="213"/>
      <point x="96" y="194"/>
      <point x="96" y="171" type="curve" smooth="yes"/>
      <point x="96" y="149"/>
      <point x="116" y="130"/>
      <point x="140" y="130" type="curve" smooth="yes"/>
    </contour>
    <contour>
      <point x="696" y="-13" type="line" smooth="yes"/>
      <point x="720" y="-13"/>
      <point x="740" y="5"/>
      <point x="740" y="29" type="curve" smooth="yes"/>
      <point x="740" y="51"/>
      <point x="720" y="69"/>
      <point x="696" y="69" type="curve" smooth="yes"/>
      <point x="412" y="69" type="line" smooth="yes"/>
      <point x="388" y="69"/>
      <point x="368" y="51"/>
      <point x="368" y="29" type="curve" smooth="yes"/>
      <point x="368" y="5"/>
      <point x="388" y="-13"/>
      <point x="412" y="-13" type="curve" smooth="yes"/>
    </contour>
    <contour>
      <point x="427" y="-13"/>
      <point x="452" y="5"/>
      <point x="452" y="29" type="curve" smooth="yes"/>
      <point x="452" y="507" type="line" smooth="yes"/>
      <point x="452" y="530"/>
      <point x="427" y="549"/>
      <point x="403" y="549" type="curve" smooth="yes"/>
      <point x="379" y="549"/>
      <point x="354" y="530"/>
      <point x="354" y="507" type="curve" smooth="yes"/>
      <point x="354" y="29" type="line" smooth="yes"/>
      <point x="354" y="5"/>
      <point x="379" y="-13"/>
      <point x="403" y="-13" type="curve" smooth="yes"/>
    </contour>
    <contour>
      <point x="649" y="245" type="line" smooth="yes"/>
      <point x="673" y="245"/>
      <point x="693" y="263"/>
      <point x="693" y="286" type="curve" smooth="yes"/>
      <point x="693" y="309"/>
      <point x="673" y="327"/>
      <point x="649" y="327" type="curve" smooth="yes"/>
      <point x="412" y="327" type="line" smooth="yes"/>
      <point x="388" y="327"/>
      <point x="368" y="309"/>
      <point x="368" y="286" type="curve" smooth="yes"/>
      <point x="368" y="263"/>
      <point x="388" y="245"/>
      <point x="412" y="245" type="curve" smooth="yes"/>
    </contour>
    <contour>
      <point x="421" y="466" type="line" smooth="yes"/>
      <point x="445" y="466"/>
      <point x="465" y="485"/>
      <point x="465" y="507" type="curve" smooth="yes"/>
      <point x="465" y="530"/>
      <point x="445" y="549"/>
      <point x="421" y="549" type="curve" smooth="yes"/>
      <point x="367" y="549" type="line" smooth="yes"/>
      <point x="343" y="549"/>
      <point x="323" y="530"/>
      <point x="323" y="507" type="curve" smooth="yes"/>
      <point x="323" y="485"/>
      <point x="343" y="466"/>
      <point x="367" y="466" type="curve" smooth="yes"/>
    </contour>
    <contour>
      <point x="694" y="466" type="line" smooth="yes"/>
      <point x="718" y="466"/>
      <point x="738" y="485"/>
      <point x="738" y="507" type="curve" smooth="yes"/>
      <point x="738" y="530"/>
      <point x="718" y="549"/>
      <point x="694" y="549" type="curve" smooth="yes"/>
      <point x="412" y="549" type="line" smooth="yes"/>
      <point x="388" y="549"/>
      <point x="368" y="530"/>
      <point x="368" y="507" type="curve" smooth="yes"/>
      <point x="368" y="485"/>
      <point x="388" y="466"/>
      <point x="412" y="466" type="curve" smooth="yes"/>
    </contour>
  </outline>
</glyph>
<glyph name="multiply" format="1">
  <advance width="537"/>
  <unicode hex="00D7"/>
  <outline>
    <contour>
      <point x="91" y="81"/>
      <point x="120" y="80"/>
      <point x="137" y="97" type="curve" smooth="yes"/>
      <point x="437" y="368" type="line" smooth="yes"/>
      <point x="454" y="383"/>
      <point x="454" y="410"/>
      <point x="438" y="427" type="curve" smooth="yes"/>
      <point x="421" y="443"/>
      <point x="392" y="444"/>
      <point x="375" y="428" type="curve" smooth="yes"/>
      <point x="75" y="157" type="line" smooth="yes"/>
      <point x="58" y="141"/>
      <point x="58" y="114"/>
      <point x="74" y="97" type="curve" smooth="yes"/>
    </contour>
    <contour>
      <point x="396" y="80"/>
      <point x="425" y="81"/>
      <point x="442" y="98" type="curve" smooth="yes"/>
      <point x="458" y="114"/>
      <point x="458" y="141"/>
      <point x="441" y="157" type="curve" smooth="yes"/>
      <point x="141" y="427" type="line" smooth="yes"/>
      <point x="124" y="443"/>
      <point x="95" y="442"/>
      <point x="78" y="425" type="curve" smooth="yes"/>
      <point x="62" y="410"/>
      <point x="62" y="382"/>
      <point x="79" y="367" type="curve" smooth="yes"/>
      <point x="379" y="97" type="line" smooth="yes"/>
    </contour>
  </outline>
</glyph>
<glyph name="ae" format="1">
  <advance width="775"/>
  <unicode hex="00E6"/>
  <outline>
    <contour>
      <point x="611" y="-12"/>
      <point x="652" y="2"/>
      <point x="684" y="10" type="curve" smooth="yes"/>
      <point x="707" y="16"/>
      <point x="718" y="42"/>
      <point x="710" y="62" type="curve" smooth="yes"/>
      <point x="702" y="83"/>
      <point x="677" y="93"/>
      <point x="654" y="86" type="curve" smooth="yes"/>
      <point x="631" y="79"/>
      <point x="599" y="72"/>
      <point x="567" y="72" type="curve" smooth="yes"/>
      <point x="480" y="72"/>
      <point x="419" y="113"/>
      <point x="419" y="195" type="curve"/>
      <point x="419" y="269"/>
      <point x="471" y="328"/>
      <point x="546" y="328" type="curve" smooth="yes"/>
      <point x="600" y="328"/>
      <point x="640" y="291"/>
      <point x="640" y="260" type="curve" smooth="yes"/>
      <point x="640" y="243"/>
      <point x="623" y="240"/>
      <point x="603" y="240" type="curve" smooth="yes"/>
      <point x="383" y="240" type="line" smooth="yes"/>
      <point x="359" y="240"/>
      <point x="339" y="221"/>
      <point x="339" y="199" type="curve" smooth="yes"/>
      <point x="339" y="176"/>
      <point x="359" y="157"/>
      <point x="383" y="157" type="curve" smooth="yes"/>
      <point x="603" y="157" type="line" smooth="yes"/>
      <point x="709" y="157"/>
      <point x="738" y="201"/>
      <point x="738" y="260" type="curve" smooth="yes"/>
      <point x="738" y="323"/>
      <point x="666" y="410"/>
      <point x="546" y="410" type="curve" smooth="yes"/>
      <point x="425" y="410"/>
      <point x="321" y="328"/>
      <point x="321" y="195" type="curve" smooth="yes"/>
      <point x="321" y="61"/>
      <point x="422" y="-12"/>
      <point x="567" y="-12" type="curve" smooth="yes"/>
    </contour>
    <contour>
      <point x="261" y="-10"/>
      <point x="343" y="30"/>
      <point x="412" y="88" type="curve" smooth="yes"/>
      <point x="430" y="102"/>
      <point x="431" y="130"/>
      <point x="415" y="146" type="curve" smooth="yes"/>
      <point x="399" y="163"/>
      <point x="370" y="164"/>
      <point x="352" y="150" type="curve" smooth="yes"/>
      <point x="301" y="106"/>
      <point x="241" y="72"/>
      <point x="174" y="72" type="curve" smooth="yes"/>
      <point x="138" y="72"/>
      <point x="121" y="94"/>
      <point x="121" y="111" type="curve" smooth="yes"/>
      <point x="121" y="124"/>
      <point x="120" y="137"/>
      <point x="132" y="149" type="curve" smooth="yes"/>
      <point x="158" y="172"/>
      <point x="200" y="185"/>
      <point x="261" y="185" type="curve" smooth="yes"/>
      <point x="291" y="185"/>
      <point x="329" y="183"/>
      <point x="365" y="182" type="curve" smooth="yes"/>
      <point x="389" y="181"/>
      <point x="409" y="199"/>
      <point x="410" y="222" type="curve" smooth="yes"/>
      <point x="411" y="245"/>
      <point x="391" y="263"/>
      <point x="367" y="264" type="curve" smooth="yes"/>
      <point x="331" y="265"/>
      <point x="291" y="267"/>
      <point x="261" y="267" type="curve" smooth="yes"/>
      <point x="168" y="267"/>
      <point x="108" y="244"/>
      <point x="70" y="209" type="curve" smooth="yes"/>
      <point x="38" y="181"/>
      <point x="23" y="150"/>
      <point x="23" y="111" type="curve" smooth="yes"/>
      <point x="23" y="60"/>
      <point x="60" y="-10"/>
      <point x="174" y="-10" type="curve" smooth="yes"/>
    </contour>
    <contour>
      <point x="391" y="166"/>
      <point x="416" y="186"/>
      <point x="416" y="208" type="curve" smooth="yes"/>
      <point x="416" y="234" type="line" smooth="yes"/>
      <point x="416" y="341"/>
      <point x="344" y="411"/>
      <point x="219" y="411" type="curve" smooth="yes"/>
      <point x="179" y="411"/>
      <point x="133" y="401"/>
      <point x="108" y="393" type="curve" smooth="yes"/>
      <point x="85" y="387"/>
      <point x="72" y="362"/>
      <point x="79" y="342" type="curve" smooth="yes"/>
      <point x="86" y="320"/>
      <point x="112" y="308"/>
      <point x="134" y="315" type="curve" smooth="yes"/>
      <point x="153" y="320"/>
      <point x="189" y="328"/>
      <point x="219" y="328" type="curve" smooth="yes"/>
      <point x="286" y="328"/>
      <point x="318" y="288"/>
      <point x="318" y="234" type="curve" smooth="yes"/>
      <point x="318" y="208" type="line" smooth="yes"/>
      <point x="318" y="186"/>
      <point x="343" y="166"/>
      <point x="367" y="166" type="curve" smooth="yes"/>
    </contour>
  </outline>
</glyph>
<glyph name="oslash" format="1">
  <advance width="525"/>
  <unicode hex="00F8"/>
  <outline>
    <contour>
      <point x="399" y="-14"/>
      <point x="491" y="75"/>
      <point x="491" y="196" type="curve" smooth="yes"/>
      <point x="491" y="320"/>
      <point x="398" y="415"/>
      <point x="259" y="415" type="curve" smooth="yes"/>
      <point x="119" y="415"/>
      <point x="28" y="319"/>
      <point x="28" y="197" type="curve" smooth="yes"/>
      <point x="28" y="76"/>
      <point x="121" y="-14"/>
      <point x="259" y="-14" type="curve" smooth="yes"/>
    </contour>
    <contour>
      <point x="68" y="-14"/>
      <point x="97" y="-14"/>
      <point x="114" y="2" type="curve" smooth="yes"/>
      <point x="472" y="341" type="line" smooth="yes"/>
      <point x="489" y="357"/>
      <point x="488" y="383"/>
      <point x="471" y="399" type="curve" smooth="yes"/>
      <point x="454" y="415"/>
      <point x="426" y="414"/>
      <point x="409" y="398" type="curve" smooth="yes"/>
      <point x="51" y="60" type="line" smooth="yes"/>
      <point x="34" y="43"/>
      <point x="34" y="18"/>
      <point x="51" y="2" type="curve" smooth="yes"/>
    </contour>
    <contour>
      <point x="175" y="68"/>
      <point x="126" y="128"/>
      <point x="126" y="197" type="curve" smooth="yes"/>
      <point x="126" y="268"/>
      <point x="173" y="332"/>
      <point x="259" y="332" type="curve" smooth="yes"/>
      <point x="346" y="332"/>
      <point x="393" y="267"/>
      <point x="393" y="196" type="curve" smooth="yes"/>
      <point x="393" y="127"/>
      <point x="343" y="68"/>
      <point x="259" y="68" type="curve" smooth="yes"/>
    </contour>
  </outline>
</glyph>
<glyph name="thorn" format="1">
  <advance width="518"/>
  <unicode hex="00FE"/>
  <outline>
    <contour>
      <point x="396" y="-9"/>
      <point x="491" y="78"/>
      <point x="491" y="201" type="curve" smooth="yes"/>
      <point x="491" y="344"/>
      <point x="387" y="411"/>
      <point x="281" y="411" type="curve" smooth="yes"/>
      <point x="200" y="411"/>
      <point x="127" y="366"/>
      <point x="69" y="289" type="curve" smooth="yes"/>
      <point x="56" y="271"/>
      <point x="62" y="244"/>
      <point x="82" y="230" type="curve" smooth="yes"/>
      <point x="101" y="218"/>
      <point x="131" y="222"/>
      <point x="145" y="240" type="curve" smooth="yes"/>
      <point x="181" y="289"/>
      <point x="226" y="328"/>
      <point x="281" y="328" type="curve" smooth="yes"/>
      <point x="345" y="328"/>
      <point x="393" y="278"/>
      <point x="393" y="201" type="curve" smooth="yes"/>
      <point x="393" y="132"/>
      <point x="346" y="73"/>
      <point x="268" y="73" type="curve" smooth="yes"/>
      <point x="221" y="73"/>
      <point x="174" y="97"/>
      <point x="135" y="128" type="curve" smooth="yes"/>
      <point x="116" y="141"/>
      <point x="87" y="138"/>
      <point x="72" y="122" type="curve" smooth="yes"/>
      <point x="57" y="104"/>
      <point x="59" y="77"/>
      <point x="77" y="64" type="curve" smooth="yes"/>
      <point x="134" y="19"/>
      <point x="203" y="-9"/>
      <point x="268" y="-9" type="curve" smooth="yes"/>
    </contour>
    <contour>
      <point x="130" y="-198"/>
      <point x="155" y="-180"/>
      <point x="155" y="-157" type="curve" smooth="yes"/>
      <point x="155" y="536" type="line" smooth="yes"/>
      <point x="155" y="559"/>
      <point x="130" y="578"/>
      <point x="106" y="578" type="curve" smooth="yes"/>
      <point x="82" y="578"/>
      <point x="57" y="559"/>
      <point x="57" y="536" type="curve" smooth="yes"/>
      <point x="57" y="-157" type="line" smooth="yes"/>
      <point x="57" y="-180"/>
      <point x="82" y="-198"/>
      <point x="106" y="-198" type="curve" smooth="yes"/>
    </contour>
  </outline>
</glyph>
<glyph name="Lcaron" format="1">
  <advance width="462"/>
  <unicode hex="013D"/>
  <outline>
    <contour>
      <point x="143" y="-13"/>
      <point x="168" y="5"/>
      <point x="168" y="29" type="curve" smooth="yes"/>
      <point x="168" y="507" type="line" smooth="yes"/>
      <point x="168" y="530"/>
      <point x="143" y="549"/>
      <point x="119" y="549" type="curve" smooth="yes"/>
      <point x="95" y="549"/>
      <point x="70" y="530"/>
      <point x="70" y="507" type="curve" smooth="yes"/>
      <point x="70" y="29" type="line" smooth="yes"/>
      <point x="70" y="5"/>
      <point x="95" y="-13"/>
      <point x="119" y="-13" type="curve" smooth="yes"/>
    </contour>
    <contour>
      <point x="404" y="-13" type="line" smooth="yes"/>
      <point x="428" y="-13"/>
      <point x="448" y="5"/>
      <point x="448" y="29" type="curve" smooth="yes"/>
      <point x="448" y="51"/>
      <point x="428" y="69"/>
      <point x="404" y="69" type="curve" smooth="yes"/>
      <point x="128" y="69" type="line" smooth="yes"/>
      <point x="104" y="69"/>
      <point x="84" y="51"/>
      <point x="84" y="29" type="curve" smooth="yes"/>
      <point x="84" y="5"/>
      <point x="104" y="-13"/>
      <point x="128" y="-13" type="curve" smooth="yes"/>
    </contour>
    <contour>
      <point x="323" y="339"/>
      <point x="351" y="354"/>
      <point x="354" y="377" type="curve" smooth="yes"/>
      <point x="375" y="513" type="line" smooth="yes"/>
      <point x="379" y="536"/>
      <point x="357" y="557"/>
      <point x="333" y="561" type="curve" smooth="yes"/>
      <point x="310" y="564"/>
      <point x="282" y="549"/>
      <point x="279" y="526" type="curve" smooth="yes"/>
      <point x="258" y="390" type="line" smooth="yes"/>
      <point x="254" y="367"/>
      <point x="276" y="346"/>
      <point x="300" y="342" type="curve" smooth="yes"/>
    </contour>
  </outline>
</glyph>
<glyph name="lslash" format="1">
  <advance width="236"/>
  <unicode hex="0142"/>
  <outline>
    <contour>
      <point x="142" y="-14"/>
      <point x="167" y="4"/>
      <point x="167" y="28" type="curve" smooth="yes"/>
      <point x="167" y="533" type="line" smooth="yes"/>
      <point x="167" y="555"/>
      <point x="142" y="574"/>
      <point x="118" y="574" type="curve" smooth="yes"/>
      <point x="94" y="574"/>
      <point x="69" y="555"/>
      <point x="69" y="533" type="curve" smooth="yes"/>
      <point x="69" y="28" type="line" smooth="yes"/>
      <point x="69" y="4"/>
      <point x="94" y="-14"/>
      <point x="118" y="-14" type="curve" smooth="yes"/>
    </contour>
    <contour>
      <point x="227" y="321" type="line" smooth="yes"/>
      <point x="246" y="334"/>
      <point x="251" y="360"/>
      <point x="237" y="379" type="curve" smooth="yes"/>
      <point x="223" y="397"/>
      <point x="194" y="402"/>
      <point x="175" y="389" type="curve" smooth="yes"/>
      <point x="11" y="278" type="line" smooth="yes"/>
      <point x="-8" y="264"/>
      <point x="-13" y="238"/>
      <point x="1" y="220" type="curve" smooth="yes"/>
      <point x="15" y="201"/>
      <point x="44" y="196"/>
      <point x="63" y="210" type="curve" smooth="yes"/>
    </contour>
  </outline>
</glyph>
<glyph name="OE" format="1">
  <advance width="832"/>
  <unicode hex="0152"/>
  <outline>
    <contour>
      <point x="528" y="-13" type="line"/>
      <point x="528" y="69" type="line"/>
      <point x="328" y="69" type="line" smooth="yes"/>
      <point x="207" y="69"/>
      <point x="129" y="160"/>
      <point x="129" y="265" type="curve" smooth="yes"/>
      <point x="129" y="380"/>
      <point x="205" y="466"/>
      <point x="328" y="466" type="curve" smooth="yes"/>
      <point x="528" y="466" type="line"/>
      <point x="528" y="549" type="line"/>
      <point x="328" y="549" type="line" smooth="yes"/>
      <point x="155" y="549"/>
      <point x="31" y="437"/>
      <point x="31" y="265" type="curve" smooth="yes"/>
      <point x="31" y="106"/>
      <point x="157" y="-13"/>
      <point x="328" y="-13" type="curve" smooth="yes"/>
    </contour>
    <contour>
      <point x="752" y="-13" type="line" smooth="yes"/>
      <point x="776" y="-13"/>
      <point x="796" y="5"/>
      <point x="796" y="29" type="curve" smooth="yes"/>
      <point x="796" y="51"/>
      <point x="776" y="69"/>
      <point x="752" y="69" type="curve" smooth="yes"/>
      <point x="468" y="69" type="line"/>
      <point x="468" y="-13" type="line"/>
    </contour>
    <contour>
      <point x="483" y="-13"/>
      <point x="508" y="5"/>
      <point x="508" y="29" type="curve" smooth="yes"/>
      <point x="508" y="507" type="line" smooth="yes"/>
      <point x="508" y="530"/>
      <point x="483" y="549"/>
      <point x="459" y="549" type="curve" smooth="yes"/>
      <point x="435" y="549"/>
      <point x="410" y="530"/>
      <point x="410" y="507" type="curve" smooth="yes"/>
      <point x="410" y="29" type="line" smooth="yes"/>
      <point x="410" y="5"/>
      <point x="435" y="-13"/>
      <point x="459" y="-13" type="curve" smooth="yes"/>
    </contour>
    <contour>
      <point x="705" y="245" type="line" smooth="yes"/>
      <point x="729" y="245"/>
      <point x="749" y="263"/>
      <point x="749" y="286" type="curve" smooth="yes"/>
      <point x="749" y="309"/>
      <point x="729" y="327"/>
      <point x="705" y="327" type="curve" smooth="yes"/>
      <point x="468" y="327" type="line"/>
      <point x="468" y="245" type="line"/>
    </contour>
    <contour>
      <point x="750" y="466" type="line" smooth="yes"/>
      <point x="774" y="466"/>
      <point x="794" y="485"/>
      <point x="794" y="507" type="curve" smooth="yes"/>
      <point x="794" y="530"/>
      <point x="774" y="549"/>
      <point x="750" y="549" type="curve" smooth="yes"/>
      <point x="468" y="549" type="line"/>
      <point x="468" y="466" type="line"/>
    </contour>
  </outline>
</glyph>
<glyph name="tbar" format="1">
  <advance width="352"/>
  <unicode hex="0167"/>
  <outline>
    <contour>
      <point x="306" y="-13"/>
      <point x="327" y="4"/>
      <point x="327" y="28" type="curve" smooth="yes"/>
      <point x="327" y="50"/>
      <point x="308" y="69"/>
      <point x="284" y="69" type="curve" smooth="yes"/>
      <point x="216" y="70"/>
      <point x="180" y="95"/>
      <point x="180" y="144" type="curve" smooth="yes"/>
      <point x="180" y="491" type="line" smooth="yes"/>
      <point x="180" y="514"/>
      <point x="155" y="533"/>
      <point x="131" y="533" type="curve" smooth="yes"/>
      <point x="107" y="533"/>
      <point x="82" y="514"/>
      <point x="82" y="491" type="curve" smooth="yes"/>
      <point x="82" y="144" type="line" smooth="yes"/>
      <point x="82" y="47"/>
      <point x="138" y="-10"/>
      <point x="282" y="-13" type="curve" smooth="yes"/>
    </contour>
    <contour>
      <point x="297" y="184" type="line" smooth="yes"/>
      <point x="321" y="184"/>
      <point x="341" y="202"/>
      <point x="341" y="225" type="curve" smooth="yes"/>
      <point x="341" y="248"/>
      <point x="321" y="266"/>
      <point x="297" y="266" type="curve" smooth="yes"/>
      <point x="42" y="266" type="line" smooth="yes"/>
      <point x="18" y="266"/>
      <point x="-2" y="248"/>
      <point x="-2" y="225" type="curve" smooth="yes"/>
      <point x="-2" y="202"/>
      <point x="18" y="184"/>
      <point x="42" y="184" type="curve" smooth="yes"/>
    </contour>
    <contour>
      <point x="297" y="325" type="line" smooth="yes"/>
      <point x="321" y="325"/>
      <point x="341" y="344"/>
      <point x="341" y="366" type="curve" smooth="yes"/>
      <point x="341" y="389"/>
      <point x="321" y="408"/>
      <point x="297" y="408" type="curve" smooth="yes"/>
      <point x="38" y="408" type="line" smooth="yes"/>
      <point x="14" y="408"/>
      <point x="-6" y="389"/>
      <point x="-6" y="366" type="curve" smooth="yes"/>
      <point x="-6" y="344"/>
      <point x="14" y="325"/>
      <point x="38" y="325" type="curve" smooth="yes"/>
    </contour>
  </outline>
</glyph>
<glyph name="uogonek" format="1">
  <advance width="502"/>
  <unicode hex="0173"/>
  <outline>
    <contour>
      <point x="291" y="-10"/>
      <point x="376" y="43"/>
      <point x="429" y="112" type="curve" smooth="yes"/>
      <point x="443" y="131"/>
      <point x="437" y="159"/>
      <point x="418" y="171" type="curve" smooth="yes"/>
      <point x="398" y="185"/>
      <point x="369" y="181"/>
      <point x="355" y="163" type="curve" smooth="yes"/>
      <point x="320" y="117"/>
      <point x="267" y="72"/>
      <point x="213" y="72" type="curve" smooth="yes"/>
      <point x="165" y="72"/>
      <point x="144" y="111"/>
      <point x="144" y="172" type="curve" smooth="yes"/>
      <point x="144" y="370" type="line" smooth="yes"/>
      <point x="144" y="392"/>
      <point x="119" y="411"/>
      <point x="95" y="411" type="curve" smooth="yes"/>
      <point x="71" y="411"/>
      <point x="46" y="392"/>
      <point x="46" y="370" type="curve" smooth="yes"/>
      <point x="46" y="172" type="line" smooth="yes"/>
      <point x="46" y="25"/>
      <point x="125" y="-10"/>
      <point x="213" y="-10" type="curve" smooth="yes"/>
    </contour>
    <contour>
      <point x="462" y="-241"/>
      <point x="481" y="-223"/>
      <point x="481" y="-202" type="curve" smooth="yes"/>
      <point x="481" y="-180"/>
      <point x="462" y="-163"/>
      <point x="438" y="-163" type="curve" smooth="yes"/>
      <point x="381" y="-163"/>
      <point x="364" y="-150"/>
      <point x="364" y="-133" type="curve" smooth="yes"/>
      <point x="364" y="-116"/>
      <point x="379" y="-98"/>
      <point x="429" y="-48" type="curve" smooth="yes"/>
      <point x="438" y="-39"/>
      <point x="445" y="-27"/>
      <point x="445" y="-15" type="curve" smooth="yes"/>
      <point x="445" y="66" type="line"/>
      <point x="347" y="66" type="line"/>
      <point x="347" y="-37" type="line"/>
      <point x="375" y="14" type="line"/>
      <point x="281" y="-68"/>
      <point x="271" y="-110"/>
      <point x="271" y="-143" type="curve" smooth="yes"/>
      <point x="271" y="-198"/>
      <point x="320" y="-241"/>
      <point x="438" y="-241" type="curve" smooth="yes"/>
    </contour>
    <contour>
      <point x="445" y="32" type="line"/>
      <point x="445" y="370" type="line" smooth="yes"/>
      <point x="445" y="392"/>
      <point x="420" y="411"/>
      <point x="396" y="411" type="curve" smooth="yes"/>
      <point x="372" y="411"/>
      <point x="347" y="392"/>
      <point x="347" y="370" type="curve" smooth="yes"/>
      <point x="347" y="32" type="line"/>
    </contour>
    <contour>
      <point x="402" y="44" type="move" name="ogonek"/>
    </contour>
    <contour>
      <point x="243" y="406" type="move" name="top"/>
    </contour>
  </outline>
</glyph>
<glyph name="florin" format="1">
  <advance width="329"/>
  <unicode hex="0192"/>
  <outline>
    <contour>
      <point x="137" y="-165"/>
      <point x="164" y="-149"/>
      <point x="167" y="-127" type="curve" smooth="yes"/>
      <point x="225" y="436" type="line" smooth="yes"/>
      <point x="229" y="482"/>
      <point x="253" y="516"/>
      <point x="322" y="519" type="curve" smooth="yes"/>
      <point x="345" y="521"/>
      <point x="364" y="541"/>
      <point x="363" y="564" type="curve" smooth="yes"/>
      <point x="361" y="585"/>
      <point x="340" y="603"/>
      <point x="316" y="602" type="curve" smooth="yes"/>
      <point x="187" y="595"/>
      <point x="137" y="535"/>
      <point x="127" y="445" type="curve" smooth="yes"/>
      <point x="69" y="-118" type="line" smooth="yes"/>
      <point x="67" y="-140"/>
      <point x="90" y="-161"/>
      <point x="114" y="-163" type="curve" smooth="yes"/>
    </contour>
    <contour>
      <point x="300" y="327" type="line" smooth="yes"/>
      <point x="324" y="327"/>
      <point x="344" y="347"/>
      <point x="344" y="369" type="curve" smooth="yes"/>
      <point x="344" y="391"/>
      <point x="324" y="410"/>
      <point x="300" y="410" type="curve" smooth="yes"/>
      <point x="62" y="410" type="line" smooth="yes"/>
      <point x="38" y="410"/>
      <point x="18" y="391"/>
      <point x="18" y="369" type="curve" smooth="yes"/>
      <point x="18" y="347"/>
      <point x="38" y="327"/>
      <point x="62" y="327" type="curve" smooth="yes"/>
    </contour>
  </outline>
</glyph>
<glyph name="acutecomb" format="1">
  <advance width="0"/>
  <unicode hex="0301"/>
  <outline>
    <contour>
      <point x="-14" y="463"/>
      <point x="15" y="464"/>
      <point x="31" y="481" type="curve" smooth="yes"/>
      <point x="59" y="511"/>
      <point x="86" y="544"/>
      <point x="115" y="573" type="curve" smooth="yes"/>
      <point x="131" y="589"/>
      <point x="129" y="618"/>
      <point x="112" y="633" type="curve" smooth="yes"/>
      <point x="94" y="649"/>
      <point x="66" y="647"/>
      <point x="49" y="630" type="curve" smooth="yes"/>
      <point x="19" y="600"/>
      <point x="-9" y="568"/>
      <point x="-37" y="538" type="curve" smooth="yes"/>
      <point x="-53" y="521"/>
      <point x="-50" y="493"/>
      <point x="-32" y="478" type="curve" smooth="yes"/>
    </contour>
    <contour>
      <point x="0" y="394" type="move" name="_top"/>
    </contour>
  </outline>
</glyph>
<glyph name="tildecomb" format="1">
  <advance width="0"/>
  <unicode hex="0303"/>
  <outline>
    <contour>
      <point x="89" y="471"/>
      <point x="121" y="487"/>
      <point x="154" y="535" type="curve" smooth="yes"/>
      <point x="167" y="554"/>
      <point x="160" y="581"/>
      <point x="141" y="594" type="curve" smooth="yes"/>
      <point x="121" y="607"/>
      <point x="98" y="602"/>
      <point x="80" y="584" type="curve" smooth="yes"/>
      <point x="66" y="570"/>
      <point x="57" y="560"/>
      <point x="50" y="560" type="curve" smooth="yes"/>
      <point x="41" y="560"/>
      <point x="37" y="562"/>
      <point x="26" y="570" type="curve" smooth="yes"/>
      <point x="-8" y="595"/>
      <point x="-27" y="605"/>
      <point x="-55" y="605" type="curve" smooth="yes"/>
      <point x="-86" y="605"/>
      <point x="-124" y="585"/>
      <point x="-154" y="541" type="curve" smooth="yes"/>
      <point x="-167" y="522"/>
      <point x="-160" y="496"/>
      <point x="-141" y="483" type="curve" smooth="yes"/>
      <point x="-121" y="469"/>
      <point x="-97" y="473"/>
      <point x="-78" y="492" type="curve" smooth="yes"/>
      <point x="-66" y="504"/>
      <point x="-56" y="515"/>
      <point x="-48" y="515" type="curve" smooth="yes"/>
      <point x="-40" y="515"/>
      <point x="-36" y="513"/>
      <point x="-24" y="504" type="curve" smooth="yes"/>
      <point x="6" y="481"/>
      <point x="30" y="471"/>
      <point x="56" y="471" type="curve" smooth="yes"/>
    </contour>
    <contour>
      <point x="0" y="394" type="move" name="_top"/>
    </contour>
  </outline>
</glyph>
<glyph name="uni0304" format="1">
  <advance width="0"/>
  <unicode hex="0304"/>
  <outline>
    <contour>
      <point x="104" y="502" type="line" smooth="yes"/>
      <point x="128" y="502"/>
      <point x="148" y="521"/>
      <point x="148" y="543" type="curve" smooth="yes"/>
      <point x="148" y="566"/>
      <point x="128" y="585"/>
      <point x="104" y="585" type="curve" smooth="yes"/>
      <point x="-107" y="585" type="line" smooth="yes"/>
      <point x="-131" y="585"/>
      <point x="-151" y="566"/>
      <point x="-151" y="543" type="curve" smooth="yes"/>
      <point x="-151" y="521"/>
      <point x="-131" y="502"/>
      <point x="-107" y="502" type="curve" smooth="yes"/>
    </contour>
    <contour>
      <point x="0" y="394" type="move" name="_top"/>
    </contour>
  </outline>
</glyph>
<glyph name="uni0307" format="1">
  <advance width="0"/>
  <unicode hex="0307"/>
  <outline>
    <contour>
      <point x="30" y="487"/>
      <point x="67" y="503"/>
      <point x="67" y="552" type="curve" smooth="yes"/>
      <point x="67" y="601"/>
      <point x="29" y="618"/>
      <point x="0" y="618" type="curve" smooth="yes"/>
      <point x="-34" y="618"/>
      <point x="-69" y="597"/>
      <point x="-69" y="552" type="curve" smooth="yes"/>
      <point x="-69" y="507"/>
      <point x="-36" y="487"/>
      <point x="0" y="487" type="curve" smooth="yes"/>
    </contour>
    <contour>
      <point x="0" y="394" type="move" name="_top"/>
    </contour>
  </outline>
</glyph>
<glyph name="uni030B" format="1">
  <advance width="0"/>
  <unicode hex="030B"/>
  <outline>
    <contour>
      <point x="78" y="460"/>
      <point x="107" y="469"/>
      <point x="117" y="490" type="curve" smooth="yes"/>
      <point x="129" y="516"/>
      <point x="140" y="545"/>
      <point x="163" y="576" type="curve" smooth="yes"/>
      <point x="176" y="594"/>
      <point x="169" y="622"/>
      <point x="149" y="635" type="curve" smooth="yes"/>
      <point x="130" y="647"/>
      <point x="100" y="642"/>
      <point x="87" y="624" type="curve" smooth="yes"/>
      <point x="61" y="588"/>
      <point x="43" y="556"/>
      <point x="29" y="524" type="curve" smooth="yes"/>
      <point x="20" y="503"/>
      <point x="33" y="476"/>
      <point x="56" y="468" type="curve" smooth="yes"/>
    </contour>
    <contour>
      <point x="-94" y="460"/>
      <point x="-65" y="470"/>
      <point x="-56" y="491" type="curve" smooth="yes"/>
      <point x="-45" y="517"/>
      <point x="-32" y="546"/>
      <point x="-10" y="577" type="curve" smooth="yes"/>
      <point x="3" y="595"/>
      <point x="-5" y="623"/>
      <point x="-25" y="635" type="curve" smooth="yes"/>
      <point x="-45" y="647"/>
      <point x="-75" y="642"/>
      <point x="-88" y="623" type="curve" smooth="yes"/>
      <point x="-113" y="587"/>
      <point x="-130" y="555"/>
      <point x="-144" y="523" type="curve" smooth="yes"/>
      <point x="-153" y="502"/>
      <point x="-138" y="476"/>
      <point x="-116" y="468" type="curve" smooth="yes"/>
    </contour>
    <contour>
      <point x="0" y="394" type="move" name="_top"/>
    </contour>
  </outline>
</glyph>
<glyph name="uni0326" format="1">
  <advance width="0"/>
  <unicode hex="0326"/>
  <outline>
    <contour>
      <point x="20" y="-264"/>
      <point x="58" y="-217"/>
      <point x="58" y="-167" type="curve" smooth="yes"/>
      <point x="58" y="-141"/>
      <point x="52" y="-122"/>
      <point x="41" y="-108" type="curve" smooth="yes"/>
      <point x="24" y="-86"/>
      <point x="-3" y="-84"/>
      <point x="-23" y="-96" type="curve" smooth="yes"/>
      <point x="-44" y="-108"/>
      <point x="-51" y="-133"/>
      <point x="-39" y="-152" type="curve" smooth="yes"/>
      <point x="-36" y="-157"/>
      <point x="-34" y="-163"/>
      <point x="-34" y="-170" type="curve" smooth="yes"/>
      <point x="-34" y="-192"/>
      <point x="-60" y="-209"/>
      <point x="-89" y="-222" type="curve" smooth="yes"/>
      <point x="-111" y="-232"/>
      <point x="-121" y="-257"/>
      <point x="-111" y="-277" type="curve" smooth="yes"/>
      <point x="-101" y="-298"/>
      <point x="-72" y="-303"/>
      <point x="-51" y="-294" type="curve" smooth="yes"/>
    </contour>
    <contour>
      <point x="-1" y="0" type="move" name="_bottom"/>
    </contour>
  </outline>
</glyph>
<glyph name="uni0964" format="1">
  <advance width="322"/>
  <unicode hex="0964"/>
  <outline>
    <contour>
      <point x="238" y="-12"/>
      <point x="259" y="12"/>
      <point x="259" y="44" type="curve" smooth="yes"/>
      <point x="259" y="593" type="line" smooth="yes"/>
      <point x="259" y="625"/>
      <point x="238" y="649"/>
      <point x="211" y="649" type="curve" smooth="yes"/>
      <point x="184" y="649"/>
      <point x="164" y="625"/>
      <point x="164" y="593" type="curve" smooth="yes"/>
      <point x="164" y="44" type="line" smooth="yes"/>
      <point x="164" y="12"/>
      <point x="184" y="-12"/>
      <point x="211" y="-12" type="curve" smooth="yes"/>
    </contour>
  </outline>
</glyph>
<glyph name="uni0985" format="1">
  <advance width="732"/>
  <unicode hex="0985"/>
  <outline>
    <contour>
      <point x="645" y="-11"/>
      <point x="666" y="13"/>
      <point x="666" y="45" type="curve" smooth="yes"/>
      <point x="666" y="435" type="line" smooth="yes"/>
      <point x="666" y="491"/>
      <point x="666" y="502"/>
      <point x="700" y="502" type="curve" smooth="yes"/>
      <point x="732" y="502" type="line" smooth="yes"/>
      <point x="758" y="502"/>
      <point x="778" y="520"/>
      <point x="778" y="545" type="curve" smooth="yes"/>
      <point x="778" y="569"/>
      <point x="758" y="587"/>
      <point x="732" y="587" type="curve" smooth="yes"/>
      <point x="677" y="587" type="line" smooth="yes"/>
      <point x="621" y="587"/>
      <point x="587" y="557"/>
      <point x="587" y="502" type="curve"/>
      <point x="608" y="502" type="line"/>
      <point x="608" y="558"/>
      <point x="571" y="587"/>
      <point x="512" y="587" type="curve" smooth="yes"/>
      <point x="0" y="587" type="line" smooth="yes"/>
      <point x="-26" y="587"/>
      <point x="-46" y="569"/>
      <point x="-46" y="545" type="curve" smooth="yes"/>
      <point x="-46" y="520"/>
      <point x="-26" y="502"/>
      <point x="0" y="502" type="curve" smooth="yes"/>
      <point x="499" y="502" type="line" smooth="yes"/>
      <point x="554" y="502"/>
      <point x="571" y="485"/>
      <point x="571" y="441" type="curve" smooth="yes"/>
      <point x="571" y="45" type="line" smooth="yes"/>
      <point x="571" y="13"/>
      <point x="591" y="-11"/>
      <point x="618" y="-11" type="curve" smooth="yes"/>
    </contour>
    <contour>
      <point x="435" y="59"/>
      <point x="519" y="155"/>
      <point x="519" y="272" type="curve" smooth="yes"/>
      <point x="519" y="395"/>
      <point x="425" y="480"/>
      <point x="319" y="480" type="curve" smooth="yes"/>
      <point x="242" y="480"/>
      <point x="184" y="435"/>
      <point x="184" y="362" type="curve" smooth="yes"/>
      <point x="184" y="294"/>
      <point x="235" y="245"/>
      <point x="303" y="245" type="curve" smooth="yes"/>
      <point x="374" y="245"/>
      <point x="410" y="299"/>
      <point x="410" y="350" type="curve" smooth="yes"/>
      <point x="410" y="410"/>
      <point x="370" y="450"/>
      <point x="307" y="450" type="curve"/>
      <point x="324" y="408" type="line"/>
      <point x="364" y="408"/>
      <point x="428" y="383"/>
      <point x="428" y="300" type="curve" smooth="yes"/>
      <point x="428" y="234"/>
      <point x="383" y="175"/>
      <point x="302" y="175" type="curve" smooth="yes"/>
      <point x="185" y="175"/>
      <point x="132" y="296"/>
      <point x="90" y="412" type="curve" smooth="yes"/>
      <point x="80" y="441"/>
      <point x="68" y="453"/>
      <point x="46" y="453" type="curve" smooth="yes"/>
      <point x="15" y="453"/>
      <point x="3" y="429"/>
      <point x="3" y="402" type="curve" smooth="yes"/>
      <point x="3" y="342"/>
      <point x="88" y="59"/>
      <point x="307" y="59" type="curve" smooth="yes"/>
    </contour>
    <contour>
      <point x="624" y="48" type="line"/>
      <point x="624" y="156"/>
      <point x="536" y="256"/>
      <point x="498" y="280" type="curve"/>
      <point x="465" y="183" type="line"/>
      <point x="512" y="152"/>
      <point x="571" y="111"/>
      <point x="571" y="48" type="curve"/>
    </contour>
    <contour>
      <point x="302" y="334"/>
      <point x="288" y="349"/>
      <point x="288" y="364" type="curve" smooth="yes"/>
      <point x="288" y="380"/>
      <point x="302" y="393"/>
      <point x="318" y="393" type="curve" smooth="yes"/>
      <point x="334" y="393"/>
      <point x="347" y="380"/>
      <point x="347" y="364" type="curve" smooth="yes"/>
      <point x="347" y="349"/>
      <point x="334" y="334"/>
      <point x="318" y="334" type="curve" smooth="yes"/>
    </contour>
  </outline>
</glyph>
<glyph name="uni0990" format="1">
  <advance width="700"/>
  <unicode hex="0990"/>
  <outline>
    <contour>
      <point x="466" y="249" type="line"/>
      <point x="577" y="249"/>
      <point x="680" y="364"/>
      <point x="680" y="480" type="curve" smooth="yes"/>
      <point x="680" y="620"/>
      <point x="578" y="684"/>
      <point x="476" y="728" type="curve"/>
      <point x="383" y="766"/>
      <point x="317" y="785"/>
      <point x="298" y="844" type="curve"/>
      <point x="291" y="870"/>
      <point x="288" y="910"/>
      <point x="253" y="910" type="curve" smooth="yes"/>
      <point x="230" y="910"/>
      <point x="212" y="891"/>
      <point x="212" y="853" type="curve" smooth="yes"/>
      <point x="212" y="763"/>
      <point x="298" y="700"/>
      <point x="399" y="659" type="curve" smooth="yes"/>
      <point x="521" y="609"/>
      <point x="597" y="577"/>
      <point x="597" y="496" type="curve" smooth="yes"/>
      <point x="597" y="419"/>
      <point x="530" y="369"/>
      <point x="466" y="369" type="curve"/>
    </contour>
    <contour>
      <point x="515" y="-12"/>
      <point x="532" y="16"/>
      <point x="532" y="46" type="curve" smooth="yes"/>
      <point x="532" y="468" type="line" smooth="yes"/>
      <point x="532" y="545"/>
      <point x="488" y="595"/>
      <point x="420" y="595" type="curve" smooth="yes"/>
      <point x="302" y="595"/>
      <point x="162" y="447"/>
      <point x="162" y="329" type="curve" smooth="yes"/>
      <point x="162" y="262"/>
      <point x="208" y="213"/>
      <point x="278" y="213" type="curve" smooth="yes"/>
      <point x="350" y="213"/>
      <point x="388" y="264"/>
      <point x="388" y="313" type="curve" smooth="yes"/>
      <point x="388" y="360"/>
      <point x="354" y="414"/>
      <point x="291" y="414" type="curve" smooth="yes"/>
      <point x="243" y="414"/>
      <point x="211" y="379"/>
      <point x="211" y="357" type="curve"/>
      <point x="271" y="365" type="line"/>
      <point x="271" y="439"/>
      <point x="375" y="502"/>
      <point x="410" y="502" type="curve" smooth="yes"/>
      <point x="441" y="502"/>
      <point x="437" y="481"/>
      <point x="437" y="435" type="curve" smooth="yes"/>
      <point x="437" y="100" type="line"/>
      <point x="449" y="100" type="line"/>
      <point x="435" y="154"/>
      <point x="388" y="180"/>
      <point x="344" y="180" type="curve" smooth="yes"/>
      <point x="295" y="180"/>
      <point x="239" y="149"/>
      <point x="192" y="149" type="curve" smooth="yes"/>
      <point x="163" y="149"/>
      <point x="99" y="161"/>
      <point x="99" y="233" type="curve" smooth="yes"/>
      <point x="99" y="276"/>
      <point x="122" y="304"/>
      <point x="122" y="338" type="curve" smooth="yes"/>
      <point x="122" y="369"/>
      <point x="103" y="380"/>
      <point x="82" y="380" type="curve" smooth="yes"/>
      <point x="39" y="380"/>
      <point x="3" y="309"/>
      <point x="3" y="242" type="curve" smooth="yes"/>
      <point x="3" y="139"/>
      <point x="65" y="44"/>
      <point x="193" y="44" type="curve" smooth="yes"/>
      <point x="268" y="44"/>
      <point x="315" y="76"/>
      <point x="370" y="76" type="curve" smooth="yes"/>
      <point x="379" y="76"/>
      <point x="410" y="75"/>
      <point x="427" y="37" type="curve" smooth="yes"/>
      <point x="437" y="15"/>
      <point x="450" y="-12"/>
      <point x="482" y="-12" type="curve" smooth="yes"/>
    </contour>
    <contour>
      <point x="263" y="294"/>
      <point x="250" y="305"/>
      <point x="250" y="323" type="curve" smooth="yes"/>
      <point x="250" y="341"/>
      <point x="263" y="352"/>
      <point x="280" y="352" type="curve" smooth="yes"/>
      <point x="296" y="352"/>
      <point x="308" y="341"/>
      <point x="308" y="323" type="curve" smooth="yes"/>
      <point x="308" y="305"/>
      <point x="296" y="294"/>
      <point x="280" y="294" type="curve" smooth="yes"/>
    </contour>
  </outline>
</glyph>
<glyph name="uni0993" format="1">
  <advance width="577"/>
  <unicode hex="0993"/>
  <outline>
    <contour>
      <point x="465" y="29"/>
      <point x="556" y="117"/>
      <point x="556" y="221" type="curve" smooth="yes"/>
      <point x="556" y="307"/>
      <point x="495" y="396"/>
      <point x="392" y="396" type="curve" smooth="yes"/>
      <point x="313" y="396"/>
      <point x="281" y="344"/>
      <point x="281" y="301" type="curve" smooth="yes"/>
      <point x="281" y="252"/>
      <point x="322" y="217"/>
      <point x="376" y="217" type="curve" smooth="yes"/>
      <point x="471" y="217"/>
      <point x="529" y="324"/>
      <point x="529" y="419" type="curve" smooth="yes"/>
      <point x="529" y="532"/>
      <point x="448" y="607"/>
      <point x="328" y="607" type="curve" smooth="yes"/>
      <point x="197" y="607"/>
      <point x="113" y="518"/>
      <point x="113" y="433" type="curve" smooth="yes"/>
      <point x="113" y="373"/>
      <point x="156" y="321"/>
      <point x="218" y="321" type="curve" smooth="yes"/>
      <point x="281" y="321"/>
      <point x="313" y="374"/>
      <point x="313" y="414" type="curve" smooth="yes"/>
      <point x="313" y="453"/>
      <point x="283" y="506"/>
      <point x="231" y="506" type="curve" smooth="yes"/>
      <point x="214" y="506"/>
      <point x="189" y="500"/>
      <point x="173" y="485" type="curve"/>
      <point x="231" y="470" type="line"/>
      <point x="255" y="496"/>
      <point x="298" y="512"/>
      <point x="336" y="512" type="curve" smooth="yes"/>
      <point x="391" y="512"/>
      <point x="443" y="477"/>
      <point x="443" y="408" type="curve" smooth="yes"/>
      <point x="443" y="359"/>
      <point x="417" y="292"/>
      <point x="375" y="292" type="curve" smooth="yes"/>
      <point x="363" y="292"/>
      <point x="351" y="297"/>
      <point x="351" y="305" type="curve" smooth="yes"/>
      <point x="351" y="312"/>
      <point x="361" y="321"/>
      <point x="380" y="321" type="curve" smooth="yes"/>
      <point x="411" y="321"/>
      <point x="461" y="295"/>
      <point x="461" y="242" type="curve" smooth="yes"/>
      <point x="461" y="188"/>
      <point x="410" y="139"/>
      <point x="324" y="139" type="curve" smooth="yes"/>
      <point x="151" y="139"/>
      <point x="101" y="330"/>
      <point x="81" y="435" type="curve" smooth="yes"/>
      <point x="76" y="461"/>
      <point x="67" y="485"/>
      <point x="40" y="485" type="curve" smooth="yes"/>
      <point x="19" y="485"/>
      <point x="-1" y="473"/>
      <point x="-1" y="418" type="curve" smooth="yes"/>
      <point x="-1" y="289"/>
      <point x="99" y="29"/>
      <point x="330" y="29" type="curve" smooth="yes"/>
    </contour>
    <contour>
      <point x="205" y="406"/>
      <point x="193" y="418"/>
      <point x="193" y="432" type="curve" smooth="yes"/>
      <point x="193" y="446"/>
      <point x="205" y="458"/>
      <point x="219" y="458" type="curve" smooth="yes"/>
      <point x="233" y="458"/>
      <point x="245" y="446"/>
      <point x="245" y="432" type="curve" smooth="yes"/>
      <point x="245" y="418"/>
      <point x="233" y="406"/>
      <point x="219" y="406" type="curve" smooth="yes"/>
    </contour>
  </outline>
</glyph>
<glyph name="uni0994" format="1">
  <advance width="660"/>
  <unicode hex="0994"/>
  <outline>
    <contour>
      <point x="442" y="268" type="line"/>
      <point x="559" y="268"/>
      <point x="650" y="364"/>
      <point x="650" y="480" type="curve" smooth="yes"/>
      <point x="650" y="620"/>
      <point x="548" y="684"/>
      <point x="446" y="728" type="curve"/>
      <point x="353" y="766"/>
      <point x="287" y="785"/>
      <point x="268" y="844" type="curve"/>
      <point x="261" y="870"/>
      <point x="258" y="910"/>
      <point x="223" y="910" type="curve" smooth="yes"/>
      <point x="200" y="910"/>
      <point x="182" y="891"/>
      <point x="182" y="853" type="curve" smooth="yes"/>
      <point x="182" y="763"/>
      <point x="268" y="700"/>
      <point x="369" y="659" type="curve" smooth="yes"/>
      <point x="491" y="609"/>
      <point x="567" y="577"/>
      <point x="567" y="481" type="curve" smooth="yes"/>
      <point x="567" y="411"/>
      <point x="500" y="369"/>
      <point x="442" y="369" type="curve"/>
    </contour>
    <contour>
      <point x="465" y="29"/>
      <point x="556" y="117"/>
      <point x="556" y="221" type="curve" smooth="yes"/>
      <point x="556" y="307"/>
      <point x="495" y="396"/>
      <point x="392" y="396" type="curve" smooth="yes"/>
      <point x="313" y="396"/>
      <point x="281" y="344"/>
      <point x="281" y="301" type="curve" smooth="yes"/>
      <point x="281" y="252"/>
      <point x="322" y="217"/>
      <point x="376" y="217" type="curve" smooth="yes"/>
      <point x="471" y="217"/>
      <point x="529" y="324"/>
      <point x="529" y="419" type="curve" smooth="yes"/>
      <point x="529" y="532"/>
      <point x="448" y="607"/>
      <point x="328" y="607" type="curve" smooth="yes"/>
      <point x="197" y="607"/>
      <point x="113" y="518"/>
      <point x="113" y="433" type="curve" smooth="yes"/>
      <point x="113" y="373"/>
      <point x="156" y="321"/>
      <point x="218" y="321" type="curve" smooth="yes"/>
      <point x="281" y="321"/>
      <point x="313" y="374"/>
      <point x="313" y="414" type="curve" smooth="yes"/>
      <point x="313" y="453"/>
      <point x="283" y="506"/>
      <point x="231" y="506" type="curve" smooth="yes"/>
      <point x="214" y="506"/>
      <point x="189" y="500"/>
      <point x="173" y="485" type="curve"/>
      <point x="231" y="470" type="line"/>
      <point x="255" y="496"/>
      <point x="298" y="512"/>
      <point x="336" y="512" type="curve" smooth="yes"/>
      <point x="391" y="512"/>
      <point x="443" y="477"/>
      <point x="443" y="408" type="curve" smooth="yes"/>
      <point x="443" y="359"/>
      <point x="417" y="292"/>
      <point x="375" y="292" type="curve" smooth="yes"/>
      <point x="363" y="292"/>
      <point x="351" y="297"/>
      <point x="351" y="305" type="curve" smooth="yes"/>
      <point x="351" y="312"/>
      <point x="361" y="321"/>
      <point x="380" y="321" type="curve" smooth="yes"/>
      <point x="411" y="321"/>
      <point x="461" y="295"/>
      <point x="461" y="242" type="curve" smooth="yes"/>
      <point x="461" y="188"/>
      <point x="410" y="139"/>
      <point x="324" y="139" type="curve" smooth="yes"/>
      <point x="151" y="139"/>
      <point x="101" y="330"/>
      <point x="81" y="435" type="curve" smooth="yes"/>
      <point x="76" y="461"/>
      <point x="67" y="485"/>
      <point x="40" y="485" type="curve" smooth="yes"/>
      <point x="19" y="485"/>
      <point x="-1" y="473"/>
      <point x="-1" y="418" type="curve" smooth="yes"/>
      <point x="-1" y="289"/>
      <point x="99" y="29"/>
      <point x="330" y="29" type="curve" smooth="yes"/>
    </contour>
    <contour>
      <point x="205" y="406"/>
      <point x="193" y="418"/>
      <point x="193" y="432" type="curve" smooth="yes"/>
      <point x="193" y="446"/>
      <point x="205" y="458"/>
      <point x="219" y="458" type="curve" smooth="yes"/>
      <point x="233" y="458"/>
      <point x="245" y="446"/>
      <point x="245" y="432" type="curve" smooth="yes"/>
      <point x="245" y="418"/>
      <point x="233" y="406"/>
      <point x="219" y="406" type="curve" smooth="yes"/>
    </contour>
  </outline>
</glyph>
<glyph name="uni09AD" format="1">
  <advance width="571"/>
  <unicode hex="09AD"/>
  <outline>
    <contour>
      <point x="467" y="21"/>
      <point x="543" y="138"/>
      <point x="543" y="244" type="curve" smooth="yes"/>
      <point x="543" y="319"/>
      <point x="519" y="409"/>
      <point x="467" y="409" type="curve" smooth="yes"/>
      <point x="443" y="409"/>
      <point x="429" y="392"/>
      <point x="431" y="360" type="curve" smooth="yes"/>
      <point x="434" y="329"/>
      <point x="392" y="279"/>
      <point x="338" y="279" type="curve" smooth="yes"/>
      <point x="314" y="279"/>
      <point x="274" y="289"/>
      <point x="245" y="330" type="curve"/>
      <point x="205" y="316" type="line"/>
      <point x="214" y="291"/>
      <point x="247" y="275"/>
      <point x="281" y="275" type="curve" smooth="yes"/>
      <point x="336" y="275"/>
      <point x="380" y="324"/>
      <point x="380" y="375" type="curve" smooth="yes"/>
      <point x="380" y="433"/>
      <point x="337" y="474"/>
      <point x="273" y="474" type="curve" smooth="yes"/>
      <point x="217" y="474"/>
      <point x="159" y="436"/>
      <point x="159" y="360" type="curve" smooth="yes"/>
      <point x="159" y="257"/>
      <point x="247" y="188"/>
      <point x="335" y="188" type="curve" smooth="yes"/>
      <point x="424" y="188"/>
      <point x="482" y="263"/>
      <point x="482" y="319" type="curve"/>
      <point x="464" y="305" type="line"/>
      <point x="466" y="294"/>
      <point x="467" y="283"/>
      <point x="467" y="273" type="curve" smooth="yes"/>
      <point x="467" y="194"/>
      <point x="409" y="128"/>
      <point x="321" y="128" type="curve" smooth="yes"/>
      <point x="213" y="128"/>
      <point x="122" y="249"/>
      <point x="94" y="388" type="curve" smooth="yes"/>
      <point x="87" y="421"/>
      <point x="69" y="440"/>
      <point x="44" y="440" type="curve" smooth="yes"/>
      <point x="20" y="440"/>
      <point x="5" y="414"/>
      <point x="5" y="393" type="curve" smooth="yes"/>
      <point x="5" y="278"/>
      <point x="118" y="21"/>
      <point x="324" y="21" type="curve" smooth="yes"/>
    </contour>
    <contour>
      <point x="253" y="332"/>
      <point x="238" y="344"/>
      <point x="238" y="362" type="curve" smooth="yes"/>
      <point x="238" y="380"/>
      <point x="254" y="390"/>
      <point x="267" y="390" type="curve" smooth="yes"/>
      <point x="281" y="390"/>
      <point x="296" y="379"/>
      <point x="296" y="360" type="curve" smooth="yes"/>
      <point x="296" y="340"/>
      <point x="277" y="332"/>
      <point x="267" y="332" type="curve" smooth="yes"/>
    </contour>
    <contour>
      <point x="571" y="502" type="line" smooth="yes"/>
      <point x="582" y="502"/>
      <point x="612" y="509"/>
      <point x="612" y="545" type="curve" smooth="yes"/>
      <point x="612" y="578"/>
      <point x="584" y="587"/>
      <point x="571" y="587" type="curve" smooth="yes"/>
      <point x="0" y="587" type="line" smooth="yes"/>
      <point x="-18" y="587"/>
      <point x="-45" y="578"/>
      <point x="-45" y="545" type="curve" smooth="yes"/>
      <point x="-45" y="509"/>
      <point x="-18" y="502"/>
      <point x="0" y="502" type="curve" smooth="yes"/>
    </contour>
  </outline>
</glyph>
<glyph name="uni09C3" format="1">
  <advance width="0"/>
  <unicode hex="09C3"/>
  <outline>
    <contour>
      <point x="-48" y="-193"/>
      <point x="-35" y="-185"/>
      <point x="-35" y="-160" type="curve" smooth="yes"/>
      <point x="-35" y="-131"/>
      <point x="-50" y="-118"/>
      <point x="-72" y="-104" type="curve" smooth="yes"/>
      <point x="-213" y="-9" type="line"/>
      <point x="-219" y="-48" type="line"/>
      <point x="-101" y="-9" type="line" smooth="yes"/>
      <point x="-80" y="-2"/>
      <point x="-66" y="18"/>
      <point x="-66" y="40" type="curve" smooth="yes"/>
      <point x="-66" y="125" type="line" smooth="yes"/>
      <point x="-66" y="157"/>
      <point x="-87" y="181"/>
      <point x="-114" y="181" type="curve" smooth="yes"/>
      <point x="-141" y="181"/>
      <point x="-161" y="157"/>
      <point x="-161" y="125" type="curve" smooth="yes"/>
      <point x="-161" y="12" type="line"/>
      <point x="-132" y="67" type="line"/>
      <point x="-263" y="22" type="line" smooth="yes"/>
      <point x="-286" y="14"/>
      <point x="-298" y="0"/>
      <point x="-298" y="-17" type="curve" smooth="yes"/>
      <point x="-298" y="-51"/>
      <point x="-273" y="-61"/>
      <point x="-243" y="-81" type="curve" smooth="yes"/>
      <point x="-180" y="-123"/>
      <point x="-90" y="-193"/>
      <point x="-63" y="-193" type="curve" smooth="yes"/>
    </contour>
  </outline>
</glyph>
<glyph name="uni09C8" format="1">
  <advance width="292"/>
  <unicode hex="09C8"/>
  <outline>
    <contour>
      <point x="289" y="-12"/>
      <point x="320" y="38"/>
      <point x="320" y="82" type="curve" smooth="yes"/>
      <point x="320" y="131"/>
      <point x="283" y="174"/>
      <point x="229" y="174" type="curve" smooth="yes"/>
      <point x="176" y="174"/>
      <point x="136" y="132"/>
      <point x="136" y="87" type="curve" smooth="yes"/>
      <point x="136" y="46"/>
      <point x="168" y="8"/>
      <point x="202" y="8" type="curve"/>
      <point x="199" y="29" type="line"/>
      <point x="145" y="71"/>
      <point x="121" y="149"/>
      <point x="121" y="196" type="curve" smooth="yes"/>
      <point x="121" y="271"/>
      <point x="183" y="366"/>
      <point x="202" y="397" type="curve" smooth="yes"/>
      <point x="252" y="478"/>
      <point x="285" y="552"/>
      <point x="285" y="615" type="curve" smooth="yes"/>
      <point x="285" y="688"/>
      <point x="241" y="735"/>
      <point x="170" y="735" type="curve" smooth="yes"/>
      <point x="123" y="735"/>
      <point x="97" y="714"/>
      <point x="60" y="714" type="curve" smooth="yes"/>
      <point x="19" y="714"/>
      <point x="10" y="741"/>
      <point x="4" y="764" type="curve" smooth="yes"/>
      <point x="-1" y="782"/>
      <point x="-11" y="798"/>
      <point x="-33" y="798" type="curve" smooth="yes"/>
      <point x="-51" y="798"/>
      <point x="-64" y="787"/>
      <point x="-64" y="754" type="curve" smooth="yes"/>
      <point x="-64" y="693"/>
      <point x="-18" y="630"/>
      <point x="59" y="630" type="curve" smooth="yes"/>
      <point x="97" y="630"/>
      <point x="140" y="646"/>
      <point x="170" y="646" type="curve" smooth="yes"/>
      <point x="201" y="646"/>
      <point x="210" y="628"/>
      <point x="210" y="612" type="curve" smooth="yes"/>
      <point x="210" y="588"/>
      <point x="189" y="545"/>
      <point x="170" y="519" type="curve"/>
      <point x="188" y="515" type="line"/>
      <point x="188" y="548"/>
      <point x="164" y="587"/>
      <point x="103" y="587" type="curve" smooth="yes"/>
      <point x="0" y="587" type="line" smooth="yes"/>
      <point x="-26" y="587"/>
      <point x="-46" y="569"/>
      <point x="-46" y="545" type="curve" smooth="yes"/>
      <point x="-46" y="521"/>
      <point x="-26" y="502"/>
      <point x="0" y="502" type="curve" smooth="yes"/>
      <point x="89" y="502" type="line" smooth="yes"/>
      <point x="117" y="502"/>
      <point x="145" y="504"/>
      <point x="145" y="484" type="curve" smooth="yes"/>
      <point x="145" y="443"/>
      <point x="28" y="358"/>
      <point x="28" y="214" type="curve" smooth="yes"/>
      <point x="28" y="81"/>
      <point x="129" y="-12"/>
      <point x="221" y="-12" type="curve" smooth="yes"/>
    </contour>
    <contour>
      <point x="208" y="58"/>
      <point x="196" y="67"/>
      <point x="196" y="82" type="curve" smooth="yes"/>
      <point x="196" y="96"/>
      <point x="206" y="106"/>
      <point x="220" y="106" type="curve" smooth="yes"/>
      <point x="235" y="106"/>
      <point x="244" y="95"/>
      <point x="244" y="81" type="curve" smooth="yes"/>
      <point x="244" y="66"/>
      <point x="232" y="58"/>
      <point x="220" y="58" type="curve" smooth="yes"/>
    </contour>
  </outline>
</glyph>
<glyph name="uni09CD" format="1">
  <advance width="0"/>
  <unicode hex="09CD"/>
  <outline>
    <contour>
      <point x="57" y="-209"/>
      <point x="67" y="-196"/>
      <point x="67" y="-184" type="curve" smooth="yes"/>
      <point x="67" y="-142"/>
      <point x="-38" y="-46"/>
      <point x="-115" y="-46" type="curve" smooth="yes"/>
      <point x="-141" y="-46"/>
      <point x="-202" y="-61"/>
      <point x="-202" y="-104" type="curve" smooth="yes"/>
      <point x="-202" y="-123"/>
      <point x="-192" y="-140"/>
      <point x="-165" y="-140" type="curve" smooth="yes"/>
      <point x="-146" y="-140"/>
      <point x="-127" y="-128"/>
      <point x="-105" y="-128" type="curve" smooth="yes"/>
      <point x="-81" y="-128"/>
      <point x="-56" y="-147"/>
      <point x="-24" y="-179" type="curve" smooth="yes"/>
      <point x="-4" y="-199"/>
      <point x="12" y="-209"/>
      <point x="33" y="-209" type="curve" smooth="yes"/>
    </contour>
  </outline>
</glyph>
<glyph name="uni09D7" format="1">
  <advance width="220"/>
  <unicode hex="09D7"/>
  <outline>
    <contour>
      <point x="151" y="441" type="line"/>
      <point x="151" y="517"/>
      <point x="162" y="561"/>
      <point x="162" y="602" type="curve" smooth="yes"/>
      <point x="162" y="739"/>
      <point x="74" y="765"/>
      <point x="-84" y="787" type="curve" smooth="yes"/>
      <point x="-163" y="798"/>
      <point x="-169" y="828"/>
      <point x="-178" y="865" type="curve" smooth="yes"/>
      <point x="-185" y="893"/>
      <point x="-203" y="902"/>
      <point x="-222" y="902" type="curve" smooth="yes"/>
      <point x="-238" y="902"/>
      <point x="-260" y="889"/>
      <point x="-260" y="853" type="curve" smooth="yes"/>
      <point x="-260" y="767"/>
      <point x="-192" y="708"/>
      <point x="-88" y="688" type="curve" smooth="yes"/>
      <point x="21" y="667"/>
      <point x="79" y="679"/>
      <point x="79" y="589" type="curve" smooth="yes"/>
      <point x="79" y="548"/>
      <point x="66" y="518"/>
      <point x="66" y="441" type="curve"/>
    </contour>
    <contour>
      <point x="133" y="-11"/>
      <point x="154" y="13"/>
      <point x="154" y="45" type="curve" smooth="yes"/>
      <point x="154" y="435" type="line" smooth="yes"/>
      <point x="154" y="491"/>
      <point x="154" y="502"/>
      <point x="188" y="502" type="curve" smooth="yes"/>
      <point x="220" y="502" type="line" smooth="yes"/>
      <point x="246" y="502"/>
      <point x="266" y="520"/>
      <point x="266" y="545" type="curve" smooth="yes"/>
      <point x="266" y="569"/>
      <point x="246" y="587"/>
      <point x="220" y="587" type="curve" smooth="yes"/>
      <point x="165" y="587" type="line" smooth="yes"/>
      <point x="109" y="587"/>
      <point x="85" y="557"/>
      <point x="85" y="502" type="curve"/>
      <point x="96" y="502" type="line"/>
      <point x="96" y="558"/>
      <point x="59" y="587"/>
      <point x="20" y="587" type="curve" smooth="yes"/>
      <point x="0" y="587" type="line" smooth="yes"/>
      <point x="-26" y="587"/>
      <point x="-46" y="569"/>
      <point x="-46" y="545" type="curve" smooth="yes"/>
      <point x="-46" y="520"/>
      <point x="-26" y="502"/>
      <point x="0" y="502" type="curve" smooth="yes"/>
      <point x="27" y="502" type="line" smooth="yes"/>
      <point x="49" y="502"/>
      <point x="59" y="492"/>
      <point x="59" y="441" type="curve" smooth="yes"/>
      <point x="59" y="45" type="line" smooth="yes"/>
      <point x="59" y="13"/>
      <point x="79" y="-11"/>
      <point x="106" y="-11" type="curve" smooth="yes"/>
    </contour>
  </outline>
</glyph>
<glyph name="uni09E6" format="1">
  <advance width="522"/>
  <unicode hex="09E6"/>
  <outline>
    <contour>
      <point x="392" y="36"/>
      <point x="481" y="140"/>
      <point x="481" y="267" type="curve" smooth="yes"/>
      <point x="481" y="404"/>
      <point x="379" y="512"/>
      <point x="250" y="512" type="curve" smooth="yes"/>
      <point x="127" y="512"/>
      <point x="38" y="413"/>
      <point x="38" y="285" type="curve" smooth="yes"/>
      <point x="38" y="151"/>
      <point x="136" y="36"/>
      <point x="271" y="36" type="curve" smooth="yes"/>
    </contour>
    <contour>
      <point x="193" y="140"/>
      <point x="143" y="207"/>
      <point x="143" y="274" type="curve" smooth="yes"/>
      <point x="143" y="350"/>
      <point x="183" y="407"/>
      <point x="261" y="407" type="curve" smooth="yes"/>
      <point x="326" y="407"/>
      <point x="382" y="354"/>
      <point x="382" y="278" type="curve" smooth="yes"/>
      <point x="382" y="198"/>
      <point x="330" y="140"/>
      <point x="261" y="140" type="curve" smooth="yes"/>
    </contour>
  </outline>
</glyph>
<glyph name="uni09E7" format="1">
  <advance width="400"/>
  <unicode hex="09E7"/>
  <outline>
    <contour>
      <point x="290" y="-12"/>
      <point x="410" y="87"/>
      <point x="410" y="220" type="curve" smooth="yes"/>
      <point x="410" y="325"/>
      <point x="335" y="365"/>
      <point x="230" y="420" type="curve" smooth="yes"/>
      <point x="139" y="468"/>
      <point x="108" y="490"/>
      <point x="91" y="541" type="curve" smooth="yes"/>
      <point x="84" y="564"/>
      <point x="76" y="587"/>
      <point x="43" y="587" type="curve" smooth="yes"/>
      <point x="18" y="587"/>
      <point x="-2" y="574"/>
      <point x="-2" y="538" type="curve" smooth="yes"/>
      <point x="-2" y="463"/>
      <point x="83" y="391"/>
      <point x="141" y="360" type="curve" smooth="yes"/>
      <point x="201" y="328"/>
      <point x="310" y="299"/>
      <point x="310" y="217" type="curve" smooth="yes"/>
      <point x="310" y="180"/>
      <point x="287" y="125"/>
      <point x="219" y="104" type="curve"/>
      <point x="253" y="29" type="line"/>
      <point x="278" y="45"/>
      <point x="289" y="69"/>
      <point x="289" y="104" type="curve" smooth="yes"/>
      <point x="289" y="148"/>
      <point x="252" y="206"/>
      <point x="170" y="206" type="curve" smooth="yes"/>
      <point x="98" y="206"/>
      <point x="50" y="154"/>
      <point x="50" y="94" type="curve" smooth="yes"/>
      <point x="50" y="40"/>
      <point x="88" y="-12"/>
      <point x="173" y="-12" type="curve" smooth="yes"/>
    </contour>
    <contour>
      <point x="150" y="63"/>
      <point x="136" y="75"/>
      <point x="136" y="92" type="curve" smooth="yes"/>
      <point x="136" y="108"/>
      <point x="148" y="123"/>
      <point x="170" y="123" type="curve" smooth="yes"/>
      <point x="190" y="123"/>
      <point x="202" y="110"/>
      <point x="202" y="94" type="curve" smooth="yes"/>
      <point x="202" y="77"/>
      <point x="190" y="63"/>
      <point x="169" y="63" type="curve" smooth="yes"/>
    </contour>
  </outline>
</glyph>
<glyph name="uni09E9" format="1">
  <advance width="604"/>
  <unicode hex="09E9"/>
  <outline>
    <contour>
      <point x="509" y="22"/>
      <point x="567" y="159"/>
      <point x="567" y="266" type="curve" smooth="yes"/>
      <point x="567" y="416"/>
      <point x="452" y="527"/>
      <point x="327" y="527" type="curve" smooth="yes"/>
      <point x="245" y="527"/>
      <point x="188" y="479"/>
      <point x="188" y="407" type="curve" smooth="yes"/>
      <point x="188" y="333"/>
      <point x="245" y="283"/>
      <point x="315" y="283" type="curve" smooth="yes"/>
      <point x="393" y="283"/>
      <point x="429" y="344"/>
      <point x="429" y="402" type="curve" smooth="yes"/>
      <point x="429" y="451"/>
      <point x="385" y="498"/>
      <point x="352" y="498" type="curve"/>
      <point x="357" y="439" type="line"/>
      <point x="439" y="439"/>
      <point x="470" y="332"/>
      <point x="470" y="269" type="curve" smooth="yes"/>
      <point x="470" y="213"/>
      <point x="447" y="129"/>
      <point x="355" y="129" type="curve" smooth="yes"/>
      <point x="211" y="129"/>
      <point x="150" y="326"/>
      <point x="118" y="432" type="curve" smooth="yes"/>
      <point x="102" y="485"/>
      <point x="82" y="487"/>
      <point x="69" y="487" type="curve" smooth="yes"/>
      <point x="54" y="487"/>
      <point x="27" y="479"/>
      <point x="27" y="447" type="curve" smooth="yes"/>
      <point x="27" y="385"/>
      <point x="125" y="22"/>
      <point x="363" y="22" type="curve" smooth="yes"/>
    </contour>
    <contour>
      <point x="295" y="373"/>
      <point x="280" y="386"/>
      <point x="280" y="405" type="curve" smooth="yes"/>
      <point x="280" y="424"/>
      <point x="294" y="438"/>
      <point x="313" y="438" type="curve" smooth="yes"/>
      <point x="332" y="438"/>
      <point x="347" y="424"/>
      <point x="347" y="406" type="curve" smooth="yes"/>
      <point x="347" y="386"/>
      <point x="330" y="373"/>
      <point x="313" y="373" type="curve" smooth="yes"/>
    </contour>
  </outline>
</glyph>
<glyph name="uni09EA" format="1">
  <advance width="521"/>
  <unicode hex="09EA"/>
  <outline>
    <contour>
      <point x="402" y="-12"/>
      <point x="464" y="58"/>
      <point x="464" y="142" type="curve" smooth="yes"/>
      <point x="464" y="322"/>
      <point x="181" y="306"/>
      <point x="181" y="423" type="curve" smooth="yes"/>
      <point x="181" y="473"/>
      <point x="220" y="490"/>
      <point x="258" y="490" type="curve" smooth="yes"/>
      <point x="290" y="490"/>
      <point x="331" y="474"/>
      <point x="331" y="433" type="curve" smooth="yes"/>
      <point x="331" y="344"/>
      <point x="79" y="287"/>
      <point x="79" y="144" type="curve" smooth="yes"/>
      <point x="79" y="64"/>
      <point x="132" y="-12"/>
      <point x="277" y="-12" type="curve" smooth="yes"/>
    </contour>
    <contour>
      <point x="226" y="78"/>
      <point x="187" y="103"/>
      <point x="187" y="144" type="curve" smooth="yes"/>
      <point x="187" y="236"/>
      <point x="433" y="272"/>
      <point x="433" y="427" type="curve" smooth="yes"/>
      <point x="433" y="533"/>
      <point x="344" y="578"/>
      <point x="255" y="578" type="curve" smooth="yes"/>
      <point x="173" y="578"/>
      <point x="90" y="528"/>
      <point x="90" y="429" type="curve" smooth="yes"/>
      <point x="90" y="221"/>
      <point x="363" y="241"/>
      <point x="363" y="144" type="curve" smooth="yes"/>
      <point x="363" y="115"/>
      <point x="336" y="78"/>
      <point x="273" y="78" type="curve" smooth="yes"/>
    </contour>
  </outline>
</glyph>
<glyph name="uni09EC" format="1">
  <advance width="550"/>
  <unicode hex="09EC"/>
  <outline>
    <contour>
      <point x="460" y="-12"/>
      <point x="522" y="95"/>
      <point x="522" y="190" type="curve" smooth="yes"/>
      <point x="522" y="267"/>
      <point x="479" y="366"/>
      <point x="429" y="366" type="curve" smooth="yes"/>
      <point x="408" y="366"/>
      <point x="393" y="352"/>
      <point x="393" y="321" type="curve" smooth="yes"/>
      <point x="393" y="283"/>
      <point x="375" y="262"/>
      <point x="351" y="262" type="curve" smooth="yes"/>
      <point x="315" y="262"/>
      <point x="310" y="291"/>
      <point x="310" y="346" type="curve" smooth="yes"/>
      <point x="310" y="484" type="line" smooth="yes"/>
      <point x="310" y="547"/>
      <point x="251" y="587"/>
      <point x="201" y="587" type="curve" smooth="yes"/>
      <point x="167" y="587"/>
      <point x="154" y="569"/>
      <point x="154" y="548" type="curve" smooth="yes"/>
      <point x="154" y="520"/>
      <point x="179" y="509"/>
      <point x="196" y="502" type="curve" smooth="yes"/>
      <point x="219" y="492"/>
      <point x="222" y="473"/>
      <point x="222" y="427" type="curve"/>
      <point x="221" y="290" type="line" smooth="yes"/>
      <point x="220" y="218"/>
      <point x="272" y="175"/>
      <point x="334" y="175" type="curve" smooth="yes"/>
      <point x="398" y="175"/>
      <point x="455" y="233"/>
      <point x="455" y="290" type="curve"/>
      <point x="416" y="262" type="line"/>
      <point x="439" y="233"/>
      <point x="444" y="218"/>
      <point x="444" y="190" type="curve" smooth="yes"/>
      <point x="444" y="129"/>
      <point x="389" y="85"/>
      <point x="329" y="85" type="curve" smooth="yes"/>
      <point x="192" y="85"/>
      <point x="151" y="242"/>
      <point x="132" y="370" type="curve" smooth="yes"/>
      <point x="130" y="384"/>
      <point x="120" y="414"/>
      <point x="91" y="414" type="curve" smooth="yes"/>
      <point x="58" y="414"/>
      <point x="51" y="385"/>
      <point x="51" y="355" type="curve" smooth="yes"/>
      <point x="51" y="267"/>
      <point x="113" y="-12"/>
      <point x="340" y="-12" type="curve" smooth="yes"/>
    </contour>
  </outline>
</glyph>
<glyph name="endash" format="1">
  <advance width="511"/>
  <unicode hex="2013"/>
  <outline>
    <contour>
      <point x="407" y="182" type="line" smooth="yes"/>
      <point x="431" y="182"/>
      <point x="451" y="200"/>
      <point x="451" y="223" type="curve" smooth="yes"/>
      <point x="451" y="246"/>
      <point x="431" y="264"/>
      <point x="407" y="264" type="curve" smooth="yes"/>
      <point x="104" y="264" type="line" smooth="yes"/>
      <point x="80" y="264"/>
      <point x="60" y="246"/>
      <point x="60" y="223" type="curve" smooth="yes"/>
      <point x="60" y="200"/>
      <point x="80" y="182"/>
      <point x="104" y="182" type="curve" smooth="yes"/>
    </contour>
  </outline>
</glyph>
<glyph name="quotedblleft" format="1">
  <advance width="406"/>
  <unicode hex="201C"/>
  <outline>
    <contour>
      <point x="369" y="364"/>
      <point x="374" y="391"/>
      <point x="359" y="410" type="curve" smooth="yes"/>
      <point x="338" y="435"/>
      <point x="328" y="471"/>
      <point x="328" y="500" type="curve" smooth="yes"/>
      <point x="328" y="519"/>
      <point x="329" y="532"/>
      <point x="332" y="544" type="curve" smooth="yes"/>
      <point x="338" y="566"/>
      <point x="319" y="590"/>
      <point x="296" y="596" type="curve" smooth="yes"/>
      <point x="273" y="600"/>
      <point x="244" y="588"/>
      <point x="238" y="567" type="curve" smooth="yes"/>
      <point x="233" y="549"/>
      <point x="230" y="528"/>
      <point x="230" y="500" type="curve" smooth="yes"/>
      <point x="230" y="452"/>
      <point x="254" y="397"/>
      <point x="287" y="357" type="curve" smooth="yes"/>
      <point x="301" y="339"/>
      <point x="331" y="337"/>
      <point x="350" y="350" type="curve" smooth="yes"/>
    </contour>
    <contour>
      <point x="201" y="364"/>
      <point x="206" y="391"/>
      <point x="191" y="410" type="curve" smooth="yes"/>
      <point x="170" y="435"/>
      <point x="160" y="471"/>
      <point x="160" y="500" type="curve" smooth="yes"/>
      <point x="160" y="519"/>
      <point x="161" y="532"/>
      <point x="164" y="544" type="curve" smooth="yes"/>
      <point x="170" y="566"/>
      <point x="151" y="590"/>
      <point x="128" y="596" type="curve" smooth="yes"/>
      <point x="105" y="600"/>
      <point x="76" y="588"/>
      <point x="70" y="567" type="curve" smooth="yes"/>
      <point x="65" y="549"/>
      <point x="62" y="528"/>
      <point x="62" y="500" type="curve" smooth="yes"/>
      <point x="62" y="452"/>
      <point x="86" y="397"/>
      <point x="119" y="357" type="curve" smooth="yes"/>
      <point x="133" y="339"/>
      <point x="163" y="337"/>
      <point x="182" y="350" type="curve" smooth="yes"/>
    </contour>
  </outline>
</glyph>
<glyph name="quotedblbase" format="1">
  <advance width="406"/>
  <unicode hex="201E"/>
  <outline>
    <contour>
      <point x="74" y="-124"/>
      <point x="104" y="-123"/>
      <point x="118" y="-104" type="curve" smooth="yes"/>
      <point x="153" y="-63"/>
      <point x="177" y="-9"/>
      <point x="177" y="38" type="curve" smooth="yes"/>
      <point x="177" y="67"/>
      <point x="173" y="88"/>
      <point x="168" y="105" type="curve" smooth="yes"/>
      <point x="162" y="128"/>
      <point x="133" y="139"/>
      <point x="110" y="134" type="curve" smooth="yes"/>
      <point x="87" y="129"/>
      <point x="68" y="104"/>
      <point x="74" y="83" type="curve" smooth="yes"/>
      <point x="77" y="70"/>
      <point x="79" y="58"/>
      <point x="79" y="38" type="curve" smooth="yes"/>
      <point x="79" y="9"/>
      <point x="69" y="-27"/>
      <point x="48" y="-52" type="curve" smooth="yes"/>
      <point x="33" y="-68"/>
      <point x="37" y="-96"/>
      <point x="56" y="-110" type="curve" smooth="yes"/>
    </contour>
    <contour>
      <point x="242" y="-124"/>
      <point x="272" y="-123"/>
      <point x="286" y="-104" type="curve" smooth="yes"/>
      <point x="321" y="-63"/>
      <point x="345" y="-9"/>
      <point x="345" y="38" type="curve" smooth="yes"/>
      <point x="345" y="67"/>
      <point x="341" y="88"/>
      <point x="336" y="105" type="curve" smooth="yes"/>
      <point x="330" y="128"/>
      <point x="301" y="139"/>
      <point x="278" y="134" type="curve" smooth="yes"/>
      <point x="255" y="129"/>
      <point x="236" y="104"/>
      <point x="242" y="83" type="curve" smooth="yes"/>
      <point x="245" y="70"/>
      <point x="247" y="58"/>
      <point x="247" y="38" type="curve" smooth="yes"/>
      <point x="247" y="9"/>
      <point x="237" y="-27"/>
      <point x="216" y="-52" type="curve" smooth="yes"/>
      <point x="201" y="-68"/>
      <point x="205" y="-96"/>
      <point x="224" y="-110" type="curve" smooth="yes"/>
    </contour>
  </outline>
</glyph>
<glyph name="uni20BA" format="1">
  <advance width="500"/>
  <unicode hex="20BA"/>
  <outline>
    <contour>
      <point x="260" y="-16"/>
      <point x="261" y="-16"/>
      <point x="261" y="-16" type="curve" smooth="yes"/>
      <point x="390" y="-12"/>
      <point x="476" y="51"/>
      <point x="489" y="165" type="curve" smooth="yes"/>
      <point x="491" y="189"/>
      <point x="468" y="209"/>
      <point x="445" y="212" type="curve" smooth="yes"/>
      <point x="421" y="214"/>
      <point x="394" y="197"/>
      <point x="391" y="175" type="curve" smooth="yes"/>
      <point x="384" y="107"/>
      <point x="336" y="66"/>
      <point x="259" y="67" type="curve" smooth="yes"/>
      <point x="147" y="69" type="line" smooth="yes"/>
      <point x="123" y="70"/>
      <point x="103" y="52"/>
      <point x="102" y="30" type="curve" smooth="yes"/>
      <point x="101" y="6"/>
      <point x="121" y="-12"/>
      <point x="145" y="-13" type="curve" smooth="yes"/>
      <point x="259" y="-16" type="line" smooth="yes"/>
    </contour>
    <contour>
      <point x="319" y="231" type="line" smooth="yes"/>
      <point x="341" y="239"/>
      <point x="353" y="263"/>
      <point x="344" y="285" type="curve" smooth="yes"/>
      <point x="336" y="306"/>
      <point x="310" y="317"/>
      <point x="287" y="309" type="curve" smooth="yes"/>
      <point x="39" y="221" type="line" smooth="yes"/>
      <point x="17" y="213"/>
      <point x="5" y="189"/>
      <point x="14" y="166" type="curve" smooth="yes"/>
      <point x="22" y="146"/>
      <point x="48" y="134"/>
      <point x="71" y="143" type="curve" smooth="yes"/>
    </contour>
    <contour>
      <point x="162" y="-13"/>
      <point x="187" y="5"/>
      <point x="187" y="29" type="curve" smooth="yes"/>
      <point x="187" y="507" type="line" smooth="yes"/>
      <point x="187" y="530"/>
      <point x="162" y="549"/>
      <point x="138" y="549" type="curve" smooth="yes"/>
      <point x="114" y="549"/>
      <point x="89" y="530"/>
      <point x="89" y="507" type="curve" smooth="yes"/>
      <point x="89" y="29" type="line" smooth="yes"/>
      <point x="89" y="5"/>
      <point x="114" y="-13"/>
      <point x="138" y="-13" type="curve" smooth="yes"/>
    </contour>
    <contour>
      <point x="319" y="389" type="line" smooth="yes"/>
      <point x="341" y="396"/>
      <point x="353" y="421"/>
      <point x="344" y="442" type="curve" smooth="yes"/>
      <point x="336" y="463"/>
      <point x="310" y="474"/>
      <point x="287" y="466" type="curve" smooth="yes"/>
      <point x="39" y="378" type="line" smooth="yes"/>
      <point x="17" y="370"/>
      <point x="5" y="346"/>
      <point x="14" y="324" type="curve" smooth="yes"/>
      <point x="22" y="303"/>
      <point x="48" y="292"/>
      <point x="71" y="300" type="curve" smooth="yes"/>
    </contour>
  </outline>
</glyph>
<glyph name="product" format="1">
  <advance width="589"/>
  <unicode hex="220F"/>
  <outline>
    <contour>
      <point x="143" y="-13"/>
      <point x="168" y="5"/>
      <point x="168" y="29" type="curve" smooth="yes"/>
      <point x="168" y="507" type="line"/>
      <point x="119" y="466" type="line"/>
      <point x="466" y="466" type="line"/>
      <point x="417" y="507" type="line"/>
      <point x="417" y="29" type="line" smooth="yes"/>
      <point x="417" y="5"/>
      <point x="442" y="-13"/>
      <point x="466" y="-13" type="curve" smooth="yes"/>
      <point x="490" y="-13"/>
      <point x="515" y="5"/>
      <point x="515" y="29" type="curve" smooth="yes"/>
      <point x="515" y="507" type="line" smooth="yes"/>
      <point x="515" y="530"/>
      <point x="493" y="549"/>
      <point x="466" y="549" type="curve" smooth="yes"/>
      <point x="119" y="549" type="line" smooth="yes"/>
      <point x="92" y="549"/>
      <point x="70" y="530"/>
      <point x="70" y="507" type="curve" smooth="yes"/>
      <point x="70" y="29" type="line" smooth="yes"/>
      <point x="70" y="5"/>
      <point x="95" y="-13"/>
      <point x="119" y="-13" type="curve" smooth="yes"/>
    </contour>
  </outline>
</glyph>
<glyph name="summation" format="1">
  <advance width="489"/>
  <unicode hex="2211"/>
  <outline>
    <contour>
      <point x="47" y="-18"/>
      <point x="76" y="-16"/>
      <point x="91" y="2" type="curve" smooth="yes"/>
      <point x="298" y="239" type="line" smooth="yes"/>
      <point x="313" y="257"/>
      <point x="309" y="285"/>
      <point x="291" y="298" type="curve" smooth="yes"/>
      <point x="272" y="313"/>
      <point x="243" y="311"/>
      <point x="228" y="293" type="curve" smooth="yes"/>
      <point x="21" y="56" type="line" smooth="yes"/>
      <point x="6" y="37"/>
      <point x="10" y="10"/>
      <point x="28" y="-3" type="curve" smooth="yes"/>
    </contour>
    <contour>
      <point x="412" y="-13" type="line" smooth="yes"/>
      <point x="436" y="-13"/>
      <point x="456" y="5"/>
      <point x="456" y="29" type="curve" smooth="yes"/>
      <point x="456" y="51"/>
      <point x="436" y="69"/>
      <point x="412" y="69" type="curve" smooth="yes"/>
      <point x="65" y="69" type="line" smooth="yes"/>
      <point x="41" y="69"/>
      <point x="21" y="51"/>
      <point x="21" y="29" type="curve" smooth="yes"/>
      <point x="21" y="5"/>
      <point x="41" y="-13"/>
      <point x="65" y="-13" type="curve" smooth="yes"/>
    </contour>
    <contour>
      <point x="310" y="254"/>
      <point x="314" y="282"/>
      <point x="300" y="299" type="curve" smooth="yes"/>
      <point x="104" y="534" type="line" smooth="yes"/>
      <point x="89" y="552"/>
      <point x="59" y="553"/>
      <point x="41" y="540" type="curve" smooth="yes"/>
      <point x="22" y="526"/>
      <point x="18" y="499"/>
      <point x="32" y="481" type="curve" smooth="yes"/>
      <point x="228" y="247" type="line" smooth="yes"/>
      <point x="243" y="228"/>
      <point x="273" y="227"/>
      <point x="291" y="240" type="curve" smooth="yes"/>
    </contour>
    <contour>
      <point x="407" y="466" type="line" smooth="yes"/>
      <point x="431" y="466"/>
      <point x="451" y="485"/>
      <point x="451" y="507" type="curve" smooth="yes"/>
      <point x="451" y="530"/>
      <point x="431" y="549"/>
      <point x="407" y="549" type="curve" smooth="yes"/>
      <point x="75" y="549" type="line" smooth="yes"/>
      <point x="51" y="549"/>
      <point x="31" y="530"/>
      <point x="31" y="507" type="curve" smooth="yes"/>
      <point x="31" y="485"/>
      <point x="51" y="466"/>
      <point x="75" y="466" type="curve" smooth="yes"/>
    </contour>
  </outline>
</glyph>
<glyph name="minus" format="1">
  <advance width="537"/>
  <unicode hex="2212"/>
  <outline>
    <contour>
      <point x="445" y="211" type="line" smooth="yes"/>
      <point x="469" y="211"/>
      <point x="489" y="229"/>
      <point x="489" y="253" type="curve" smooth="yes"/>
      <point x="489" y="275"/>
      <point x="469" y="293"/>
      <point x="445" y="293" type="curve" smooth="yes"/>
      <point x="91" y="293" type="line" smooth="yes"/>
      <point x="67" y="293"/>
      <point x="47" y="275"/>
      <point x="47" y="253" type="curve" smooth="yes"/>
      <point x="47" y="229"/>
      <point x="67" y="211"/>
      <point x="91" y="211" type="curve" smooth="yes"/>
    </contour>
  </outline>
</glyph>
<glyph name="uni2215" format="1">
  <advance width="457"/>
  <unicode hex="2215"/>
  <outline>
    <contour>
      <point x="80" y="-19"/>
      <point x="110" y="-13"/>
      <point x="122" y="6" type="curve" smooth="yes"/>
      <point x="420" y="486" type="line" smooth="yes"/>
      <point x="432" y="504"/>
      <point x="423" y="532"/>
      <point x="402" y="543" type="curve" smooth="yes"/>
      <point x="382" y="554"/>
      <point x="352" y="549"/>
      <point x="340" y="529" type="curve" smooth="yes"/>
      <point x="42" y="50" type="line" smooth="yes"/>
      <point x="30" y="32"/>
      <point x="39" y="3"/>
      <point x="60" y="-7" type="curve" smooth="yes"/>
    </contour>
  </outline>
</glyph>
<glyph name="approxequal" format="1">
  <advance width="537"/>
  <unicode hex="2248"/>
  <outline>
    <contour>
      <point x="423" y="80"/>
      <point x="470" y="103"/>
      <point x="524" y="181" type="curve" smooth="yes"/>
      <point x="537" y="198"/>
      <point x="530" y="227"/>
      <point x="510" y="239" type="curve" smooth="yes"/>
      <point x="490" y="252"/>
      <point x="461" y="247"/>
      <point x="448" y="228" type="curve" smooth="yes"/>
      <point x="420" y="189"/>
      <point x="399" y="163"/>
      <point x="366" y="163" type="curve" smooth="yes"/>
      <point x="339" y="163"/>
      <point x="321" y="181"/>
      <point x="296" y="198" type="curve" smooth="yes"/>
      <point x="256" y="228"/>
      <point x="216" y="252"/>
      <point x="176" y="252" type="curve" smooth="yes"/>
      <point x="119" y="252"/>
      <point x="73" y="222"/>
      <point x="23" y="149" type="curve" smooth="yes"/>
      <point x="10" y="130"/>
      <point x="18" y="102"/>
      <point x="38" y="91" type="curve" smooth="yes"/>
      <point x="58" y="78"/>
      <point x="88" y="83"/>
      <point x="101" y="101" type="curve" smooth="yes"/>
      <point x="125" y="137"/>
      <point x="143" y="168"/>
      <point x="176" y="168" type="curve" smooth="yes"/>
      <point x="200" y="168"/>
      <point x="220" y="149"/>
      <point x="242" y="132" type="curve" smooth="yes"/>
      <point x="287" y="99"/>
      <point x="321" y="80"/>
      <point x="366" y="80" type="curve" smooth="yes"/>
    </contour>
    <contour>
      <point x="423" y="276"/>
      <point x="470" y="302"/>
      <point x="524" y="378" type="curve" smooth="yes"/>
      <point x="537" y="396"/>
      <point x="530" y="423"/>
      <point x="511" y="437" type="curve" smooth="yes"/>
      <point x="491" y="449"/>
      <point x="461" y="444"/>
      <point x="448" y="426" type="curve" smooth="yes"/>
      <point x="420" y="387"/>
      <point x="399" y="358"/>
      <point x="365" y="358" type="curve" smooth="yes"/>
      <point x="339" y="358"/>
      <point x="321" y="377"/>
      <point x="299" y="393" type="curve" smooth="yes"/>
      <point x="259" y="427"/>
      <point x="225" y="446"/>
      <point x="176" y="446" type="curve" smooth="yes"/>
      <point x="124" y="446"/>
      <point x="73" y="421"/>
      <point x="23" y="348" type="curve" smooth="yes"/>
      <point x="10" y="328"/>
      <point x="18" y="301"/>
      <point x="38" y="289" type="curve" smooth="yes"/>
      <point x="58" y="277"/>
      <point x="88" y="282"/>
      <point x="101" y="300" type="curve" smooth="yes"/>
      <point x="125" y="336"/>
      <point x="146" y="363"/>
      <point x="176" y="363" type="curve" smooth="yes"/>
      <point x="203" y="363"/>
      <point x="219" y="348"/>
      <point x="239" y="331" type="curve" smooth="yes"/>
      <point x="285" y="295"/>
      <point x="321" y="276"/>
      <point x="365" y="276" type="curve" smooth="yes"/>
    </contour>
  </outline>
</glyph>
<glyph name="acutecomb.case" format="1">
  <advance width="0"/>
  <outline>
    <contour>
      <point x="49" y="469"/>
      <point x="96" y="500"/>
      <point x="144" y="525" type="curve" smooth="yes"/>
      <point x="165" y="536"/>
      <point x="172" y="563"/>
      <point x="160" y="582" type="curve" smooth="yes"/>
      <point x="148" y="602"/>
      <point x="120" y="608"/>
      <point x="100" y="597" type="curve" smooth="yes"/>
      <point x="51" y="570"/>
      <point x="-1" y="538"/>
      <point x="-33" y="516" type="curve" smooth="yes"/>
      <point x="-52" y="503"/>
      <point x="-57" y="476"/>
      <point x="-43" y="458" type="curve" smooth="yes"/>
      <point x="-29" y="439"/>
      <point x="-1" y="434"/>
      <point x="19" y="448" type="curve" smooth="yes"/>
    </contour>
    <contour>
      <point x="0" y="351" type="move" name="_top"/>
    </contour>
  </outline>
</glyph>
<glyph name="bBDRa" format="1">
  <advance width="730"/>
  <outline>
    <contour>
      <point x="612" y="-44" type="line"/>
      <point x="591" y="54"/>
      <point x="526" y="74"/>
      <point x="468" y="74" type="curve" smooth="yes"/>
      <point x="385" y="74"/>
      <point x="318" y="34"/>
      <point x="259" y="34" type="curve" smooth="yes"/>
      <point x="225" y="34"/>
      <point x="214" y="47"/>
      <point x="214" y="64" type="curve" smooth="yes"/>
      <point x="214" y="77"/>
      <point x="221" y="88"/>
      <point x="221" y="104" type="curve" smooth="yes"/>
      <point x="221" y="128"/>
      <point x="205" y="140"/>
      <point x="183" y="140" type="curve" smooth="yes"/>
      <point x="145" y="140"/>
      <point x="127" y="103"/>
      <point x="127" y="61" type="curve" smooth="yes"/>
      <point x="127" y="0"/>
      <point x="165" y="-58"/>
      <point x="259" y="-58" type="curve" smooth="yes"/>
      <point x="341" y="-58"/>
      <point x="432" y="-14"/>
      <point x="498" y="-14" type="curve" smooth="yes"/>
      <point x="541" y="-14"/>
      <point x="566" y="-33"/>
      <point x="566" y="-74" type="curve"/>
    </contour>
    <contour>
      <point x="650" y="-140"/>
      <point x="662" y="-108"/>
      <point x="662" y="-74" type="curve" smooth="yes"/>
      <point x="662" y="74" type="line" smooth="yes"/>
      <point x="662" y="143"/>
      <point x="646" y="182"/>
      <point x="646" y="232" type="curve" smooth="yes"/>
      <point x="646" y="313"/>
      <point x="675" y="370"/>
      <point x="675" y="410" type="curve" smooth="yes"/>
      <point x="675" y="428"/>
      <point x="667" y="451"/>
      <point x="631" y="451" type="curve" smooth="yes"/>
      <point x="588" y="451"/>
      <point x="462" y="349"/>
      <point x="367" y="253" type="curve"/>
      <point x="386" y="235" type="line"/>
      <point x="386" y="406" type="line" smooth="yes"/>
      <point x="386" y="455"/>
      <point x="384" y="502"/>
      <point x="434" y="502" type="curve" smooth="yes"/>
      <point x="729" y="502" type="line" smooth="yes"/>
      <point x="755" y="502"/>
      <point x="775" y="520"/>
      <point x="775" y="545" type="curve" smooth="yes"/>
      <point x="775" y="569"/>
      <point x="755" y="587"/>
      <point x="729" y="587" type="curve" smooth="yes"/>
      <point x="415" y="587" type="line" smooth="yes"/>
      <point x="368" y="587"/>
      <point x="291" y="571"/>
      <point x="291" y="477" type="curve" smooth="yes"/>
      <point x="291" y="176" type="line" smooth="yes"/>
      <point x="291" y="143"/>
      <point x="308" y="124"/>
      <point x="336" y="124" type="curve" smooth="yes"/>
      <point x="368" y="124"/>
      <point x="386" y="140"/>
      <point x="435" y="189" type="curve" smooth="yes"/>
      <point x="477" y="231"/>
      <point x="558" y="300"/>
      <point x="603" y="331" type="curve"/>
      <point x="600" y="337" type="line"/>
      <point x="563" y="312"/>
      <point x="554" y="261"/>
      <point x="554" y="223" type="curve" smooth="yes"/>
      <point x="554" y="181"/>
      <point x="566" y="142"/>
      <point x="566" y="72" type="curve" smooth="yes"/>
      <point x="566" y="-74" type="line" smooth="yes"/>
      <point x="566" y="-114"/>
      <point x="586" y="-140"/>
      <point x="617" y="-140" type="curve" smooth="yes"/>
    </contour>
    <contour>
      <point x="353" y="188" type="line"/>
      <point x="342" y="279"/>
      <point x="222" y="348"/>
      <point x="146" y="348" type="curve"/>
      <point x="143" y="316" type="line"/>
      <point x="216" y="347"/>
      <point x="357" y="377"/>
      <point x="355" y="486" type="curve" smooth="yes"/>
      <point x="354" y="543"/>
      <point x="305" y="587"/>
      <point x="226" y="587" type="curve" smooth="yes"/>
      <point x="0" y="587" type="line" smooth="yes"/>
      <point x="-26" y="587"/>
      <point x="-46" y="569"/>
      <point x="-46" y="545" type="curve" smooth="yes"/>
      <point x="-46" y="521"/>
      <point x="-26" y="502"/>
      <point x="0" y="502" type="curve" smooth="yes"/>
      <point x="212" y="502" type="line" smooth="yes"/>
      <point x="268" y="502"/>
      <point x="290" y="506"/>
      <point x="290" y="483" type="curve" smooth="yes"/>
      <point x="290" y="457"/>
      <point x="197" y="428"/>
      <point x="88" y="382" type="curve" smooth="yes"/>
      <point x="55" y="368"/>
      <point x="47" y="350"/>
      <point x="47" y="330" type="curve" smooth="yes"/>
      <point x="47" y="305"/>
      <point x="67" y="290"/>
      <point x="92" y="283" type="curve" smooth="yes"/>
      <point x="145" y="268"/>
      <point x="291" y="224"/>
      <point x="291" y="173" type="curve"/>
    </contour>
  </outline>
</glyph>
<glyph name="bBDda" format="1">
  <advance width="620"/>
  <outline>
    <contour>
      <point x="521" y="-26"/>
      <point x="590" y="108"/>
      <point x="590" y="224" type="curve" smooth="yes"/>
      <point x="590" y="305"/>
      <point x="555" y="334"/>
      <point x="527" y="334" type="curve" smooth="yes"/>
      <point x="509" y="334"/>
      <point x="498" y="326"/>
      <point x="495" y="308" type="curve" smooth="yes"/>
      <point x="491" y="279"/>
      <point x="474" y="260"/>
      <point x="445" y="260" type="curve" smooth="yes"/>
      <point x="408" y="260"/>
      <point x="385" y="297"/>
      <point x="385" y="364" type="curve" smooth="yes"/>
      <point x="385" y="434"/>
      <point x="416" y="502"/>
      <point x="479" y="502" type="curve" smooth="yes"/>
      <point x="620" y="502" type="line" smooth="yes"/>
      <point x="646" y="502"/>
      <point x="666" y="520"/>
      <point x="666" y="545" type="curve" smooth="yes"/>
      <point x="666" y="569"/>
      <point x="646" y="587"/>
      <point x="620" y="587" type="curve" smooth="yes"/>
      <point x="485" y="587" type="line" smooth="yes"/>
      <point x="377" y="587"/>
      <point x="302" y="469"/>
      <point x="302" y="344" type="curve" smooth="yes"/>
      <point x="302" y="279"/>
      <point x="328" y="172"/>
      <point x="428" y="172" type="curve" smooth="yes"/>
      <point x="491" y="172"/>
      <point x="513" y="218"/>
      <point x="523" y="253" type="curve"/>
      <point x="492" y="270" type="line"/>
      <point x="500" y="260"/>
      <point x="509" y="240"/>
      <point x="509" y="220" type="curve" smooth="yes"/>
      <point x="509" y="156"/>
      <point x="451" y="76"/>
      <point x="366" y="76" type="curve" smooth="yes"/>
      <point x="200" y="76"/>
      <point x="133" y="213"/>
      <point x="88" y="371" type="curve" smooth="yes"/>
      <point x="80" y="397"/>
      <point x="63" y="417"/>
      <point x="39" y="417" type="curve" smooth="yes"/>
      <point x="21" y="417"/>
      <point x="3" y="401"/>
      <point x="3" y="372" type="curve" smooth="yes"/>
      <point x="3" y="253"/>
      <point x="118" y="-26"/>
      <point x="361" y="-26" type="curve" smooth="yes"/>
    </contour>
    <contour>
      <point x="397" y="249" type="line"/>
      <point x="354" y="309"/>
      <point x="255" y="348"/>
      <point x="189" y="348" type="curve"/>
      <point x="199" y="332" type="line"/>
      <point x="343" y="380"/>
      <point x="364" y="444"/>
      <point x="364" y="492" type="curve" smooth="yes"/>
      <point x="364" y="534"/>
      <point x="338" y="587"/>
      <point x="256" y="587" type="curve" smooth="yes"/>
      <point x="0" y="587" type="line" smooth="yes"/>
      <point x="-26" y="587"/>
      <point x="-46" y="569"/>
      <point x="-46" y="545" type="curve" smooth="yes"/>
      <point x="-46" y="521"/>
      <point x="-26" y="502"/>
      <point x="0" y="502" type="curve" smooth="yes"/>
      <point x="219" y="502" type="line" smooth="yes"/>
      <point x="244" y="502"/>
      <point x="302" y="506"/>
      <point x="302" y="477" type="curve" smooth="yes"/>
      <point x="302" y="453"/>
      <point x="261" y="437"/>
      <point x="178" y="397" type="curve"/>
      <point x="146" y="379"/>
      <point x="134" y="363"/>
      <point x="134" y="341" type="curve" smooth="yes"/>
      <point x="134" y="319"/>
      <point x="148" y="301"/>
      <point x="180" y="294" type="curve" smooth="yes"/>
      <point x="286" y="270"/>
      <point x="317" y="244"/>
      <point x="337" y="220" type="curve"/>
    </contour>
  </outline>
</glyph>
<glyph name="bBLa" format="1">
  <advance width="485"/>
  <outline>
    <contour>
      <point x="387" y="104" type="line"/>
      <point x="387" y="224"/>
      <point x="164" y="318"/>
      <point x="81" y="318" type="curve"/>
      <point x="127" y="289" type="line"/>
      <point x="329" y="357"/>
      <point x="368" y="422"/>
      <point x="368" y="476" type="curve" smooth="yes"/>
      <point x="368" y="528"/>
      <point x="331" y="587"/>
      <point x="250" y="587" type="curve" smooth="yes"/>
      <point x="0" y="587" type="line" smooth="yes"/>
      <point x="-17" y="587"/>
      <point x="-40" y="575"/>
      <point x="-40" y="546" type="curve" smooth="yes"/>
      <point x="-40" y="517"/>
      <point x="-19" y="502"/>
      <point x="0" y="502" type="curve" smooth="yes"/>
      <point x="222" y="502" type="line" smooth="yes"/>
      <point x="246" y="502"/>
      <point x="298" y="505"/>
      <point x="298" y="487" type="curve" smooth="yes"/>
      <point x="298" y="460"/>
      <point x="184" y="419"/>
      <point x="46" y="362" type="curve" smooth="yes"/>
      <point x="12" y="348"/>
      <point x="0" y="327"/>
      <point x="0" y="302" type="curve" smooth="yes"/>
      <point x="0" y="262"/>
      <point x="32" y="249"/>
      <point x="64" y="239" type="curve" smooth="yes"/>
      <point x="110" y="226"/>
      <point x="324" y="167"/>
      <point x="324" y="69" type="curve"/>
    </contour>
    <contour>
      <point x="398" y="-102"/>
      <point x="419" y="-78"/>
      <point x="419" y="-46" type="curve" smooth="yes"/>
      <point x="419" y="435" type="line" smooth="yes"/>
      <point x="419" y="491"/>
      <point x="419" y="502"/>
      <point x="453" y="502" type="curve" smooth="yes"/>
      <point x="485" y="502" type="line" smooth="yes"/>
      <point x="511" y="502"/>
      <point x="531" y="520"/>
      <point x="531" y="545" type="curve" smooth="yes"/>
      <point x="531" y="569"/>
      <point x="511" y="587"/>
      <point x="485" y="587" type="curve" smooth="yes"/>
      <point x="430" y="587" type="line" smooth="yes"/>
      <point x="368" y="587"/>
      <point x="324" y="544"/>
      <point x="324" y="457" type="curve" smooth="yes"/>
      <point x="324" y="-46" type="line" smooth="yes"/>
      <point x="324" y="-78"/>
      <point x="344" y="-102"/>
      <point x="371" y="-102" type="curve" smooth="yes"/>
    </contour>
    <contour>
      <point x="111" y="-122"/>
      <point x="141" y="-87"/>
      <point x="141" y="-47" type="curve" smooth="yes"/>
      <point x="141" y="-2"/>
      <point x="104" y="30"/>
      <point x="65" y="30" type="curve" smooth="yes"/>
      <point x="23" y="30"/>
      <point x="3" y="-8"/>
      <point x="3" y="-34" type="curve" smooth="yes"/>
      <point x="3" y="-49"/>
      <point x="9" y="-68"/>
      <point x="19" y="-78" type="curve"/>
      <point x="36" y="-66" type="line"/>
      <point x="30" y="-58"/>
      <point x="26" y="-41"/>
      <point x="26" y="-27" type="curve" smooth="yes"/>
      <point x="26" y="25"/>
      <point x="78" y="65"/>
      <point x="138" y="65" type="curve" smooth="yes"/>
      <point x="175" y="65"/>
      <point x="221" y="46"/>
      <point x="221" y="15" type="curve" smooth="yes"/>
      <point x="221" y="6"/>
      <point x="218" y="-3"/>
      <point x="209" y="-3" type="curve" smooth="yes"/>
      <point x="202" y="-3"/>
      <point x="196" y="3"/>
      <point x="196" y="11" type="curve" smooth="yes"/>
      <point x="196" y="34"/>
      <point x="233" y="50"/>
      <point x="260" y="50" type="curve" smooth="yes"/>
      <point x="298" y="50"/>
      <point x="325" y="20"/>
      <point x="325" y="-46" type="curve"/>
      <point x="375" y="-31" type="line"/>
      <point x="375" y="15"/>
      <point x="347" y="115"/>
      <point x="257" y="115" type="curve" smooth="yes"/>
      <point x="193" y="115"/>
      <point x="146" y="64"/>
      <point x="146" y="9" type="curve" smooth="yes"/>
      <point x="146" y="-28"/>
      <point x="167" y="-63"/>
      <point x="210" y="-63" type="curve" smooth="yes"/>
      <point x="246" y="-63"/>
      <point x="272" y="-40"/>
      <point x="272" y="4" type="curve" smooth="yes"/>
      <point x="272" y="73"/>
      <point x="211" y="139"/>
      <point x="121" y="139" type="curve" smooth="yes"/>
      <point x="31" y="139"/>
      <point x="-35" y="70"/>
      <point x="-35" y="-12" type="curve" smooth="yes"/>
      <point x="-35" y="-87"/>
      <point x="19" y="-122"/>
      <point x="65" y="-122" type="curve" smooth="yes"/>
    </contour>
    <contour>
      <point x="50" y="-59"/>
      <point x="41" y="-52"/>
      <point x="41" y="-39" type="curve" smooth="yes"/>
      <point x="41" y="-27"/>
      <point x="50" y="-19"/>
      <point x="61" y="-19" type="curve" smooth="yes"/>
      <point x="71" y="-19"/>
      <point x="81" y="-27"/>
      <point x="81" y="-39" type="curve" smooth="yes"/>
      <point x="81" y="-52"/>
      <point x="71" y="-59"/>
      <point x="61" y="-59" type="curve" smooth="yes"/>
    </contour>
  </outline>
</glyph>
<glyph name="bBRa_bSignU" format="1">
  <advance width="709"/>
  <outline>
    <contour>
      <point x="624" y="153"/>
      <point x="694" y="212"/>
      <point x="694" y="306" type="curve" smooth="yes"/>
      <point x="694" y="385"/>
      <point x="644" y="448"/>
      <point x="567" y="448" type="curve" smooth="yes"/>
      <point x="501" y="448"/>
      <point x="460" y="402"/>
      <point x="460" y="351" type="curve" smooth="yes"/>
      <point x="460" y="290"/>
      <point x="519" y="256"/>
      <point x="565" y="256" type="curve" smooth="yes"/>
      <point x="614" y="256"/>
      <point x="648" y="296"/>
      <point x="648" y="338" type="curve" smooth="yes"/>
      <point x="648" y="366"/>
      <point x="634" y="394"/>
      <point x="604" y="409" type="curve"/>
      <point x="588" y="377" type="line"/>
      <point x="613" y="364"/>
      <point x="627" y="332"/>
      <point x="627" y="308" type="curve" smooth="yes"/>
      <point x="627" y="271"/>
      <point x="595" y="237"/>
      <point x="545" y="237" type="curve" smooth="yes"/>
      <point x="482" y="237"/>
      <point x="419" y="290"/>
      <point x="419" y="362" type="curve"/>
      <point x="370" y="335" type="line"/>
      <point x="370" y="256"/>
      <point x="434" y="153"/>
      <point x="542" y="153" type="curve" smooth="yes"/>
    </contour>
    <contour>
      <point x="563" y="325"/>
      <point x="552" y="334"/>
      <point x="552" y="348" type="curve" smooth="yes"/>
      <point x="552" y="365"/>
      <point x="563" y="372"/>
      <point x="576" y="372" type="curve" smooth="yes"/>
      <point x="587" y="372"/>
      <point x="599" y="365"/>
      <point x="599" y="348" type="curve" smooth="yes"/>
      <point x="599" y="333"/>
      <point x="587" y="325"/>
      <point x="576" y="325" type="curve" smooth="yes"/>
    </contour>
    <contour>
      <point x="709" y="502" type="line" smooth="yes"/>
      <point x="735" y="502"/>
      <point x="755" y="520"/>
      <point x="755" y="545" type="curve" smooth="yes"/>
      <point x="755" y="569"/>
      <point x="735" y="587"/>
      <point x="709" y="587" type="curve" smooth="yes"/>
      <point x="487" y="587" type="line" smooth="yes"/>
      <point x="461" y="587"/>
      <point x="441" y="569"/>
      <point x="441" y="545" type="curve" smooth="yes"/>
      <point x="441" y="521"/>
      <point x="461" y="502"/>
      <point x="487" y="502" type="curve" smooth="yes"/>
    </contour>
    <contour>
      <point x="387" y="84" type="line"/>
      <point x="387" y="215"/>
      <point x="211" y="300"/>
      <point x="130" y="318" type="curve"/>
      <point x="127" y="289" type="line"/>
      <point x="329" y="357"/>
      <point x="368" y="422"/>
      <point x="368" y="476" type="curve" smooth="yes"/>
      <point x="368" y="528"/>
      <point x="331" y="587"/>
      <point x="250" y="587" type="curve" smooth="yes"/>
      <point x="0" y="587" type="line" smooth="yes"/>
      <point x="-17" y="587"/>
      <point x="-40" y="575"/>
      <point x="-40" y="546" type="curve" smooth="yes"/>
      <point x="-40" y="517"/>
      <point x="-19" y="502"/>
      <point x="0" y="502" type="curve" smooth="yes"/>
      <point x="222" y="502" type="line" smooth="yes"/>
      <point x="246" y="502"/>
      <point x="298" y="505"/>
      <point x="298" y="487" type="curve" smooth="yes"/>
      <point x="298" y="460"/>
      <point x="184" y="419"/>
      <point x="46" y="362" type="curve" smooth="yes"/>
      <point x="12" y="348"/>
      <point x="0" y="327"/>
      <point x="0" y="302" type="curve" smooth="yes"/>
      <point x="0" y="262"/>
      <point x="32" y="249"/>
      <point x="64" y="239" type="curve" smooth="yes"/>
      <point x="110" y="225"/>
      <point x="324" y="159"/>
      <point x="324" y="49" type="curve"/>
    </contour>
    <contour>
      <point x="365" y="-16" type="line"/>
      <point x="355" y="22"/>
      <point x="319" y="76"/>
      <point x="244" y="76" type="curve" smooth="yes"/>
      <point x="206" y="76"/>
      <point x="159" y="62"/>
      <point x="128" y="62" type="curve" smooth="yes"/>
      <point x="98" y="62"/>
      <point x="90" y="75"/>
      <point x="90" y="91" type="curve" smooth="yes"/>
      <point x="90" y="106"/>
      <point x="97" y="116"/>
      <point x="97" y="132" type="curve" smooth="yes"/>
      <point x="97" y="156"/>
      <point x="81" y="168"/>
      <point x="59" y="168" type="curve" smooth="yes"/>
      <point x="21" y="168"/>
      <point x="3" y="131"/>
      <point x="3" y="89" type="curve" smooth="yes"/>
      <point x="3" y="30"/>
      <point x="39" y="-30"/>
      <point x="125" y="-30" type="curve" smooth="yes"/>
      <point x="179" y="-30"/>
      <point x="223" y="-7"/>
      <point x="267" y="-7" type="curve" smooth="yes"/>
      <point x="303" y="-7"/>
      <point x="324" y="-23"/>
      <point x="324" y="-56" type="curve"/>
    </contour>
    <contour>
      <point x="398" y="-112"/>
      <point x="419" y="-88"/>
      <point x="419" y="-56" type="curve" smooth="yes"/>
      <point x="419" y="435" type="line" smooth="yes"/>
      <point x="419" y="491"/>
      <point x="419" y="502"/>
      <point x="453" y="502" type="curve" smooth="yes"/>
      <point x="485" y="502" type="line" smooth="yes"/>
      <point x="511" y="502"/>
      <point x="531" y="520"/>
      <point x="531" y="545" type="curve" smooth="yes"/>
      <point x="531" y="569"/>
      <point x="511" y="587"/>
      <point x="485" y="587" type="curve" smooth="yes"/>
      <point x="430" y="587" type="line" smooth="yes"/>
      <point x="368" y="587"/>
      <point x="324" y="544"/>
      <point x="324" y="457" type="curve" smooth="yes"/>
      <point x="324" y="-56" type="line" smooth="yes"/>
      <point x="324" y="-88"/>
      <point x="344" y="-112"/>
      <point x="371" y="-112" type="curve" smooth="yes"/>
    </contour>
  </outline>
</glyph>
